<svg width="20" height="24" viewBox="0 0 20 24" fill="none" xmlns="http://www.w3.org/2000/svg">
<path d="M10.0001 0.333374C7.52473 0.333374 5.15076 1.3167 3.40042 3.06704C1.65008 4.81738 0.666748 7.19135 0.666748 9.66671C0.666748 15.9667 8.89175 23.0834 9.24175 23.3867C9.45307 23.5675 9.722 23.6668 10.0001 23.6668C10.2782 23.6668 10.5471 23.5675 10.7584 23.3867C11.1667 23.0834 19.3334 15.9667 19.3334 9.66671C19.3334 7.19135 18.3501 4.81738 16.5997 3.06704C14.8494 1.3167 12.4754 0.333374 10.0001 0.333374ZM10.0001 20.925C7.51508 18.5917 3.00008 13.5634 3.00008 9.66671C3.00008 7.81019 3.73758 6.02971 5.05033 4.71696C6.36309 3.40421 8.14357 2.66671 10.0001 2.66671C11.8566 2.66671 13.6371 3.40421 14.9498 4.71696C16.2626 6.02971 17.0001 7.81019 17.0001 9.66671C17.0001 13.5634 12.4851 18.6034 10.0001 20.925ZM10.0001 5.00004C9.0771 5.00004 8.17485 5.27374 7.40742 5.78652C6.63999 6.2993 6.04185 7.02813 5.68864 7.88085C5.33543 8.73357 5.24302 9.67188 5.42308 10.5771C5.60315 11.4824 6.04761 12.3139 6.70025 12.9665C7.35289 13.6192 8.18442 14.0636 9.08966 14.2437C9.99491 14.4238 10.9332 14.3314 11.7859 13.9781C12.6387 13.6249 13.3675 13.0268 13.8803 12.2594C14.3931 11.4919 14.6667 10.5897 14.6667 9.66671C14.6667 8.42903 14.1751 7.24204 13.2999 6.36688C12.4247 5.49171 11.2378 5.00004 10.0001 5.00004ZM10.0001 12C9.53859 12 9.08747 11.8632 8.70375 11.6068C8.32004 11.3504 8.02097 10.986 7.84436 10.5596C7.66776 10.1333 7.62155 9.66412 7.71158 9.2115C7.80161 8.75887 8.02384 8.34311 8.35017 8.01679C8.67649 7.69047 9.09225 7.46824 9.54487 7.37821C9.99749 7.28818 10.4666 7.33438 10.893 7.51099C11.3194 7.68759 11.6838 7.98666 11.9402 8.37038C12.1966 8.75409 12.3334 9.20522 12.3334 9.66671C12.3334 10.2855 12.0876 10.879 11.65 11.3166C11.2124 11.7542 10.6189 12 10.0001 12Z" fill="black"/>
</svg>
