<svg width="90" height="90" viewBox="0 0 90 90" fill="none" xmlns="http://www.w3.org/2000/svg">
<circle cx="45" cy="45" r="44.5" stroke="#35BBE3" stroke-dasharray="6 6"/>
<g clip-path="url(#clip0_5599_11889)">
<path d="M15.2197 40.5637C15.1556 40.9403 15.4527 41.286 15.8323 41.286H19.9694C20.264 41.286 20.5106 41.0754 20.5673 40.7855C22.4916 31.0098 30.3059 23.267 40.1874 21.3468C40.4771 21.2911 40.6867 21.0421 40.6867 20.746V16.6268C40.6867 16.2453 40.3452 15.9467 39.9717 16.0087C27.2992 18.111 17.3203 28.013 15.2197 40.5637Z" fill="#35BBE3"/>
<path d="M70.0049 48.9978C69.7053 48.9978 69.4563 49.2158 69.4045 49.5132C67.6676 59.6593 59.6265 67.7155 49.4195 69.5836C49.1273 69.6357 48.9141 69.8871 48.9141 70.1845V74.3086C48.9141 74.6877 49.2518 74.985 49.6241 74.9268C62.6566 72.9037 72.8907 62.6647 74.778 49.7077C74.8335 49.336 74.5376 48.9978 74.1617 48.9978H70.0049Z" fill="#35BBE3"/>
<path d="M60.4497 48.9978C60.1724 48.9978 59.9369 49.1873 59.8617 49.4537C58.4527 54.5404 54.4451 58.5901 49.3539 60.1127C49.0938 60.1907 48.9126 60.4274 48.9126 60.6999V64.8376C48.9126 65.2341 49.28 65.5363 49.6621 65.4484C57.469 63.6421 63.5279 57.5334 65.2056 49.7448C65.287 49.3608 64.9862 48.9978 64.5967 48.9978H60.4497Z" fill="#FFDC00"/>
<path d="M44.8928 79H44.8952C45.5818 79 46.2327 78.7349 46.7197 78.2517C47.2115 77.7649 47.4827 77.1157 47.4827 76.4257V56.1582C51.5507 55.1944 54.7398 52.0366 55.7112 48.0054L76.4026 47.972C77.8351 47.9707 79 46.8112 79 45.3878C79 44.6952 78.7263 44.0436 78.232 43.5567C77.7439 43.0736 77.093 42.8072 76.3952 42.8072L55.7112 42.8481C54.7386 38.8207 51.5507 35.6728 47.4827 34.7189V13.5718C47.4827 12.1534 46.3227 11 44.8854 11C43.4616 11.0087 42.3015 12.167 42.3015 13.5842V34.7275C38.2422 35.6951 35.0555 38.8541 34.0854 42.8791L13.5826 42.92C12.1588 42.9225 11 44.0771 11 45.4943C11 46.1831 11.2712 46.831 11.7618 47.3166C12.2488 47.7998 12.8947 48.0661 13.5875 48.0661L34.0866 48.0339C35.0592 52.0552 38.2422 55.2056 42.3028 56.1607V76.422C42.3028 77.8429 43.4652 78.9988 44.894 79H44.8928ZM37.0365 45.5885C37.0365 41.1683 40.6028 37.5855 45 37.5855C49.3972 37.5855 52.9622 41.1683 52.9622 45.5885C52.9622 50.0086 49.3972 53.5901 45 53.5901C40.6028 53.5901 37.0365 50.0074 37.0365 45.5885Z" fill="#35BBE3"/>
<path d="M49.6202 15.9442C49.2504 15.8885 48.9126 16.1858 48.9126 16.5637V20.684C48.9126 20.9826 49.1283 21.2341 49.4205 21.2861C59.4857 23.101 67.4492 30.9441 69.3316 40.8908C69.3858 41.1832 69.6324 41.3962 69.9295 41.3962H74.0998C74.4782 41.3962 74.7753 41.0556 74.7149 40.6789C72.6711 27.9238 62.5133 17.9128 49.6202 15.9455V15.9442Z" fill="#35BBE3"/>
<path d="M48.9126 26.0284V30.1711C48.9126 30.4461 49.095 30.6815 49.3564 30.7583C54.3009 32.2238 58.221 36.0791 59.7311 40.9564C59.8112 41.2154 60.0442 41.395 60.3129 41.395H64.503C64.8974 41.395 65.1995 41.0221 65.107 40.6368C63.2986 33.0638 57.3174 27.1694 49.6609 25.4189C49.2787 25.3309 48.9126 25.6332 48.9126 26.0284Z" fill="#FFDC00"/>
<path d="M30.0752 49.8797C29.9951 49.6208 29.7621 49.4399 29.4921 49.4399H25.3267C24.9323 49.4399 24.6302 49.8104 24.7215 50.1956C26.5237 57.817 32.5567 63.7523 40.2748 65.4817C40.6558 65.5684 41.0194 65.2637 41.0194 64.8722V60.7468C41.0194 60.4706 40.8357 60.2352 40.5719 60.1584C35.5633 58.7127 31.5865 54.8116 30.0764 49.8797H30.0752Z" fill="#FFDC00"/>
<path d="M20.5352 49.9441C20.481 49.653 20.232 49.4399 19.9349 49.4399H15.7904C15.412 49.4399 15.1149 49.7806 15.1753 50.156C17.2044 62.9309 27.3917 72.9854 40.3095 74.944C40.683 74.9997 41.0183 74.7036 41.0183 74.3258V70.2066C41.0183 69.9056 40.8038 69.6553 40.5092 69.6033C30.4057 67.802 22.4053 59.9218 20.5352 49.9429V49.9441Z" fill="#35BBE3"/>
<path d="M39.9337 25.4859C32.4473 27.3132 26.5992 33.1097 24.7624 40.5229C24.665 40.9107 24.9695 41.286 25.3652 41.286H29.5565C29.824 41.286 30.0546 41.1101 30.1384 40.8537C31.6583 36.1126 35.4613 32.349 40.2554 30.8377C40.5131 30.7571 40.6893 30.5242 40.6893 30.2529V26.0929C40.6893 25.6952 40.3183 25.3917 39.9349 25.4846L39.9337 25.4859Z" fill="#FFDC00"/>
<path d="M37.0366 45.5884C37.0366 50.0086 40.6029 53.59 45.0001 53.59C49.3972 53.59 52.9623 50.0073 52.9623 45.5884C52.9623 41.1694 49.3972 37.5854 45.0001 37.5854C40.6029 37.5854 37.0366 41.1682 37.0366 45.5884Z" fill="#FFDC00"/>
</g>
<defs>
<clipPath id="clip0_5599_11889">
<rect width="68" height="68" fill="white" transform="translate(11 11)"/>
</clipPath>
</defs>
</svg>
