<svg width="69" height="69" viewBox="0 0 69 69" fill="none" xmlns="http://www.w3.org/2000/svg">
<g clip-path="url(#clip0_5599_11916)">
<path fill-rule="evenodd" clip-rule="evenodd" d="M12.7944 41.6498L17.4663 38.9803C17.4663 38.9803 22.5631 37.2953 23.2113 37.1641C23.8596 37.0328 30.387 36.3982 31.0352 36.3982C31.6835 36.3982 37.0708 37.1641 38.1438 37.733C39.2168 38.3019 42.7264 40.4026 43.5311 41.1028C44.3359 41.803 45.1183 43.2034 45.1183 44.5382C45.1183 45.873 44.3359 47.9737 43.6876 48.477C43.0393 48.9803 42.1899 50.0306 39.3062 50.1619C36.4225 50.2932 33.4942 50.1619 30.9235 50.4463C28.3527 50.7308 21.0877 50.7308 19.8135 50.8621C18.5393 50.9934 12.8614 48.6083 12.8614 48.6083L12.3696 45.1072L12.8614 41.6717L12.7944 41.6498Z" fill="#D7F9FF"/>
<path d="M45.3862 36.5733C49.5664 36.5733 52.9419 33.1597 52.9419 28.9584C52.9419 24.7571 49.5664 21.3435 45.3862 21.3435C41.206 21.3435 37.8306 24.7571 37.8306 28.9584C37.8306 33.1597 41.206 36.5733 45.3862 36.5733ZM45.3862 24.407C47.8899 24.407 49.9241 26.442 49.9241 28.9803C49.9241 31.5186 47.8899 33.5536 45.3862 33.5536C42.8826 33.5536 40.8484 31.5186 40.8484 28.9803C40.8484 26.442 42.8826 24.407 45.3862 24.407Z" fill="#5EDEFC"/>
<path d="M57.5916 41.0809C55.8703 39.5491 52.1372 37.2734 45.4087 37.2734C44.7827 37.2734 44.2239 37.3172 43.665 37.3391C44.4921 37.8642 45.1628 38.3894 45.6769 38.8489C47.1523 40.14 47.957 42.0656 47.957 44.2537C47.957 46.4419 47.0628 48.6082 45.6322 50.1837H53.3443C56.4739 50.1837 59.0222 47.6235 59.0222 44.4726C59.0222 43.3347 58.6869 42.0218 57.6139 41.0809H57.5916Z" fill="#5EDEFC"/>
<path fill-rule="evenodd" clip-rule="evenodd" d="M28.3974 12C22.7642 12 18.1816 16.6171 18.1816 22.3063C18.1816 27.9956 22.7642 32.6127 28.3974 32.6127C34.0306 32.6127 38.6132 27.9956 38.6132 22.3063C38.6132 16.6171 34.053 12 28.3974 12ZM22.2724 22.3063C22.2724 18.8928 25.022 16.1357 28.3974 16.1357C31.7729 16.1357 34.5224 18.8928 34.5224 22.3063C34.5224 25.7199 31.7729 28.477 28.3974 28.477C25.022 28.477 22.2724 25.7199 22.2724 22.3063Z" fill="#35BBE3"/>
<path d="M44.8946 39.6587C42.5474 37.6019 37.4954 34.4946 28.3974 34.4946C19.2993 34.4946 14.2473 37.58 11.9001 39.6587C10.4471 40.9279 10 42.7222 10 44.2539C10 48.5209 13.4425 51.9782 17.6898 51.9782H39.1273C43.3745 51.9782 46.8171 48.5209 46.8171 44.2539C46.8171 42.7222 46.3476 40.9279 44.917 39.6587H44.8946ZM39.1273 47.8863H17.6898C15.7003 47.8863 14.0908 46.2671 14.0908 44.2758C14.0908 43.4881 14.3143 43.0067 14.6049 42.766C16.1026 41.4531 19.7911 39.0461 26.7655 38.6959V39.3305C26.7655 39.5056 26.922 39.6369 27.1455 39.6587L26.229 44.7353L28.4197 47.1642L30.6104 44.7353L29.6268 39.6369C29.828 39.5931 29.9845 39.4837 29.9845 39.3086V38.6741C37.026 39.0023 40.7144 41.4312 42.2121 42.7441C42.5027 42.9848 42.7263 43.4662 42.7263 44.2539C42.7263 46.2452 41.1168 47.8644 39.1273 47.8644V47.8863Z" fill="#35BBE3"/>
</g>
<circle cx="34.5" cy="34.5" r="34" stroke="#35BBE3" stroke-dasharray="10 18 30 6"/>
<defs>
<clipPath id="clip0_5599_11916">
<rect width="49" height="40" fill="white" transform="translate(10 12)"/>
</clipPath>
</defs>
</svg>
