<svg width="88" height="88" viewBox="0 0 88 88" fill="none" xmlns="http://www.w3.org/2000/svg">
<path d="M44.0124 88C68.2795 88 87.952 68.3005 87.952 44C87.952 19.6995 68.2795 0 44.0124 0C19.7452 0 0.0727539 19.6995 0.0727539 44C0.0727539 68.3005 19.7452 88 44.0124 88Z" fill="#FFDC00"/>
<path d="M27.6235 52.0915L27.8974 51.9544L28.4681 51.6572L27.6235 52.0915Z" fill="#4F2200"/>
<path d="M63.1633 46.1258C62.6839 45.92 62.1132 46.1486 61.9078 46.6286C61.223 48.2058 60.4013 49.8515 59.6481 51.4515C58.347 54.08 57.0231 56.8 56.1329 59.4972H47.733V54.0115C47.733 52.4115 49.0569 51.0629 50.6776 51.0629C51.2026 51.0629 51.6134 50.6058 51.6134 50.1029C51.6134 49.5543 51.2026 49.1429 50.6776 49.1429C48.0069 49.1429 45.8385 51.3372 45.8385 54.0115V59.4972H43.0994V54.0115C43.0994 51.36 40.9081 49.1429 38.2375 49.1429C37.7125 49.1429 37.3016 49.5543 37.3016 50.1029C37.3016 50.6058 37.7125 51.0629 38.2375 51.0629C39.8581 51.0629 41.182 52.3886 41.182 54.0115V59.4972H31.9376C31.0702 56.8915 29.7692 54.2172 28.4909 51.6572L27.9203 51.9315L26.8018 52.5029C27.943 54.8115 29.0844 57.1886 29.9289 59.4972H29.3355C28.8105 59.4972 28.3996 59.9315 28.3996 60.4572C28.3996 60.9829 28.8105 61.4172 29.3355 61.4172H30.3854V64.2515H29.3355C28.8105 64.2515 28.3996 64.6629 28.3996 65.1886C28.3996 65.7372 28.8105 66.1486 29.3355 66.1486H30.3854V68.0458C30.3854 69.6 31.6637 70.88 33.2386 70.88H36.5484C37.119 73.4858 40.5201 75.4058 44.7428 75.4058C48.9656 75.4058 52.0927 73.4629 52.4351 70.88H54.9916C56.5666 70.88 57.8448 69.6 57.8448 68.0458V66.1486H58.7807C59.3057 66.1486 59.7165 65.7372 59.7165 65.1886C59.7165 64.6858 59.3057 64.2515 58.7807 64.2515H57.8448V61.4172H58.7807C59.3057 61.4172 59.7165 60.96 59.7165 60.4572C59.7165 59.9315 59.3057 59.4972 58.7807 59.4972H58.1644C59.009 57.0972 60.2187 54.6743 61.36 52.2972C62.1589 50.6972 62.9806 49.0286 63.6882 47.36C63.8936 46.88 63.6882 46.3315 63.186 46.1258H63.1633ZM44.6972 73.4629C41.7983 73.4629 39.1962 72.3429 38.5114 70.8572H50.4493C50.0156 72.1829 47.7787 73.4629 44.6972 73.4629ZM55.9275 68.0458C55.9275 68.5486 55.4938 68.9829 54.9688 68.9829H33.193C32.668 68.9829 32.2343 68.5486 32.2343 68.0458V66.1486H55.9275V68.0458ZM32.2343 64.2743V61.44H55.9275V64.2743H32.2343Z" fill="#4F2200"/>
<path d="M67.5228 27.7258C67.5228 27.7258 67.5685 27.4972 67.5913 27.3829C67.9337 25.2115 67.4315 22.9715 66.1076 21.1658C64.8065 19.36 62.8892 18.1715 60.6751 17.8286C58.4153 17.4629 56.1099 18.0572 54.3067 19.4058C53.3708 15.9772 50.4719 13.28 46.8655 12.7086C42.4373 12 38.2373 14.56 36.7537 18.6286C35.4982 17.3029 33.8548 16.3886 31.9831 16.1143C29.7918 15.7486 27.5777 16.2743 25.7745 17.5772C23.9712 18.88 22.7843 20.8 22.4419 22.9943C22.3278 23.7029 22.305 24.3886 22.3506 25.0515C18.3561 26.6972 15.4801 30.2858 14.7953 34.56C14.2703 37.8286 15.0463 41.12 16.9865 43.8172C18.9267 46.4915 21.8028 48.2515 25.0669 48.7772C25.7288 48.8915 26.4136 48.9372 27.0756 48.9372C30.3396 48.9372 33.4667 47.6343 35.7949 45.2572C36.9819 46.3315 38.4427 47.04 40.0177 47.2915C43.1905 47.7943 46.3405 46.4458 48.1437 43.84C48.8969 44.2286 49.7187 44.48 50.5632 44.64C53.7817 45.1429 56.9773 43.7258 58.7805 41.12C60.0588 42.56 61.7935 43.5429 63.7337 43.8629C65.925 44.2058 68.1391 43.7029 69.9423 42.4C71.7456 41.0743 72.9325 39.1543 73.2749 36.96C73.9368 32.8458 71.4032 28.8915 67.5228 27.68V27.7258ZM71.4032 36.7086C71.1292 38.4 70.2162 39.9086 68.8238 40.9143C67.4315 41.92 65.7424 42.3315 64.0305 42.08C62.2729 41.76 60.7207 40.7772 59.7392 39.3143C59.899 38.8115 60.0587 38.3315 60.1272 37.8058C60.2413 37.0972 60.2642 36.3886 60.1957 35.68C60.15 35.1772 59.6936 34.7658 59.1686 34.8343C58.6436 34.9029 58.2555 35.3372 58.3012 35.8858C58.3468 36.4343 58.324 36.96 58.2327 37.4858C58.1414 38.0115 57.9816 38.5372 57.7762 39.04C56.6121 41.7143 53.7588 43.3143 50.86 42.8343C50.2208 42.7429 49.6274 42.5143 49.0339 42.2629C49.285 41.6686 49.4448 41.0743 49.5361 40.4572C49.6959 39.52 49.6731 38.56 49.5361 37.6458C49.4448 37.1429 48.9426 36.8 48.4176 36.8915C47.9154 37.0058 47.5731 37.4858 47.6644 37.9886C47.8013 38.6972 47.8013 39.4286 47.6644 40.16C47.5502 40.8915 47.322 41.5772 46.9796 42.2172V42.24C45.6557 44.6172 42.9851 45.92 40.3145 45.4858C39.0819 45.28 37.9406 44.7315 37.0276 43.8858C38.0319 42.5143 38.7623 40.9143 39.1276 39.2458C39.2417 38.7429 38.9221 38.24 38.3971 38.1258C37.8721 38.0115 37.37 38.3315 37.2558 38.8572C36.8906 40.5029 36.1374 42.08 35.0417 43.3829C35.0417 43.3829 34.9961 43.4058 34.9961 43.4515C32.5994 46.24 29.0157 47.5658 25.3864 46.9715C22.6245 46.56 20.2049 45.0286 18.5387 42.7658C16.8952 40.5029 16.2333 37.7143 16.6898 34.9486C17.2604 31.4286 19.5659 28.48 22.7843 27.04C23.3549 28.8 24.5418 30.3543 26.094 31.36C26.2538 31.4743 26.4364 31.52 26.619 31.52C26.9386 31.52 27.2353 31.36 27.4179 31.0858C27.7147 30.6286 27.5777 30.0343 27.144 29.76C25.6832 28.8 24.656 27.2686 24.3593 25.5543V25.5086C24.2223 24.8 24.2223 24.0686 24.3593 23.36C24.6332 21.6686 25.5462 20.16 26.9386 19.1543C28.331 18.1715 30.02 17.7372 31.732 18.0343C33.6493 18.3543 35.2928 19.4743 36.2743 21.1658C36.1374 22.8115 36.4341 24.4115 37.1417 25.8972C37.3014 26.2172 37.6438 26.4 38.009 26.4C38.146 26.4 38.283 26.3772 38.42 26.3086C38.8765 26.08 39.0818 25.5086 38.8536 25.0286C38.2373 23.7486 38.0091 22.3772 38.1688 20.9829L38.2145 20.64C38.8536 16.6629 42.6199 13.9429 46.6144 14.56C49.8785 15.1086 52.3893 17.8058 52.7317 21.0515C51.9328 22.1258 51.385 23.36 51.1567 24.7315C51.0654 25.2343 51.4306 25.7143 51.9328 25.8286H52.0926C52.5491 25.8286 52.96 25.4858 53.0284 25.0286C53.211 23.8629 53.6904 22.7886 54.4208 21.92C54.4208 21.92 54.4664 21.8515 54.4893 21.8286C55.9501 20.1372 58.187 19.3143 60.4011 19.6572C62.0902 19.9315 63.574 20.8686 64.6011 22.2629C65.6055 23.6572 66.0163 25.3715 65.7424 27.0629C65.7424 27.1772 65.6967 27.2229 65.6967 27.3372C64.4185 27.2458 63.1403 27.4286 61.9533 27.9086C61.474 28.1143 61.2229 28.6629 61.4283 29.1429C61.5881 29.5086 61.9305 29.7372 62.3185 29.7372C62.4327 29.7372 62.5696 29.7143 62.6609 29.6686C63.7566 29.2115 64.9434 29.0743 66.1076 29.28H66.2445C69.6684 29.8972 71.9967 33.2115 71.4488 36.64L71.4032 36.7086Z" fill="#4F2200"/>
</svg>
