<svg width="69" height="69" viewBox="0 0 69 69" fill="none" xmlns="http://www.w3.org/2000/svg">
<g clip-path="url(#clip0_5599_11990)">
<path d="M18.0752 44.3655H49.444V49.4415C49.444 51.5753 47.681 53.3047 45.5058 53.3047H22.0135C19.8383 53.3047 18.0752 51.5753 18.0752 49.4415V44.3655Z" fill="#D7F9FF"/>
<path d="M56.542 32.2818L43.7197 18.3114C42.2772 16.7392 41.1324 15.4814 40.1249 14.5605C39.0946 13.6172 38.0871 12.8984 36.8965 12.4941C35.0189 11.8428 32.9582 11.8428 31.0806 12.4941C29.89 12.8984 28.8825 13.6396 27.8522 14.5605C26.8447 15.4814 25.6998 16.7392 24.2573 18.3114L11.4579 32.2818C10.7939 33.0005 10.8626 34.1011 11.5953 34.73C12.328 35.3813 13.45 35.3139 14.0911 34.5952L15.7168 32.8208V43.1526C15.7168 45.0618 15.7168 46.6115 15.8083 47.8469C15.9228 49.1046 16.1289 50.2277 16.6784 51.2608C17.5256 52.9005 18.8765 54.2256 20.548 55.0567C21.6013 55.5732 22.7232 55.7979 24.0284 55.9102C25.2877 56.0225 26.8676 56 28.8138 56H39.1861C41.1324 56 42.7123 56 43.9716 55.9102C45.2538 55.7979 46.3987 55.5957 47.452 55.0567C49.1234 54.2256 50.4744 52.9005 51.3215 51.2608C51.8482 50.2277 52.0771 49.1271 52.1916 47.8469C52.3061 46.6115 52.2832 45.0618 52.2832 43.1526V32.8208L53.9089 34.5952C54.5729 35.3139 55.672 35.3589 56.4047 34.73C57.1374 34.0786 57.1832 33.0005 56.542 32.2818ZM19.2658 28.9576L26.9134 20.6248C28.4017 19.0077 29.432 17.8846 30.3021 17.0761C31.1722 16.2899 31.7446 15.9306 32.2713 15.7509C33.3932 15.3691 34.6297 15.3691 35.7516 15.7509C36.2782 15.9306 36.8507 16.2899 37.7207 17.0761C38.5908 17.8846 39.6212 19.0077 41.1095 20.6248L48.7571 28.9576V43.2425H19.2658C19.2658 43.2425 19.2658 43.1976 19.2658 43.1526V28.9576ZM48.1618 49.6886C47.658 50.6769 46.8337 51.463 45.8492 51.9571C45.3912 52.1817 44.773 52.3389 43.6968 52.4288C42.5978 52.5186 41.2011 52.5186 39.1861 52.5186H28.8138C26.7989 52.5186 25.4022 52.5186 24.3031 52.4288C23.227 52.3389 22.6087 52.1817 22.1508 51.9571C21.1433 51.463 20.3419 50.6544 19.8382 49.6886C19.6092 49.2394 19.449 48.633 19.3574 47.5773C19.3116 46.9934 19.2887 46.2971 19.2658 45.4885H48.7342C48.7342 46.2971 48.7113 46.9934 48.6426 47.5773C48.551 48.633 48.3907 49.2394 48.1618 49.6886Z" fill="#35BBE3"/>
</g>
<circle cx="34.5" cy="34.5" r="34" stroke="#35BBE3" stroke-dasharray="10 18 30 6"/>
<defs>
<clipPath id="clip0_5599_11990">
<rect width="46" height="44" fill="white" transform="translate(11 12)"/>
</clipPath>
</defs>
</svg>
