<svg width="88" height="88" viewBox="0 0 88 88" fill="none" xmlns="http://www.w3.org/2000/svg">
<path d="M44.0602 88C68.3274 88 87.9998 68.3005 87.9998 44C87.9998 19.6995 68.3274 0 44.0602 0C19.793 0 0.120605 19.6995 0.120605 44C0.120605 68.3005 19.793 88 44.0602 88Z" fill="#FFDC00"/>
<path d="M69.5565 20.4572H18.5638C17.1714 20.4572 16.0073 21.6229 16.0073 23.0172V61.8057C16.0073 63.2229 17.1486 64.3657 18.5638 64.3657H36.7559L34.1765 69.7372H28.744C28.2875 69.7372 27.8995 70.1257 27.8995 70.6057C27.8995 71.0857 28.2875 71.4286 28.744 71.4286H59.3306C59.8099 71.4286 60.198 71.0629 60.198 70.6057C60.198 70.1486 59.8099 69.7372 59.3306 69.7372H53.9209L51.3416 64.3657H69.5336C70.926 64.3657 72.0903 63.2229 72.0903 61.8057V23.0172C72.0903 21.6229 70.9488 20.4572 69.5336 20.4572H69.5565ZM17.7193 23.0172C17.7193 22.56 18.1073 22.1943 18.5638 22.1943H69.5565C70.013 22.1943 70.401 22.5829 70.401 23.0172V55.8629H61.6132L67.7761 54.7657C68.2327 54.6972 68.5522 54.24 68.4609 53.7829L66.1326 40.5943L65.2197 35.4057C65.174 35.2 65.0598 34.9943 64.8544 34.8572C64.6718 34.72 64.4436 34.6972 64.2153 34.72L58.6687 35.7029L57.8697 31.1543C57.8012 30.6972 57.3447 30.3772 56.8882 30.4686L50.2915 31.6343V28.7772C50.2915 28.2972 49.9035 27.9086 49.4241 27.9086H41.2526C40.7961 27.9086 40.4081 28.2972 40.4081 28.7772V30.9714H37.0069V28.7772C37.0069 28.2972 36.6189 27.9086 36.1624 27.9086H29.9995C29.543 27.9086 29.1321 28.2972 29.1321 28.7772V33.0286H21.554C21.0746 33.0286 20.6866 33.4172 20.6866 33.8972V55.84H17.6736V23.0172H17.7193ZM37.0298 55.8629V41.8514H40.4308V55.8629H37.0298ZM30.8669 55.8629V29.6457H35.3407V55.84H30.8669V55.8629ZM22.4214 55.8629V34.72H29.155V55.84H22.4214V55.8629ZM48.5796 35.2457H42.0972V29.6686H48.5796V35.2457ZM37.0069 38.4457H40.4081V40.1372H37.0069V38.4457ZM40.4081 36.7314H37.0069V32.6857H40.4081V36.7314ZM42.0972 36.96H48.5796V55.8629H42.0972V36.96ZM50.2915 42.4L52.5514 55.2914C52.5971 55.52 52.7339 55.7257 52.9166 55.84C52.9166 55.8629 52.9622 55.8629 52.9622 55.8629H50.2915V42.4ZM59.8784 42.56L64.5805 41.76L66.612 53.28L61.9099 54.08L61.8414 53.6914L59.8784 42.56ZM59.5816 40.8914L58.9654 37.4172L63.6675 36.5943L64.2837 40.0686L59.5816 40.8914ZM59.9925 53.12L54.0578 54.1486L50.4058 33.3714L56.3404 32.3429L57.1393 36.8457V36.8914L59.9925 53.12ZM60.2892 54.7886L60.3578 55.2229C60.4263 55.5429 60.6317 55.7714 60.9056 55.8857H54.1948L60.2892 54.7886ZM52.0492 69.76H36.0483L38.6276 64.3886H49.4698L52.0492 69.76ZM70.3783 61.8286C70.3783 62.3086 69.9902 62.6972 69.5336 62.6972H18.541C18.0844 62.6972 17.6964 62.3086 17.6964 61.8286V57.5543H70.3783V61.8286Z" fill="#4F2200"/>
</svg>
