<svg width="95" height="86" viewBox="0 0 95 86" fill="none" xmlns="http://www.w3.org/2000/svg">
<path d="M41.0126 74.4277L68.1975 61.0519C82.3178 54.1033 84.3419 34.7687 71.9671 25.0397L46.5946 5.08741C33.0028 -5.59944 13.0249 3.46463 12.0852 20.7417L10.2728 54.0682C9.38024 70.3875 26.3653 81.631 41.0126 74.4277Z" fill="url(#paint0_linear_5599_10875)"/>
<path d="M31.5665 77.1151C28.6031 77.1021 25.6733 76.4866 22.9545 75.306C20.2358 74.1254 17.7847 72.4043 15.75 70.2469C13.7152 68.0895 12.1391 65.5409 11.1172 62.7554C10.0953 59.9699 9.64893 57.0057 9.80506 54.0423L11.6175 20.7189C12.0683 12.4266 16.8431 5.42911 24.402 2.00205C31.9609 -1.425 40.3606 -0.409238 46.8838 4.71838L72.2564 24.6661C75.1593 26.9492 77.4365 29.9324 78.8749 33.3366C80.3132 36.7407 80.8658 40.4547 80.4808 44.1309C80.0959 47.8071 78.786 51.3254 76.6737 54.3568C74.5614 57.3881 71.7158 59.8334 68.4031 61.4638L41.2196 74.8395C38.2186 76.3291 34.9158 77.1076 31.5665 77.1151ZM33.4946 0.939011C30.4893 0.948356 27.5208 1.60206 24.7889 2.85615C17.5589 6.13678 12.9837 12.8323 12.5526 20.7692L10.7402 54.0942C10.542 57.7381 11.2993 61.3705 12.937 64.6306C14.5747 67.8906 17.0357 70.6649 20.0755 72.6776C23.1154 74.6904 26.6282 75.8717 30.2651 76.104C33.9019 76.3364 37.5362 75.6118 40.8068 74.0022L67.9903 60.6265C71.1614 59.0658 73.8852 56.725 75.9069 53.8232C77.9285 50.9213 79.182 47.5533 79.5499 44.0343C79.9179 40.5153 79.3883 36.9603 78.0107 33.7021C76.6331 30.4438 74.4525 27.5888 71.6731 25.4042L46.3051 5.45656C42.505 2.46875 38.0394 0.939011 33.4946 0.939011Z" fill="url(#paint1_linear_5599_10875)"/>
<path d="M71.0235 63.2407C68.3791 63.2431 65.7717 62.6177 63.4154 61.4156C61.0591 60.2136 59.021 58.4692 57.4683 56.3256C57.829 55.6905 58.1382 55.0275 58.3928 54.3428L58.4218 54.2696C58.4598 54.1644 58.4964 54.0576 58.5314 53.9509C58.5466 53.9097 58.5603 53.867 58.5741 53.8258C58.606 53.7282 58.6365 53.6291 58.6654 53.5314C58.6822 53.4796 58.6974 53.4277 58.7127 53.3789C58.7385 53.2874 58.7644 53.1944 58.7888 53.1014C58.8056 53.0419 58.8208 52.9824 58.836 52.9229L58.9 52.656C58.9152 52.5919 58.9289 52.5264 58.9442 52.4593C58.9594 52.3922 58.9792 52.2884 58.9959 52.203C59.0127 52.1176 59.0234 52.0612 59.0355 51.9895C59.0477 51.9178 59.0645 51.8248 59.0782 51.7424C59.0919 51.6601 59.1026 51.5899 59.1132 51.5121C59.1239 51.4343 59.1361 51.3596 59.1467 51.2742C59.1574 51.1888 59.1665 51.108 59.1757 51.0256C59.1848 50.9432 59.1924 50.8731 59.2 50.7983C59.2076 50.7236 59.2153 50.6169 59.2214 50.5253C59.2274 50.4338 59.2335 50.3866 59.2381 50.3179C59.2381 50.2127 59.2488 50.1059 59.2533 49.9992C59.2533 49.9427 59.2533 49.8863 59.261 49.8299C59.261 49.6651 59.261 49.5004 59.261 49.3342C59.261 46.4455 58.5502 44.0835 57.1287 42.2483C57.0099 42.0957 56.888 41.9432 56.7647 41.7907C56.7357 41.7541 56.7053 41.719 56.6763 41.6839C56.4266 41.3896 56.1707 41.1074 55.9057 40.8375L55.8189 40.749C55.6848 40.6148 55.5493 40.4821 55.4107 40.354C54.4185 39.4261 53.2963 38.6482 52.0797 38.0449C50.183 37.1064 47.7335 36.1252 44.731 35.1013L44.4873 35.0174C43.5258 34.7063 42.6439 34.4013 41.8418 34.1023C40.6505 34.3473 39.4123 34.2074 38.3055 33.7029C37.1986 33.1985 36.2801 32.3553 35.6821 31.2949C35.0842 30.2345 34.8376 29.0114 34.9778 27.8017C35.1181 26.592 35.638 25.4581 36.4627 24.5631C37.2875 23.6681 38.3745 23.0582 39.5673 22.8211C40.7602 22.584 41.9974 22.732 43.1009 23.2438C44.2044 23.7556 45.1174 24.6048 45.7084 25.6691C46.2993 26.7335 46.5379 27.9582 46.3896 29.1669H58.6563C58.4268 24.6249 56.686 21.0815 53.4337 18.5365C50.1815 15.9915 45.8987 14.7205 40.5853 14.7235C39.1504 14.7187 37.7173 14.8268 36.2994 15.0469C35.2311 15.2136 34.1771 15.4619 33.1467 15.7896C32.7659 15.9132 32.3851 16.0428 32.0272 16.1862C31.4667 16.032 30.9424 15.7678 30.4849 15.4087C30.0273 15.0497 29.6457 14.6031 29.3622 14.095C29.0787 13.5868 28.899 13.0272 28.8336 12.4489C28.7682 11.8705 28.8183 11.2849 28.9811 10.7261L22.7686 15.9483C23.724 16.1158 24.597 16.596 25.2507 17.3135C25.9045 18.0311 26.3021 18.9456 26.3812 19.9137C26.1878 20.1196 26.0005 20.3301 25.8238 20.5451C24.9045 21.6639 24.1973 22.9417 23.7372 24.3153C23.2308 25.862 22.9813 27.4814 22.9985 29.1089C22.9985 32.1369 23.7093 34.5914 25.1308 36.4724C26.4616 38.2817 28.2053 39.7459 30.2163 40.7429C31.9379 41.5634 33.7085 42.2765 35.518 42.8782C36.2532 43.1303 37.0279 43.3845 37.8422 43.6407L38.4789 43.8344C39.8385 43.3467 41.3219 43.3277 42.6936 43.7804C44.0653 44.233 45.2468 45.1315 46.0505 46.3331C46.8542 47.5347 47.2341 48.9708 47.13 50.4133C47.0259 51.8558 46.4437 53.2221 45.4758 54.2956C45.4042 54.3749 45.3235 54.4481 45.2534 54.5274L45.2214 54.5579C45.1559 54.6219 45.0889 54.686 45.0204 54.747L44.9671 54.7928C44.9046 54.8477 44.8407 54.9026 44.7752 54.956L44.7082 55.0093C44.6457 55.0566 44.5848 55.1054 44.5208 55.1512L44.4416 55.2076C44.3807 55.2518 44.3198 55.293 44.2573 55.3342L44.1675 55.3922L43.9847 55.505L43.8857 55.5614C43.8263 55.5965 43.7654 55.6286 43.7029 55.6621L43.5963 55.717L43.4136 55.804L43.2993 55.8558C43.2384 55.8833 43.1775 55.9077 43.115 55.9336L42.9947 55.9809L42.8104 56.048C42.7678 56.0617 42.7267 56.077 42.684 56.0892C42.6414 56.1014 42.5591 56.1288 42.4967 56.1456L42.3672 56.1837L42.1768 56.2295L42.0428 56.26L41.8479 56.2981C41.8037 56.3057 41.7595 56.3149 41.7138 56.321C41.6681 56.3271 41.5768 56.3408 41.5082 56.3484L41.3803 56.3652C41.3041 56.3723 41.228 56.3784 41.1518 56.3835L41.0406 56.3927C40.9279 56.3988 40.8137 56.4018 40.698 56.4018C40.5853 56.4018 40.4725 56.4018 40.3614 56.3927L40.2669 56.385C40.1877 56.385 40.1146 56.3759 40.0293 56.3667L39.9303 56.3545L39.7019 56.3256L39.6075 56.3088C39.5313 56.2951 39.4551 56.2829 39.379 56.2661L39.2967 56.2478C39.2175 56.231 39.1444 56.2127 39.0607 56.1929L38.9921 56.173L38.7484 56.1029L38.6936 56.0831C38.6099 56.0556 38.5261 56.0282 38.4423 55.9977L38.4012 55.9809C38.3144 55.9473 38.2291 55.9138 38.1438 55.8772L38.1133 55.8634C38.0265 55.8253 37.9382 55.7856 37.8529 55.7429L37.8316 55.7338C37.7432 55.6896 37.6549 55.6438 37.5681 55.595H37.5589C37.4686 55.5462 37.3802 55.4954 37.2939 55.4425C36.8455 55.1651 36.4327 54.8337 36.0648 54.4557C34.8718 53.2442 34.2036 51.6107 34.2052 49.9092C34.2052 49.7379 34.1373 49.5737 34.0166 49.4524C33.8958 49.3312 33.7319 49.2629 33.5609 49.2625H32.3775L23.2179 49.6133C23.3092 52.778 23.8271 55.1344 25.5024 57.381C26.4543 58.6614 27.6063 59.7795 28.9141 60.6921L28.9445 60.7135C29.0968 60.8141 29.24 60.9133 29.3893 61.0109L29.505 61.0841C29.6284 61.1619 29.7533 61.2366 29.8797 61.3159L30.032 61.4059C30.1478 61.4745 30.265 61.5401 30.3838 61.6057L30.5605 61.7018C30.6763 61.7643 30.7935 61.8238 30.9123 61.8848L31.0951 61.9763C31.22 62.0373 31.3479 62.0968 31.4759 62.1563L31.6419 62.2325C31.8246 62.3149 32.0105 62.3957 32.1993 62.4735C34.9926 63.6204 38.1529 64.1939 41.6803 64.1939C45.2991 64.1939 48.4371 63.5284 51.0943 62.1975C51.2466 62.1197 51.3989 62.0449 51.5513 61.958L51.7036 61.8726C51.8026 61.8192 51.9016 61.7643 51.999 61.7079L52.1803 61.6026L52.4346 61.4501L52.6235 61.3312C52.7027 61.2824 52.7758 61.232 52.858 61.1786C52.9403 61.1253 52.986 61.0963 53.0484 61.0536L53.2693 60.9011L53.4566 60.7684L53.6683 60.6159L53.8495 60.4786C53.9226 60.4222 53.9942 60.3642 54.0658 60.3063C54.1374 60.2483 54.1755 60.2208 54.2288 60.1766C54.5593 59.9036 54.8746 59.6184 55.1746 59.324C54.87 59.6184 54.5654 59.9036 54.2288 60.1766C56.0958 62.5775 57.2756 65.4417 57.6418 68.4626C58.0081 71.4834 57.5469 74.5471 56.3078 77.3256C63.457 75.6799 69.4532 70.3098 71.75 63.2254C71.5094 63.2346 71.2672 63.2407 71.0235 63.2407ZM55.4792 59.0236C55.7366 58.7536 55.9803 58.476 56.2133 58.1878C55.9849 58.4684 55.7366 58.746 55.4792 59.0236Z" fill="#1D1D1B"/>
<path d="M58.8391 52.9141L58.9031 52.647L58.8391 52.9156V52.9141Z" fill="#1A1A1A"/>
<path d="M51.3455 37.6836L51.6396 37.8225L51.3455 37.6836Z" fill="#1A1A1A"/>
<path d="M49.707 36.9604L49.8412 37.0169L49.707 36.9604Z" fill="#1A1A1A"/>
<path d="M50.1348 37.1421L50.2872 37.2108L50.1348 37.1421Z" fill="#1A1A1A"/>
<path d="M50.5515 37.3232L50.7405 37.4072L50.5515 37.3232Z" fill="#1A1A1A"/>
<path d="M50.9587 37.5034L51.1874 37.6072L50.9587 37.5034Z" fill="#1A1A1A"/>
<path d="M59.2588 49.9902C59.2588 49.9337 59.2588 49.8773 59.2664 49.8208L59.2573 49.9963L59.2588 49.9902Z" fill="#1A1A1A"/>
<path d="M59.0403 51.9807C59.0555 51.8982 59.0693 51.8158 59.083 51.7334C59.0708 51.8173 59.0555 51.8998 59.0403 51.9837V51.9807Z" fill="#1A1A1A"/>
<path d="M58.9483 52.4503C58.9666 52.3648 58.9833 52.2793 59.0001 52.1938C58.9833 52.2809 58.9651 52.3663 58.9468 52.4533L58.9483 52.4503Z" fill="#1A1A1A"/>
<path d="M59.1196 51.5033C59.1318 51.4239 59.1425 51.3506 59.1532 51.2651C59.1425 51.346 59.1303 51.4254 59.1196 51.5063V51.5033Z" fill="#1A1A1A"/>
<path d="M59.2241 50.5162C59.2241 50.4475 59.2363 50.3773 59.2409 50.3086C59.2409 50.3788 59.2302 50.449 59.2241 50.5192V50.5162Z" fill="#1A1A1A"/>
<path d="M59.1844 51.0165C59.1844 50.9402 59.2012 50.8639 59.2088 50.7891C59.2012 50.8654 59.192 50.9417 59.1829 51.018L59.1844 51.0165Z" fill="#1A1A1A"/>
<path d="M55.9187 40.8345L55.9288 40.8445L55.9187 40.8345Z" fill="#1A1A1A"/>
<path d="M35.3213 26.4399C35.3031 26.4873 35.2863 26.5346 35.2695 26.5819C35.2863 26.5376 35.3031 26.4873 35.3213 26.4399Z" fill="#1A1A1A"/>
<path d="M35.1647 26.9175C35.1129 27.1067 35.0687 27.2991 35.0352 27.496C35.0687 27.3006 35.1205 27.1067 35.1647 26.9175Z" fill="#1A1A1A"/>
<path d="M46.3667 35.667L46.3921 35.6759L46.3667 35.667Z" fill="#1A1A1A"/>
<path d="M31.354 15.9346C31.571 16.0348 31.7958 16.117 32.0262 16.1803C31.7958 16.117 31.571 16.0348 31.354 15.9346Z" fill="#1A1A1A"/>
<path d="M49.2649 36.7788L49.3777 36.8246L49.2649 36.7788Z" fill="#1A1A1A"/>
<path d="M32.0259 16.1805C32.3902 16.0371 32.7651 15.9073 33.1462 15.7837C32.7651 15.9073 32.3902 16.0371 32.0259 16.1805Z" fill="#1A1A1A"/>
<path d="M48.3521 36.4116L48.4267 36.4422L48.3521 36.4116Z" fill="#1A1A1A"/>
<path d="M48.8179 36.6035L48.9109 36.6402L48.8179 36.6035Z" fill="#1A1A1A"/>
<path d="M47.3838 36.0425L47.4274 36.0581L47.3838 36.0425Z" fill="#1A1A1A"/>
<path d="M46.8816 35.855L46.9163 35.8686L46.8816 35.855Z" fill="#1A1A1A"/>
<path d="M47.8721 36.2271L47.9361 36.2515L47.8721 36.2271Z" fill="#1A1A1A"/>
<path d="M57.7796 55.7456C57.7583 55.7883 57.7384 55.8311 57.7156 55.8738C57.7384 55.8311 57.7583 55.7883 57.7796 55.7456Z" fill="#1A1A1A"/>
<path d="M59.2753 49.3247C59.2753 46.4361 58.5646 44.0741 57.1431 42.2388C57.0243 42.0863 56.9024 41.9338 56.7791 41.7812C56.9024 41.9338 57.0243 42.0863 57.1431 42.2388C58.5636 44.0741 59.2743 46.4361 59.2753 49.3247Z" fill="#1A1A1A"/>
<path d="M58.2146 54.8096C58.2008 54.8416 58.1856 54.8752 58.1719 54.9088C58.1856 54.8752 58.2008 54.8416 58.2146 54.8096Z" fill="#1A1A1A"/>
<path d="M58.0095 55.2744C57.9897 55.3187 57.9698 55.3614 57.9485 55.4057C57.9653 55.3629 57.9897 55.3187 58.0095 55.2744Z" fill="#1A1A1A"/>
<path d="M58.3975 54.3379C58.3968 54.3412 58.3968 54.3446 58.3975 54.3479V54.3379Z" fill="#1A1A1A"/>
<path d="M55.4236 40.3509C55.5622 40.479 55.6977 40.6117 55.8317 40.7474C55.6977 40.6132 55.5622 40.4805 55.4236 40.3524C54.4313 39.4245 53.3092 38.6466 52.0926 38.0433L51.7195 37.8618L52.0896 38.0418C53.3072 38.6449 54.4304 39.4228 55.4236 40.3509Z" fill="#1A1A1A"/>
<path d="M11.6365 58.0122L10.5703 59.15C10.7338 60.0575 10.9572 60.9533 11.2389 61.8312L36.8491 75.9802C38.281 75.605 39.6711 75.0847 40.9979 74.4276L43.4835 73.2075L11.6365 58.0122Z" fill="url(#paint2_linear_5599_10875)"/>
<path d="M64.8752 19.4624L67.1917 21.3063L73.4363 50.7238C74.0048 53.3969 73.6246 56.1848 72.361 58.6074L71.5172 60.2347L62.5708 18.2529L64.6086 18.7913L64.8752 19.4624Z" fill="url(#paint3_linear_5599_10875)"/>
<path d="M14.186 61.4636L17.0799 60.8398C17.0799 60.8398 39.6211 71.516 40.6872 74.0264L37.3669 74.8851L11.7903 61.6375L13.4915 61.241L14.186 61.4636Z" fill="url(#paint4_linear_5599_10875)"/>
<path d="M29.7902 11.9476C29.7905 12.6274 29.997 13.2912 30.3824 13.8509C30.7678 14.4106 31.3139 14.8398 31.9483 15.0818C32.2088 14.9857 32.4829 14.8927 32.7799 14.7966C33.8613 14.4532 34.9672 14.1927 36.088 14.0172C37.5593 13.7885 39.0463 13.6758 40.5353 13.6802C46.0609 13.6802 50.5981 15.0391 54.022 17.7188C57.5052 20.4458 59.3953 24.277 59.6405 29.1134V29.2308C59.6467 29.3562 59.6274 29.4816 59.5837 29.5994C59.54 29.7171 59.4729 29.8247 59.3865 29.9157C59.3 30.0067 59.196 30.0792 59.0808 30.1287C58.9655 30.1782 58.8414 30.2038 58.716 30.2038H46.3336C46.187 30.2038 46.0422 30.1727 45.9085 30.1125C45.7749 30.0522 45.6556 29.9643 45.5584 29.8544C45.4612 29.7446 45.3884 29.6153 45.3448 29.4752C45.3012 29.3351 45.2878 29.1873 45.3055 29.0417C45.4211 28.0925 45.2456 27.1306 44.8022 26.2838C44.3589 25.4369 43.6687 24.7452 42.8234 24.3005C41.9781 23.8558 41.0177 23.6792 40.0697 23.7942C39.1218 23.9092 38.2313 24.3102 37.5164 24.9441C36.8015 25.578 36.2962 26.4147 36.0676 27.3431C35.8389 28.2715 35.8978 29.2475 36.2363 30.1416C36.5748 31.0356 37.177 31.8054 37.9629 32.3486C38.7487 32.8917 39.681 33.1826 40.6358 33.1825C40.9571 33.1826 41.2775 33.1504 41.5923 33.0864L41.8817 33.0254L42.1604 33.1291C42.9494 33.422 43.8251 33.7239 44.7648 34.0274H44.7724L44.9248 34.0808L45.0177 34.1113C48.0546 35.15 50.5677 36.1566 52.4898 37.1083C53.7961 37.7563 55.0012 38.5911 56.0674 39.5867C56.203 39.7117 56.3461 39.8505 56.503 40.0092L56.5974 40.1037C56.8777 40.3904 57.1534 40.694 57.4168 41.0051L57.5128 41.118C57.6651 41.2979 57.7839 41.4504 57.8996 41.5999C59.4653 43.6192 60.2512 46.212 60.2512 49.3249C60.2512 49.4957 60.2512 49.668 60.2421 49.8526V49.9746V50.0341V50.0509C60.2421 50.1576 60.233 50.2659 60.2269 50.3727C60.2269 50.4276 60.2193 50.481 60.2147 50.5359V50.5953V50.6289C60.2147 50.7143 60.2025 50.8012 60.1934 50.8867C60.1842 50.9721 60.1812 51.0163 60.1736 51.0803V51.1292V51.1475C60.1644 51.2298 60.1553 51.3137 60.1446 51.3961C60.134 51.4784 60.1218 51.5593 60.1111 51.6416V51.6508C60.0989 51.7331 60.0867 51.8155 60.073 51.8978C60.0593 51.9802 60.0441 52.0748 60.0274 52.1647C60.0106 52.2547 59.9999 52.3173 59.9847 52.392C59.9695 52.4667 59.9482 52.5765 59.9284 52.6696C59.9086 52.7626 59.8979 52.8099 59.8811 52.88C59.8598 52.9761 59.837 53.0707 59.8126 53.1668L59.7623 53.3589C59.7365 53.4581 59.709 53.5587 59.6801 53.664C59.6679 53.7082 59.6542 53.7524 59.6405 53.7967L59.6298 53.8317C59.5979 53.937 59.5659 54.0438 59.5324 54.149L59.5004 54.2435L59.4867 54.2832C59.4471 54.3991 59.409 54.5135 59.3663 54.6264C59.3663 54.6462 59.3526 54.6645 59.345 54.6828L59.3374 54.7057C59.1429 55.2263 58.9192 55.7355 58.6673 56.2308C60.1413 58.0901 62.0147 59.5928 64.1484 60.6273C66.2821 61.6619 68.6212 62.2016 70.9918 62.2064C71.2035 62.2064 71.4259 62.2064 71.6741 62.1912L72.026 62.1759C72.8348 59.1093 72.9415 55.8993 72.3382 52.7855L68.0005 29.9583L66.1988 20.4229C63.2623 4.89521 45.039 -1.90704 32.6992 7.57798C32.4448 7.77473 32.192 7.973 31.9377 8.18805L30.3461 9.52562L29.9135 11.0142C29.829 11.318 29.7874 11.6322 29.7902 11.9476Z" fill="url(#paint5_linear_5599_10875)"/>
<path d="M40.6916 34.2199C41.083 34.22 41.4734 34.1801 41.8567 34.1009C42.6609 34.3998 43.5427 34.7049 44.5023 35.016L44.7597 35.1045H44.746L44.5023 35.0206C43.5407 34.7094 42.6589 34.4044 41.8567 34.1055C41.0218 34.2782 40.1589 34.2626 39.3307 34.0599C38.5025 33.8572 37.7298 33.4723 37.0686 32.9333C36.4074 32.3943 35.8744 31.7147 35.5081 30.9437C35.1419 30.1728 34.9516 29.3298 34.9512 28.4761C34.952 30 35.5572 31.4611 36.6337 32.5383C37.7102 33.6154 39.1698 34.2203 40.6916 34.2199Z" fill="#1A1A1A"/>
<path d="M57.4731 56.3252C59.0258 58.4688 61.0639 60.2132 63.4202 61.4153C65.7765 62.6173 68.3839 63.2428 71.0284 63.2403C71.272 63.2403 71.5142 63.2403 71.7549 63.2235C71.5142 63.2342 71.272 63.2403 71.0284 63.2403C68.3839 63.2428 65.7765 62.6173 63.4202 61.4153C61.0639 60.2132 59.0258 58.4688 57.4731 56.3252Z" fill="#1A1A1A"/>
<path d="M31.3538 15.9345C30.5925 15.5838 29.9476 15.0218 29.4954 14.3152C29.0433 13.6086 28.8029 12.787 28.8027 11.9478C28.8029 12.787 29.0433 13.6086 29.4954 14.3152C29.9476 15.0218 30.5925 15.5838 31.3538 15.9345Z" fill="#1A1A1A"/>
<path d="M40.5848 14.7174C45.8983 14.7174 50.1811 15.9884 53.4333 18.5304C56.6856 21.0723 58.4264 24.6158 58.6559 29.1608C58.4264 24.6188 56.6856 21.0754 53.4333 18.5304C50.1811 15.9854 45.8983 14.7144 40.5848 14.7174C39.15 14.7126 37.7169 14.8207 36.299 15.0408C35.2307 15.2075 34.1767 15.4558 33.1462 15.7835C34.1767 15.4558 35.2307 15.2075 36.299 15.0408C37.7169 14.8207 39.15 14.7126 40.5848 14.7174Z" fill="#1A1A1A"/>
<path d="M58.7171 53.3701C58.7445 53.2785 58.7689 53.1854 58.7933 53.0923C58.7674 53.1854 58.743 53.28 58.7156 53.3732L58.7171 53.3701Z" fill="#1A1A1A"/>
<path d="M58.4207 54.2653C58.4588 54.16 58.4954 54.0531 58.5305 53.9463C58.4939 54.0531 58.4573 54.16 58.4192 54.2668L58.4207 54.2653Z" fill="#1A1A1A"/>
<path d="M58.5728 53.8214C58.6048 53.7237 58.6353 53.6245 58.6643 53.5269C58.6338 53.6245 58.6033 53.7237 58.5713 53.8214H58.5728Z" fill="#1A1A1A"/>
<path d="M58.7169 53.3711L58.6711 53.5237L58.7169 53.3711Z" fill="#29235C"/>
<path d="M48.4265 36.4419L48.8167 36.5945L48.4265 36.4419Z" fill="#29235C"/>
<path d="M46.918 35.8682L47.3874 36.0422L46.918 35.8682Z" fill="#29235C"/>
<path d="M46.3904 35.6763L46.8797 35.8549L46.3904 35.6763Z" fill="#29235C"/>
<path d="M34.9512 28.472C34.9512 28.1446 34.9792 27.8177 35.035 27.4951C34.9792 27.8177 34.9512 28.1446 34.9512 28.472Z" fill="#29235C"/>
<path d="M47.937 36.2515L48.3516 36.4117L47.937 36.2515Z" fill="#29235C"/>
<path d="M59.118 51.5044C59.1074 51.5807 59.0952 51.657 59.083 51.7318C59.0952 51.6555 59.1074 51.5807 59.118 51.5044Z" fill="#29235C"/>
<path d="M47.4299 36.0576L47.875 36.227L47.4299 36.0576Z" fill="#29235C"/>
<path d="M46.3884 29.1669C46.4164 28.9361 46.4306 28.7039 46.431 28.4714C46.4312 27.1258 45.96 25.8228 45.0995 24.7893C44.2389 23.7558 43.0436 23.0574 41.7217 22.8157C40.3998 22.574 39.0351 22.8043 37.8654 23.4666C36.6957 24.1288 35.795 25.181 35.3203 26.4399C35.795 25.181 36.6957 24.1288 37.8654 23.4666C39.0351 22.8043 40.3998 22.574 41.7217 22.8157C43.0436 23.0574 44.2389 23.7558 45.0995 24.7893C45.96 25.8228 46.4312 27.1258 46.431 28.4714C46.4306 28.7039 46.4164 28.9361 46.3884 29.1669Z" fill="#29235C"/>
<path d="M35.2717 26.5815C35.2336 26.6914 35.1985 26.8044 35.1665 26.9174C35.1955 26.8044 35.2305 26.6899 35.2717 26.5815Z" fill="#29235C"/>
<path d="M58.4229 54.2651C58.4137 54.288 58.4046 54.3109 58.397 54.3338C58.4092 54.3109 58.4229 54.2957 58.4229 54.2651Z" fill="#29235C"/>
<path d="M58.8421 52.9229L58.7964 53.0984L58.8421 52.9229Z" fill="#29235C"/>
<path d="M53.8514 60.4707L53.6685 60.6081L53.8514 60.4707Z" fill="#1A1A1A"/>
<path d="M36.5896 54.9364C36.5226 54.8815 36.4586 54.8265 36.3945 54.77C36.4586 54.8265 36.5226 54.8815 36.5896 54.9364Z" fill="#1A1A1A"/>
<path d="M25.5037 57.3765C25.6561 57.5917 25.8298 57.7993 25.999 58.0038C25.8283 57.8038 25.6637 57.5917 25.5037 57.3765Z" fill="#1A1A1A"/>
<path d="M53.4647 60.7637L53.3625 60.8354L53.4647 60.7637Z" fill="#1A1A1A"/>
<path d="M29.39 61.0067L29.3684 60.9912L29.39 61.0067Z" fill="#1A1A1A"/>
<path d="M54.2355 60.1689L54.0693 60.3017C54.1273 60.2559 54.1821 60.2132 54.2355 60.1689Z" fill="#1A1A1A"/>
<path d="M31.4782 62.1499L31.3745 62.1011L31.4782 62.1499Z" fill="#1A1A1A"/>
<path d="M30.1187 61.4468C30.0915 61.4302 30.0628 61.4165 30.0371 61.3999C30.0628 61.4165 30.0945 61.4317 30.1187 61.4468Z" fill="#1A1A1A"/>
<path d="M51.7212 61.8662L51.5688 61.9517L51.7212 61.8662Z" fill="#1A1A1A"/>
<path d="M53.057 61.0488L52.865 61.1771C52.9381 61.1328 52.9945 61.0916 53.057 61.0488Z" fill="#1A1A1A"/>
<path d="M52.1891 61.5967L52.0474 61.6791L52.1891 61.5967Z" fill="#1A1A1A"/>
<path d="M27.9625 59.9634C27.7537 59.7909 27.554 59.6138 27.3528 59.4307C27.6957 59.7466 28.0524 60.0488 28.4274 60.3343C28.2749 60.2122 28.1149 60.0916 27.9625 59.9634Z" fill="#1A1A1A"/>
<path d="M33.2683 42.0454L33.3499 42.0772L33.2683 42.0454Z" fill="#1A1A1A"/>
<path d="M36.8921 55.1678C36.8219 55.1169 36.7533 55.066 36.6863 55.0151C36.7574 55.067 36.826 55.1179 36.8921 55.1678Z" fill="#1A1A1A"/>
<path d="M30.7107 40.9644L30.8341 41.0224L30.7107 40.9644Z" fill="#1A1A1A"/>
<path d="M34.7275 42.5854L34.7809 42.6038L34.7275 42.5854Z" fill="#1A1A1A"/>
<path d="M31.9277 41.5039L32.039 41.5512L31.9277 41.5039Z" fill="#1A1A1A"/>
<path d="M44.7682 54.9561L44.7012 55.008L44.7682 54.9561Z" fill="#1A1A1A"/>
<path d="M45.2448 54.5273L45.2146 54.5561L45.2448 54.5273Z" fill="#1A1A1A"/>
<path d="M38.8459 43.6863C38.942 43.6573 39.038 43.6314 39.1355 43.6069C39.038 43.6314 38.942 43.6573 38.8459 43.6863Z" fill="#1A1A1A"/>
<path d="M37.2156 43.4194L37.2352 43.427L37.2156 43.4194Z" fill="#1A1A1A"/>
<path d="M40.6908 43.418C40.373 43.4181 40.0556 43.4416 39.7412 43.4882C40.0556 43.4416 40.373 43.4181 40.6908 43.418Z" fill="#1A1A1A"/>
<path d="M43.6956 55.6685L43.5889 55.7219L43.6956 55.6685Z" fill="#1A1A1A"/>
<path d="M42.804 56.0481C42.7613 56.0618 42.7202 56.0771 42.6775 56.0893C42.6348 56.1015 42.5525 56.129 42.49 56.1458L42.3604 56.1839L42.2766 56.2038C42.5599 56.1329 42.8379 56.0426 43.1089 55.9336L42.9884 55.9809L42.804 56.0481Z" fill="#1A1A1A"/>
<path d="M43.8781 55.5613L43.8186 55.5933C43.878 55.5613 43.936 55.5292 43.9924 55.4941L43.9771 55.5048L43.8781 55.5613Z" fill="#1A1A1A"/>
<path d="M43.1309 55.9228C43.2223 55.8846 43.3138 55.8465 43.4037 55.8037L43.2894 55.8556L43.1309 55.9228Z" fill="#1A1A1A"/>
<path d="M41.0334 56.3924C40.9207 56.3985 40.8065 56.4016 40.6907 56.4016C40.578 56.4016 40.4653 56.4016 40.3541 56.3924L40.2597 56.3848C40.1805 56.3848 40.1074 56.3757 40.0221 56.3665L39.9231 56.3543L39.6946 56.3253L39.6002 56.3086C39.5241 56.2948 39.4479 56.2826 39.3718 56.2659L39.2895 56.2476C39.2103 56.2308 39.1372 56.2125 39.0534 56.1926L38.9849 56.1728L38.7732 56.1118C39.3943 56.3041 40.0407 56.4018 40.6907 56.4016C40.9105 56.4015 41.1301 56.3898 41.3487 56.3665C41.2817 56.3741 41.2131 56.3787 41.1446 56.3833L41.0334 56.3924Z" fill="#1A1A1A"/>
<path d="M41.8429 56.2982C41.7987 56.3058 41.7545 56.315 41.7088 56.3211C41.6631 56.3272 41.5716 56.3409 41.503 56.3485L41.375 56.3653C41.6429 56.3374 41.9087 56.2921 42.1706 56.2295L42.038 56.26L41.8429 56.2982Z" fill="#1A1A1A"/>
<path d="M23.7332 24.303C23.2268 25.8497 22.9772 27.469 22.9945 29.0966C22.9772 27.469 23.2268 25.8497 23.7332 24.303C24.1956 22.9288 24.9054 21.651 25.8274 20.5328C26.004 20.3177 26.1914 20.1073 26.3848 19.9014C26.1914 20.1073 26.004 20.3177 25.8274 20.5328C24.9054 21.651 24.1956 22.9288 23.7332 24.303Z" fill="#1A1A1A"/>
<path d="M44.2572 55.3345L44.1672 55.3925C44.2877 55.3162 44.4065 55.2399 44.5209 55.1514L44.4416 55.2078C44.373 55.2506 44.312 55.2933 44.2572 55.3345Z" fill="#1A1A1A"/>
<path d="M27.2283 59.3094C26.8401 58.9432 26.4717 58.5565 26.1248 58.1509C26.4717 58.5565 26.8401 58.9432 27.2283 59.3094Z" fill="#1A1A1A"/>
<path d="M44.9609 54.7928L45.0249 54.7363L45.0204 54.7531L44.9609 54.7928Z" fill="#1A1A1A"/>
<path d="M56.0124 70.4624C56.0239 67.3123 55.0801 64.2329 53.3059 61.6317L53.1673 61.7293L53.1521 61.7399L52.9175 61.9016L52.715 62.0358C52.6327 62.0907 52.5489 62.1441 52.4667 62.1883L52.2657 62.3134C52.1758 62.3683 52.0859 62.4232 51.9945 62.4766L51.955 62.4995L51.8026 62.5879C51.6991 62.6474 51.594 62.7054 51.4889 62.7633L51.4341 62.7938L51.3275 62.8518C51.1553 62.9448 50.9954 63.0272 50.8386 63.105C48.0498 64.502 44.7281 65.2112 40.9631 65.2112C37.3154 65.2112 33.9921 64.6012 31.0891 63.4131C30.9003 63.3353 30.7083 63.2529 30.4997 63.1599L30.3824 63.105L30.323 63.0775L29.9225 62.8884L29.7778 62.8152L29.729 62.7908C29.6026 62.7267 29.4777 62.6627 29.3544 62.5971C29.2919 62.5635 29.2295 62.53 29.1685 62.4949C29.0421 62.4263 28.9172 62.3546 28.7923 62.2829H28.7802L28.6279 62.1944C28.4999 62.1182 28.3689 62.0419 28.2273 61.9474L28.1877 61.923L28.1054 61.8696C27.9455 61.7659 27.7856 61.6591 27.6303 61.5523L27.5983 61.5295C26.201 60.5526 24.9695 59.3574 23.9506 57.9896C22.1564 55.5798 21.1969 52.6515 21.0994 49.2808C21.0955 49.1422 21.1195 49.0041 21.1697 48.8748C21.22 48.7455 21.2957 48.6277 21.3922 48.5282C21.4888 48.4286 21.6042 48.3495 21.7318 48.2954C21.8594 48.2413 21.9965 48.2134 22.1351 48.2132H33.5199C33.6647 48.2131 33.8079 48.2435 33.9403 48.3022C34.0726 48.361 34.1912 48.4469 34.2884 48.5544C34.3856 48.6619 34.4591 48.7886 34.5044 48.9263C34.5496 49.0641 34.5655 49.2098 34.551 49.354C34.5327 49.5371 34.5236 49.7216 34.5236 49.9031C34.5203 51.329 35.0779 52.6988 36.0756 53.716C36.3863 54.0347 36.7346 54.3143 37.1128 54.5488C37.1798 54.5915 37.2529 54.6342 37.3291 54.6769H37.3412C37.4083 54.7135 37.4798 54.7516 37.5545 54.7882L37.5819 54.802C37.6459 54.8325 37.7144 54.8645 37.7921 54.898L37.8271 54.9148C37.8865 54.9392 37.952 54.9667 38.0358 54.9972L38.0754 55.0124C38.1424 55.0384 38.2109 55.0612 38.2794 55.0841L38.3267 55.0994C38.3937 55.1207 38.4622 55.1405 38.5323 55.1588L38.5795 55.1726H38.5886C38.6541 55.1893 38.7196 55.2031 38.7866 55.2183L38.8399 55.2305H38.8552C38.9161 55.2427 38.9785 55.2534 39.0471 55.2641L39.1049 55.2748H39.1263C39.1841 55.2839 39.2435 55.29 39.3014 55.2976H39.3182L39.3791 55.3053H39.4019C39.4629 55.3053 39.5253 55.3159 39.5878 55.319H39.6015H39.6624H39.6883C39.7827 55.319 39.8787 55.3266 39.9716 55.3266C40.0645 55.3266 40.1635 55.3266 40.2609 55.319H40.2944H40.3538H40.3691C40.429 55.319 40.4884 55.3144 40.5473 55.3053H40.5975H40.6539H40.6752L40.8275 55.2854L40.89 55.2732L40.9387 55.2641H40.9524L41.1047 55.2351L41.1748 55.2198L41.2159 55.2092L41.3758 55.171L41.455 55.1482L41.4855 55.139L41.6378 55.0917L41.7246 55.0628H41.7414L41.8937 55.0063L41.9942 54.9667L42.1465 54.9011L42.2424 54.8584L42.3947 54.7852L42.4846 54.7379C42.5364 54.712 42.5866 54.683 42.6369 54.654L42.7192 54.6067L42.8715 54.5122L42.8852 54.503L42.9476 54.4634C42.9994 54.4298 43.0512 54.3932 43.0999 54.3581L43.1273 54.3383L43.1669 54.3093C43.2202 54.2712 43.272 54.2315 43.3192 54.1904L43.3497 54.166L43.3771 54.1446L43.5294 54.0089L43.5614 53.9814L43.5751 53.9707C43.6269 53.9235 43.6832 53.8701 43.7426 53.8182L43.7746 53.7877C43.8386 53.7237 43.901 53.6596 43.9589 53.5971C44.7821 52.6964 45.2798 51.5453 45.3725 50.3279C45.4652 49.1105 45.1476 47.8971 44.4704 46.8819C43.7932 45.8666 42.7956 45.108 41.637 44.7276C40.4785 44.3471 39.226 44.3666 38.0799 44.7831C37.869 44.8607 37.6385 44.8671 37.4235 44.8014C37.2179 44.7374 37.0092 44.6748 36.7929 44.6108H36.7838C35.9705 44.3591 35.1785 44.1014 34.4307 43.8482C32.5801 43.2328 30.7693 42.5034 29.0086 41.6641C26.8529 40.5941 24.9823 39.0257 23.5515 37.0886C21.9995 35.0327 21.2121 32.3454 21.2121 29.0998C21.1967 27.3593 21.4647 25.6279 22.0056 23.9737C22.5162 22.4782 23.2957 21.0888 24.3054 19.8741C24.3907 19.7719 24.4775 19.6682 24.5689 19.569C24.4291 18.9169 24.0977 18.3215 23.6173 17.8594C23.1369 17.3974 22.5295 17.0898 21.8731 16.9762L21.0126 16.8237L16.911 20.2691L8.38189 27.4374C-3.51164 37.4318 -0.893508 56.4385 13.2557 62.8365L23.7952 67.6012L42.2775 75.9423C46.0492 77.6783 50.2531 78.2455 54.3492 77.5712L54.6538 76.9001C55.5582 74.8752 56.0213 72.6806 56.0124 70.4624Z" fill="url(#paint6_linear_5599_10875)"/>
<path d="M56.7328 70.4623C56.7443 67.3122 55.8006 64.2328 54.0264 61.6315L53.8878 61.7291L53.871 61.7398L53.6365 61.9015L53.4339 62.0357C53.3517 62.0906 53.2694 62.144 53.1856 62.1882L52.9861 62.3133L52.715 62.4765L52.6754 62.4994L52.5231 62.5878C52.4211 62.6473 52.316 62.7053 52.2094 62.7632L52.1561 62.7937L52.0479 62.8517C51.8773 62.9447 51.7174 63.0271 51.5605 63.1049C48.7718 64.5019 45.4485 65.2111 41.6835 65.2111C38.0282 65.2111 34.714 64.601 31.8096 63.4129C31.6222 63.3352 31.4288 63.2528 31.2217 63.1598L31.1044 63.1049L31.045 63.0774C30.9095 63.0149 30.7754 62.9523 30.6429 62.8883L30.4997 62.8151L30.4495 62.7907L30.0748 62.597L29.889 62.4948C29.7626 62.4262 29.6377 62.3545 29.5128 62.2828H29.5006L29.3483 62.1943C29.2204 62.1181 29.0909 62.0418 28.9493 61.9473L28.9097 61.9228L28.8259 61.8695C28.666 61.7658 28.5076 61.659 28.3522 61.5522L28.3203 61.5294C26.9201 60.5534 25.6858 59.3582 24.6649 57.9894C22.8708 55.5797 21.9128 52.6513 21.8153 49.2807C21.8112 49.142 21.835 49.0038 21.8852 48.8745C21.9354 48.7451 22.0111 48.6271 22.1077 48.5276C22.2042 48.428 22.3198 48.3489 22.4475 48.2949C22.5752 48.2408 22.7124 48.213 22.851 48.2131H34.2328C34.3774 48.2132 34.5205 48.2437 34.6526 48.3026C34.7848 48.3614 34.9032 48.4474 35.0002 48.5548C35.0972 48.6623 35.1707 48.789 35.2158 48.9266C35.261 49.0642 35.2768 49.2098 35.2623 49.3539C35.2441 49.537 35.2349 49.7215 35.2349 49.903C35.2316 51.3288 35.7892 52.6987 36.7869 53.7159C37.0985 54.0342 37.4473 54.3138 37.8256 54.5487C37.8942 54.5914 37.9673 54.6341 38.0434 54.6768H38.0541C38.1226 54.7134 38.1927 54.7515 38.2673 54.7881L38.2963 54.8018C38.3587 54.8323 38.4288 54.8644 38.5049 54.8979L38.5415 54.9147C38.5994 54.9391 38.6664 54.9666 38.7486 54.9971L38.7882 55.0123C38.8567 55.0382 38.9253 55.0611 38.9938 55.084L39.041 55.0992C39.1081 55.1206 39.1766 55.1404 39.2451 55.1587L39.2939 55.1725C39.3594 55.1892 39.4264 55.203 39.4919 55.2182L39.5467 55.2304H39.5604L39.7538 55.264L39.8117 55.2746H39.833C39.8909 55.2838 39.9488 55.2899 40.0082 55.2975H40.0234L40.0843 55.3051H40.1072L40.293 55.3189H40.3067H40.3676H40.3874C40.4818 55.3189 40.5763 55.3265 40.6707 55.3265C40.7651 55.3265 40.8611 55.3265 40.9601 55.3189H40.9921H41.053H41.0667C41.1261 55.3189 41.187 55.3189 41.2449 55.3051H41.2967H41.353H41.3744L41.5267 55.2853L41.5876 55.2731L41.6378 55.264H41.6683L41.8206 55.235L41.8891 55.2197L41.9318 55.2091L42.0917 55.1709L42.1709 55.148L42.2014 55.1389L42.3537 55.0916L42.4405 55.0626H42.4588L42.6111 55.0062C42.6461 54.994 42.6796 54.9803 42.7116 54.9666L42.8639 54.901L42.9599 54.8583L43.1122 54.7851C43.1426 54.7698 43.1731 54.7546 43.202 54.7378C43.2538 54.7118 43.3056 54.6829 43.3543 54.6539L43.4381 54.6066L43.5904 54.5121L43.6041 54.5029L43.665 54.4632C43.7183 54.4297 43.7686 54.3931 43.8173 54.358L43.8463 54.3382L43.8859 54.3092C43.9377 54.2711 43.991 54.2314 44.0382 54.1902L44.0686 54.1658L44.0945 54.1445C44.1494 54.1003 44.2027 54.0545 44.256 54.0087L44.2864 53.9813L44.3001 53.9706C44.3535 53.9233 44.4083 53.87 44.4692 53.8181L44.4997 53.7876C44.5652 53.7235 44.6261 53.6595 44.684 53.597C45.5067 52.6963 46.0042 51.5455 46.0968 50.3284C46.1895 49.1113 45.872 47.8982 45.195 46.8831C44.5181 45.868 43.5209 45.1095 42.3628 44.7288C41.2047 44.348 39.9525 44.3671 38.8065 44.783C38.595 44.8606 38.364 44.867 38.1485 44.8013C37.9429 44.7372 37.7343 44.6747 37.5195 44.6107H37.5088C36.6971 44.359 35.9051 44.1013 35.1557 43.8481C33.3053 43.2321 31.4946 42.5027 29.7337 41.664C27.5786 40.5935 25.7087 39.0252 24.2781 37.0885C22.7261 35.0326 21.9387 32.3453 21.9387 29.0997C21.9224 27.3591 22.1905 25.6276 22.7322 23.9736C23.2335 22.4815 24.0019 21.0933 25 19.877C25.0838 19.7748 25.1721 19.6711 25.2635 19.572C25.1236 18.9196 24.792 18.324 24.3113 17.862C23.8306 17.3999 23.2228 17.0925 22.5662 16.9792L21.7056 16.8267L17.6056 20.272L9.07647 27.4403C-2.81707 37.4347 -0.200458 56.4414 13.9502 62.8395L24.4913 67.6041L42.9659 75.9559C46.749 77.6942 50.9656 78.2568 55.0712 77.5711L55.3758 76.9C56.2796 74.875 56.7422 72.6803 56.7328 70.4623Z" fill="url(#paint7_linear_5599_10875)"/>
<path d="M55.5495 63.1275C55.5495 63.1275 47.1727 67.8876 36.7428 65.9491C26.3129 64.0106 20.9548 57.8535 20.8421 50.3847C20.8421 50.3847 20.0943 46.7747 23.8578 46.7869C26.6891 46.7975 32.0305 46.8723 34.507 46.9089C34.8668 46.9139 35.2138 47.0437 35.4887 47.2762C35.7637 47.5087 35.9496 47.8295 36.0148 48.1839C36.4154 50.3771 37.5668 54.6857 40.4499 54.8138C44.3231 54.9862 45.1836 55.5657 46.2451 53.3024C47.3067 51.039 47.293 45.9114 45.1135 44.2429C42.934 42.5743 38.7532 45.463 34.7567 44.5342C30.7603 43.6054 20.7797 40.2942 20.6441 29.8026C20.5086 19.311 27.1993 16.918 27.1993 16.918L28.4315 30.492L42.6218 40.2149L50.1868 41.8179L54.5854 53.0126L55.8252 62.1499L55.5495 63.1275Z" fill="#668617"/>
<path d="M37.8254 55.7339C37.9088 55.7746 37.9941 55.8143 38.0815 55.8529C38.0023 55.8178 37.9291 55.7812 37.8453 55.743L37.8254 55.7339Z" fill="#1A1A1A"/>
<path d="M37.5557 55.5889C37.4652 55.5401 37.3768 55.4892 37.2904 55.4363C37.1868 55.3722 37.0862 55.305 36.9856 55.2363C37.2326 55.407 37.4914 55.56 37.7599 55.6942C37.6944 55.6622 37.6304 55.6286 37.5663 55.5935L37.5557 55.5889Z" fill="#1A1A1A"/>
<path d="M38.4354 55.9976L38.3942 55.9808C38.3073 55.9472 38.222 55.9137 38.1366 55.877L38.1077 55.8633C38.3147 55.9542 38.5263 56.0342 38.7418 56.1029L38.6869 56.0831C38.603 56.0556 38.5192 56.0281 38.4354 55.9976Z" fill="#1A1A1A"/>
<path d="M34.4075 51.5088C34.6886 52.6168 35.2571 53.6306 36.0554 54.4478C36.1392 54.5347 36.2275 54.6171 36.3159 54.6994C36.2275 54.6171 36.1392 54.5347 36.0554 54.4478C35.2571 53.6306 34.6886 52.6168 34.4075 51.5088Z" fill="#1A1A1A"/>
<path d="M47.1713 49.9091C47.176 51.5327 46.5702 53.0986 45.4746 54.2955C45.403 54.3748 45.3223 54.448 45.2522 54.5273C45.3284 54.4526 45.4045 54.3748 45.4746 54.2955C46.3247 53.3668 46.8866 52.2105 47.0918 50.9676C47.2969 49.7247 47.1365 48.4488 46.63 47.2956C46.1234 46.1424 45.2928 45.1618 44.2392 44.4732C43.1857 43.7847 41.9548 43.418 40.6968 43.418C42.4146 43.42 44.0614 44.1048 45.2754 45.3219C46.4894 46.539 47.1713 48.1889 47.1713 49.9091Z" fill="#29235C"/>
<path d="M38.4694 43.8084C38.5912 43.7626 38.7161 43.723 38.8425 43.6863C38.7161 43.723 38.5912 43.7626 38.4694 43.8084L37.8358 43.6192L37.2266 43.4316L37.8358 43.6192L38.4694 43.8084Z" fill="#29235C"/>
<path d="M39.136 43.6073C39.3357 43.5585 39.5369 43.5188 39.7457 43.4883C39.5369 43.5188 39.3357 43.5585 39.136 43.6073Z" fill="#29235C"/>
<path d="M23.8064 16.2607C24.0241 16.3592 24.2336 16.4751 24.4329 16.6072C24.2336 16.4751 24.0241 16.3592 23.8064 16.2607Z" fill="#29235C"/>
<path d="M45.2133 54.5576C45.1508 54.6187 45.0868 54.6782 45.0212 54.7377C45.0883 54.6782 45.1508 54.6187 45.2133 54.5576Z" fill="#29235C"/>
<path d="M44.1589 55.3921C44.104 55.4272 44.0476 55.4608 43.9912 55.4944C44.0476 55.4608 44.104 55.4272 44.1589 55.3921Z" fill="#29235C"/>
<path d="M44.7693 54.9563C44.8348 54.9029 44.8988 54.8479 44.9613 54.793C44.8988 54.8479 44.8348 54.9029 44.7693 54.9563Z" fill="#29235C"/>
<path d="M25.1242 36.4602C26.455 38.2694 28.1987 39.7337 30.2097 40.7307C30.3711 40.8115 30.5402 40.8908 30.7108 40.9701C30.5402 40.8908 30.3711 40.8176 30.2097 40.7307C28.1987 39.7337 26.455 38.2694 25.1242 36.4602C23.7027 34.5792 22.9919 32.1246 22.9919 29.0967C22.994 32.1246 23.7047 34.5792 25.1242 36.4602Z" fill="#29235C"/>
<path d="M44.5127 55.1512C44.5767 55.1054 44.6377 55.0566 44.7002 55.0093C44.6377 55.0581 44.5767 55.107 44.5127 55.1528V55.1512Z" fill="#29235C"/>
<path d="M25.5029 57.3751C23.8306 55.129 22.9493 52.4249 22.8589 49.2627C22.9493 52.4239 23.8306 55.128 25.5029 57.3751Z" fill="#29235C"/>
<path d="M43.6948 55.6683L43.8183 55.5996L43.6948 55.6683Z" fill="#29235C"/>
<path d="M33.3523 42.0771C33.794 42.247 34.2509 42.4162 34.723 42.585C34.2509 42.4157 33.794 42.2464 33.3523 42.0771Z" fill="#29235C"/>
<path d="M31.3618 41.2598C31.5462 41.3407 31.7352 41.4231 31.9288 41.504C31.7352 41.4231 31.5462 41.3407 31.3618 41.2598Z" fill="#29235C"/>
<path d="M32.04 41.5513C32.4333 41.7161 32.8433 41.881 33.2701 42.0458C32.8433 41.881 32.4333 41.7161 32.04 41.5513Z" fill="#29235C"/>
<path d="M35.5141 42.8568C35.2643 42.7714 35.0201 42.686 34.7815 42.6006C35.5471 42.8741 36.3594 43.1461 37.2184 43.4166C36.6325 43.2325 36.0644 43.0459 35.5141 42.8568Z" fill="#29235C"/>
<path d="M41.6837 64.1875C45.3025 64.1875 48.44 63.5221 51.0962 62.1911C48.44 63.5231 45.3025 64.1886 41.6837 64.1875C38.1563 64.1875 34.996 63.6141 32.2027 62.4671C32.0138 62.3894 31.828 62.3146 31.6453 62.2262L31.4792 62.1499C31.7168 62.2597 31.956 62.3665 32.2027 62.4671C34.996 63.6141 38.1563 64.1875 41.6837 64.1875Z" fill="#29235C"/>
<path d="M30.8342 41.0264C31.0034 41.1042 31.1741 41.179 31.3494 41.2599C31.1741 41.179 31.0065 41.0996 30.8342 41.0264Z" fill="#29235C"/>
<path d="M26.3778 19.9013C26.3287 19.3003 26.156 18.716 25.8706 18.185C25.5851 17.6541 25.1931 17.1879 24.7192 16.8159C25.1931 17.1879 25.5851 17.6541 25.8706 18.185C26.156 18.716 26.3287 19.3003 26.3778 19.9013Z" fill="#29235C"/>
<path d="M52.0088 61.7016C51.9113 61.7581 51.8137 61.813 51.7131 61.8665C51.8259 61.8054 51.9387 61.7428 52.0485 61.6787L52.0088 61.7016Z" fill="#29235C"/>
<path d="M25.9995 58.0029L26.1245 58.1556L25.9995 58.0029Z" fill="#29235C"/>
<path d="M51.0967 62.1913C51.2491 62.1135 51.4015 62.0387 51.5539 61.9517C51.4061 62.0326 51.2521 62.1135 51.0967 62.1913Z" fill="#29235C"/>
<path d="M29.8783 61.3116C29.7517 61.2353 29.6268 61.159 29.5033 61.0796L29.3875 61.0063C29.5978 61.1437 29.8142 61.275 30.0337 61.4017L29.8783 61.3116Z" fill="#29235C"/>
<path d="M28.9456 60.7016L28.9151 60.6802C28.752 60.5657 28.5904 60.4482 28.4319 60.3276C28.7367 60.5566 29.0492 60.7754 29.3693 60.984C29.226 60.8985 29.0858 60.8039 28.9456 60.7016Z" fill="#29235C"/>
<path d="M27.2261 59.3086L27.3572 59.4307L27.2261 59.3086Z" fill="#29235C"/>
<path d="M31.0981 61.9708L30.9152 61.8792C30.7963 61.8182 30.6789 61.7586 30.5631 61.6961L30.3862 61.5999L30.1165 61.4473C30.5229 61.6793 30.9426 61.8975 31.3755 62.1021L31.0981 61.9708Z" fill="#29235C"/>
<path d="M53.4641 60.7635L53.6745 60.6108L53.4641 60.7635Z" fill="#29235C"/>
<path d="M53.8506 60.4712C53.9238 60.4147 53.9939 60.3582 54.064 60.3018C54.003 60.3582 53.9298 60.4147 53.8506 60.4712Z" fill="#29235C"/>
<path d="M53.2795 60.8964L53.0601 61.0491C53.1622 60.9804 53.2643 60.9087 53.3649 60.8369L53.2795 60.8964Z" fill="#29235C"/>
<path d="M34.2398 49.2627C34.2185 49.4779 34.2063 49.6962 34.2063 49.916C34.2063 49.6962 34.2185 49.4779 34.2398 49.2627Z" fill="#29235C"/>
<path d="M52.6335 61.3249L52.4445 61.4439L52.1899 61.5966C52.4216 61.4592 52.6477 61.3188 52.8682 61.1753C52.7859 61.2257 52.7112 61.276 52.6335 61.3249Z" fill="#29235C"/>
<path d="M42.169 56.2295L42.2757 56.2036L42.1675 56.2295H42.169Z" fill="#29235C"/>
<path d="M38.7415 56.103L38.7732 56.1121L38.7415 56.103Z" fill="#29235C"/>
<path d="M43.1069 55.9333L43.1324 55.9229L43.1069 55.9333Z" fill="#29235C"/>
<path d="M43.405 55.8038L43.5879 55.7168C43.527 55.7473 43.466 55.7778 43.405 55.8053V55.8038Z" fill="#29235C"/>
<path d="M36.9807 55.2321L36.8938 55.168L36.9807 55.2321Z" fill="#29235C"/>
<path d="M36.6888 55.0124L36.5928 54.936L36.6888 55.0124Z" fill="#29235C"/>
<path d="M36.3953 54.7694L36.3137 54.6968L36.3953 54.7694Z" fill="#29235C"/>
<path d="M37.8243 55.734L37.7527 55.6958L37.8243 55.734Z" fill="#29235C"/>
<path d="M38.1028 55.8629L38.0774 55.8525L38.1028 55.8629Z" fill="#29235C"/>
<path d="M57.7711 70.4626C57.7763 66.7309 56.5334 63.1049 54.2406 60.1631C54.1873 60.2074 54.1325 60.2501 54.0777 60.2928C54.0076 60.3492 53.9375 60.4056 53.8644 60.4621L53.6832 60.5993L53.473 60.7518L53.371 60.8235C53.2704 60.8952 53.1684 60.9669 53.0664 61.0355C53.0039 61.0782 52.9399 61.1194 52.876 61.1606C52.6556 61.304 52.4297 61.4443 52.1982 61.5815L52.0566 61.6639C51.9469 61.728 51.8342 61.7905 51.7215 61.8515L51.5692 61.9369C51.4169 62.0177 51.2646 62.0986 51.1123 62.1764C48.4561 63.5083 45.3186 64.1738 41.6998 64.1728C38.1724 64.1728 35.0121 63.5993 32.2188 62.4524C31.9721 62.3517 31.7329 62.245 31.4953 62.1352L31.3918 62.0864C30.9572 61.883 30.5378 61.6649 30.1337 61.4321C30.1063 61.4168 30.0774 61.4016 30.0515 61.3848C29.8322 61.2582 29.6159 61.127 29.4057 60.9898L29.3844 60.9745C29.0615 60.7651 28.7493 60.5465 28.4477 60.3187C28.073 60.0335 27.7166 59.7315 27.374 59.4158L27.243 59.2938C26.855 58.9279 26.4869 58.5415 26.1403 58.1362L26.0154 57.9837C25.8463 57.7793 25.6803 57.5719 25.5204 57.3568C23.845 55.1102 23.4826 52.7996 23.3881 49.6349L23.6927 49.7981L24.238 49.731L32.3802 49.2627L33.4342 49.4839L33.9231 49.5693L33.5469 49.3832C33.5256 49.5983 34.2049 49.6959 34.2049 49.9155C34.2058 51.611 34.8708 53.2384 36.0569 54.4483C36.1407 54.5353 36.229 54.6176 36.3173 54.7L36.3996 54.7732C36.4635 54.8296 36.5275 54.8845 36.5945 54.9394L36.6905 55.0157C36.7575 55.0696 36.826 55.1204 36.8961 55.1682L36.9829 55.2323C37.0819 55.3009 37.1824 55.368 37.2875 55.4321C37.3748 55.487 37.4632 55.5378 37.5525 55.5846H37.5617C37.6256 55.6197 37.6896 55.6532 37.7551 55.6852L37.8267 55.7234L37.8465 55.7325C37.9241 55.7706 37.9988 55.8072 38.0825 55.8423L38.1084 55.853L38.1374 55.8667C38.2227 55.9033 38.308 55.9369 38.3948 55.9704L38.4359 55.9872C38.5197 56.0177 38.6034 56.0452 38.6872 56.0726L38.742 56.0925L38.774 56.1016L38.9857 56.1626L39.0543 56.1824C39.1319 56.2023 39.2066 56.2206 39.2903 56.2373L39.3726 56.2556C39.4472 56.2724 39.5249 56.2846 39.601 56.2984L39.6955 56.3151L39.9239 56.3441L40.0229 56.3563C40.1021 56.3655 40.1752 56.37 40.2605 56.3746L40.3549 56.3822C40.4661 56.3822 40.5788 56.3914 40.6915 56.3914C40.8073 56.3914 40.9215 56.3883 41.0342 56.3822L41.1454 56.3731C41.2139 56.3731 41.2825 56.3639 41.3495 56.3563H41.3739L41.5018 56.3395C41.5703 56.3395 41.6404 56.3228 41.7074 56.3121C41.7744 56.3014 41.7973 56.2968 41.8414 56.2892L42.0364 56.2511L42.1689 56.2206L42.277 56.1946L42.3608 56.1748L42.4903 56.1367C42.5527 56.1199 42.6152 56.1016 42.6776 56.0803C42.74 56.0589 42.7614 56.0528 42.804 56.0391L42.9883 55.972L43.1086 55.9247L43.1345 55.914L43.2868 55.8469L43.401 55.795C43.462 55.7676 43.5229 55.7371 43.5838 55.7066L43.6904 55.6532L43.8138 55.5846L43.8732 55.5525L43.9722 55.4961L43.9874 55.4854C44.0438 55.4519 44.1001 55.4183 44.155 55.3833L44.2448 55.3253C44.3073 55.2841 44.3682 55.2414 44.4291 55.1987L44.5083 55.1423C44.5723 55.0965 44.6332 55.0477 44.6956 54.9989L44.7627 54.947C44.8281 54.8937 44.8921 54.8388 44.9546 54.7839L45.0079 54.7381L45.0185 54.7274C45.084 54.6679 45.148 54.6085 45.2104 54.5475L45.2409 54.5185C45.3171 54.4437 45.3932 54.366 45.4633 54.2867C46.5617 53.091 47.1702 51.5249 47.1676 49.9003C47.1676 48.3156 46.6589 46.8042 45.7176 45.6771C44.5281 44.2541 42.6837 43.4091 40.6915 43.4091C40.374 43.4093 40.0568 43.4327 39.7427 43.4793C39.5371 43.5098 39.336 43.5495 39.1335 43.5983C39.036 43.6227 38.94 43.6486 38.8441 43.6776C38.5929 43.7511 38.3261 43.7511 38.0749 43.6776L37.8389 43.6059L37.2296 43.4183L37.2098 43.4107C36.3508 43.1392 35.5385 42.8672 34.773 42.5947L34.7196 42.5764C34.2444 42.4066 33.7875 42.2373 33.3489 42.0685L33.2667 42.0365C32.8402 41.8718 32.4305 41.7071 32.0375 41.5423L31.9264 41.4951C31.7329 41.4142 31.5441 41.3319 31.3598 41.251H31.3476C31.1725 41.1733 31.0019 41.0985 30.8328 41.0177L30.7094 40.9597C30.5389 40.8804 30.3698 40.8072 30.2084 40.7203C28.1974 39.7233 26.4537 38.2591 25.1229 36.4498C23.7014 34.5688 22.9906 32.1143 22.9906 29.0863C22.9734 27.4587 23.2229 25.8393 23.7293 24.2927C24.1952 22.9217 24.9075 21.6476 25.8311 20.5331C26.0078 20.3181 26.1951 20.1076 26.3885 19.9017C26.3394 19.3007 26.1667 18.7164 25.8812 18.1854C25.5958 17.6545 25.2038 17.1883 24.7299 16.8163C24.637 16.7416 24.5411 16.6729 24.4421 16.6074C24.243 16.4753 24.0337 16.3596 23.8161 16.2611C23.4843 16.1112 23.1347 16.004 22.7759 15.9424L22.0463 16.5525L21.7417 16.8133L22.6022 16.9658C23.2589 17.0791 23.8666 17.3865 24.3473 17.8486C24.828 18.3106 25.1597 18.9062 25.2996 19.5586C25.2082 19.6623 25.1198 19.766 25.0361 19.8636C24.038 21.0799 23.2695 22.4681 22.7682 23.9602C22.2265 25.6142 21.9585 27.3457 21.9747 29.0863C21.9747 32.3318 22.7621 35.0192 24.3141 37.0751C25.7447 39.0118 27.6147 40.5801 29.7697 41.6506C31.5306 42.4893 33.3414 43.2187 35.1918 43.8347C35.9411 44.0909 36.7331 44.3487 37.5449 44.5973H37.5556C37.7703 44.6613 37.979 44.7238 38.1846 44.7879C38.4001 44.8536 38.6311 44.8472 38.8425 44.7696C39.9888 44.3522 41.2417 44.332 42.4007 44.7123C43.5598 45.0926 44.5578 45.8513 45.2352 46.867C45.9125 47.8827 46.2298 49.0966 46.1364 50.3144C46.043 51.5322 45.5443 52.6833 44.72 53.5835C44.6621 53.6461 44.6012 53.7101 44.5357 53.7742L44.5053 53.8047C44.4443 53.8627 44.3895 53.916 44.3362 53.9572L44.3225 53.9679L44.292 53.9953C44.2387 54.0411 44.1854 54.0869 44.1306 54.1311L44.1047 54.1524L44.0742 54.1768C44.0225 54.218 43.9691 54.2577 43.9219 54.2958L43.8823 54.3248L43.8534 54.3446C43.8031 54.3797 43.7529 54.4163 43.7011 54.4498L43.6402 54.4895L43.6265 54.4986L43.4742 54.5932L43.3904 54.6405C43.3401 54.6695 43.2883 54.6984 43.2381 54.7244C43.2091 54.7412 43.1787 54.7564 43.1482 54.7717L42.9959 54.8449L42.9 54.8876L42.7477 54.9532C42.7157 54.9669 42.6822 54.9806 42.6471 54.9928L42.4948 55.0492H42.4766L42.3897 55.0782L42.2374 55.1255L42.207 55.1346L42.1278 55.1575L41.9679 55.1957L41.9252 55.2063L41.8567 55.2216L41.7044 55.2506H41.6907L41.6404 55.2597L41.5795 55.2719L41.4272 55.2917H41.4059H41.3495H41.2977C41.2398 55.2917 41.1789 55.3024 41.1195 55.3055H41.1058H41.0449H41.0129C40.9139 55.3055 40.8164 55.3131 40.7235 55.3131C40.6306 55.3131 40.5347 55.3131 40.4402 55.3055H40.4204H40.3595H40.3458L40.16 55.2917H40.1371L40.0762 55.2841H40.061C40.0016 55.2765 39.9437 55.2704 39.8858 55.2612H39.8645L39.8066 55.2506L39.6132 55.217H39.5995L39.5447 55.2048C39.4792 55.1896 39.4122 55.1758 39.3467 55.159L39.2979 55.1453C39.2294 55.127 39.1609 55.1072 39.0939 55.0858L39.0466 55.0706C38.9781 55.0477 38.9096 55.0248 38.841 54.9989L38.8014 54.9837C38.7192 54.9532 38.6491 54.9257 38.5943 54.9013L38.5577 54.8845C38.4816 54.851 38.4054 54.8189 38.3491 54.7884L38.3201 54.7747C38.2455 54.7381 38.1755 54.7 38.1069 54.6634H38.0963C38.0201 54.6207 37.9439 54.578 37.8785 54.5353C37.5001 54.3004 37.1513 54.0208 36.8397 53.7025C35.842 52.6852 35.2844 51.3154 35.2877 49.8896C35.2877 49.7081 35.2969 49.5236 35.3152 49.3405C35.3296 49.1964 35.3138 49.0508 35.2686 48.9132C35.2235 48.7755 35.1501 48.6489 35.0531 48.5414C34.9561 48.434 34.8376 48.348 34.7055 48.2892C34.5733 48.2303 34.4302 48.1998 34.2856 48.1997H22.8611C22.7225 48.1996 22.5853 48.2274 22.4576 48.2815C22.33 48.3355 22.2144 48.4146 22.1178 48.5142C22.0212 48.6137 21.9456 48.7317 21.8954 48.8611C21.8452 48.9904 21.8214 49.1286 21.8255 49.2673C21.9229 52.6364 22.8809 55.5663 24.6751 57.976C25.696 59.3447 26.9302 60.54 28.3304 61.516L28.3624 61.5388C28.5147 61.6456 28.6762 61.7524 28.8361 61.8561L28.9199 61.9095L28.9595 61.9338C29.1011 62.0238 29.2306 62.1047 29.3585 62.1809L29.5108 62.2694H29.523C29.6479 62.3411 29.7728 62.4128 29.8992 62.4814L30.085 62.5836L30.4597 62.7773L30.5099 62.8017L30.6531 62.8749C30.7856 62.9389 30.9196 63.0015 31.0552 63.064L31.1146 63.0915L31.2319 63.1464C31.439 63.2394 31.6324 63.3218 31.8197 63.3995C34.7242 64.5922 38.046 65.1977 41.6937 65.1977C45.4587 65.1977 48.782 64.4885 51.5707 63.0915C51.723 63.0137 51.8875 62.9313 52.0581 62.8383L52.1662 62.7803L52.2195 62.7498C52.3261 62.6919 52.4312 62.6339 52.5333 62.5744L52.6856 62.486L52.7252 62.4631L52.9963 62.2999L53.1958 62.1748C53.2796 62.123 53.3618 62.0696 53.4441 62.0223L53.6466 61.8881L53.8812 61.7264L53.8979 61.7158L54.0365 61.6181C55.538 63.838 56.4488 66.4048 56.6828 69.0756C56.9168 71.7464 56.4662 74.4328 55.3738 76.8805L55.0692 77.5516C55.488 77.4814 55.9023 77.3991 56.3135 77.3045C57.2765 75.1526 57.7733 72.8207 57.7711 70.4626Z" fill="url(#paint8_linear_5599_10875)"/>
<path d="M58.9468 52.4531C58.933 52.5172 58.9193 52.5829 58.9041 52.647C58.9193 52.5829 58.933 52.5172 58.9468 52.4531Z" fill="#29235C"/>
<path d="M59.0418 51.9814C59.0296 52.0517 59.0159 52.1234 59.0022 52.1936C59.0159 52.1234 59.0327 52.0517 59.0418 51.9814Z" fill="#29235C"/>
<path d="M45.3127 35.2935L45.8356 35.4781L45.3127 35.2935Z" fill="#29235C"/>
<path d="M44.7583 35.1025C44.9397 35.1636 45.118 35.2262 45.2933 35.2872C45.118 35.2308 44.9397 35.1636 44.7583 35.1025Z" fill="#29235C"/>
<path d="M28.8027 11.9482C28.8033 11.7378 28.8186 11.5276 28.8485 11.3193C28.8186 11.5276 28.8033 11.7378 28.8027 11.9482Z" fill="#29235C"/>
<path d="M45.8628 35.4858L46.3688 35.6675L45.8628 35.4858Z" fill="#29235C"/>
<path d="M55.8315 40.7476L55.9184 40.8346L55.8315 40.7476Z" fill="#29235C"/>
<path d="M58.1703 54.9058C58.1185 55.0279 58.0637 55.15 58.0088 55.2721C58.0637 55.153 58.117 55.0309 58.1703 54.9058Z" fill="#29235C"/>
<path d="M51.6401 37.8237L51.7232 37.8631L51.6401 37.8237Z" fill="#29235C"/>
<path d="M51.1807 37.6069L51.3453 37.6833L51.1807 37.6069Z" fill="#29235C"/>
<path d="M58.3976 54.3428C58.3381 54.4954 58.2771 54.6481 58.2131 54.8099C58.2771 54.6542 58.3381 54.4985 58.3976 54.3428Z" fill="#29235C"/>
<path d="M55.9282 40.8433C56.1873 41.1089 56.4414 41.3856 56.6903 41.6736C56.4414 41.3856 56.1873 41.1089 55.9282 40.8433Z" fill="#29235C"/>
<path d="M59.2735 49.3604C59.2735 49.513 59.2735 49.6656 59.2735 49.8183C59.2704 49.6671 59.272 49.5145 59.2735 49.3604Z" fill="#29235C"/>
<path d="M56.6887 41.6821L56.7771 41.7859L56.6887 41.6821Z" fill="#29235C"/>
<path d="M59.2552 49.9946C59.2552 50.0999 59.2476 50.2037 59.2415 50.3075C59.2476 50.2037 59.2521 50.0999 59.2552 49.9946Z" fill="#29235C"/>
<path d="M50.29 37.2134L50.5492 37.3263L50.29 37.2134Z" fill="#29235C"/>
<path d="M57.7171 55.874C57.6394 56.0267 57.5647 56.1793 57.4763 56.3197C57.5601 56.1732 57.6394 56.0236 57.7171 55.874Z" fill="#29235C"/>
<path d="M49.3789 36.8247L49.7066 36.9605L49.3789 36.8247Z" fill="#29235C"/>
<path d="M48.9099 36.6323L49.2681 36.785L48.9099 36.6323Z" fill="#29235C"/>
<path d="M50.7402 37.4072L50.9536 37.5034L50.7402 37.4072Z" fill="#29235C"/>
<path d="M58.5744 53.8213L58.5332 53.9449L58.5744 53.8213Z" fill="#29235C"/>
<path d="M59.2249 50.5176C59.2249 50.6076 59.2112 50.6992 59.2036 50.7893C59.2112 50.6992 59.2188 50.6076 59.2249 50.5176Z" fill="#29235C"/>
<path d="M49.8416 37.0171L50.1358 37.1423L49.8416 37.0171Z" fill="#29235C"/>
<path d="M59.1834 51.0181C59.1758 51.1005 59.1667 51.1829 59.156 51.2638C59.1621 51.1829 59.1712 51.1005 59.1834 51.0181Z" fill="#29235C"/>
<path d="M57.9499 55.4058C57.8965 55.5202 57.8401 55.6332 57.7822 55.7461C57.8401 55.6332 57.8965 55.5157 57.9499 55.4058Z" fill="#29235C"/>
<path d="M28.9779 10.7199C28.9207 10.9164 28.8775 11.1167 28.8484 11.3193C28.8185 11.5274 28.8033 11.7374 28.8027 11.9477C28.8033 12.9091 29.1189 13.8438 29.7011 14.6083C30.2832 15.3728 31.0998 15.925 32.0255 16.18C32.3895 16.0366 32.7642 15.907 33.145 15.7835C34.1754 15.4557 35.2294 15.2074 36.2977 15.0407C37.7156 14.8206 39.1487 14.7125 40.5836 14.7174C45.897 14.7174 50.1798 15.9883 53.4321 18.5303C56.6838 21.0758 57.491 23.5206 57.721 28.0611L57.4407 28.5186L56.5391 27.9543L47.0961 29.1744C47.0069 29.1736 46.9186 29.1552 46.8365 29.1202C46.7544 29.0851 46.68 29.0342 46.6176 28.9703C46.5552 28.9063 46.506 28.8307 46.4728 28.7477C46.4397 28.6647 46.4233 28.576 46.4245 28.4866C46.4247 27.141 45.9535 25.8379 45.0929 24.8044C44.2324 23.771 43.0371 23.0725 41.7152 22.8308C40.3933 22.5891 39.0286 22.8195 37.8589 23.4817C36.6891 24.144 35.7885 25.1962 35.3138 26.4551C35.2955 26.5023 35.2788 26.5496 35.262 26.5969C35.2239 26.7067 35.1889 26.8196 35.1569 26.9324C35.1051 27.1216 35.061 27.3137 35.0275 27.5105C34.8852 28.3358 34.9248 29.1823 35.1435 29.9908C35.3622 30.7992 35.7547 31.55 36.2935 32.1905C36.8324 32.8311 37.5045 33.346 38.2629 33.6991C39.0214 34.0523 39.8477 34.2351 40.6841 34.2349C40.9948 34.2349 41.3049 34.2099 41.6116 34.1602C41.7793 34.1345 41.9508 34.1524 42.1097 34.2121C42.8417 34.4805 43.6368 34.753 44.4948 35.0296L44.7385 35.1134H44.7522C44.9334 35.1744 45.1116 35.237 45.2868 35.298H45.3066L45.829 35.4825H45.8549L46.3605 35.664L46.3864 35.6732L46.8753 35.8516L46.9103 35.8653L47.3794 36.0392L47.4221 36.0545L47.8668 36.2238L47.9308 36.2482L48.345 36.4083L48.4197 36.4388L48.8096 36.5913L48.9025 36.6279L49.2604 36.7804L49.3731 36.8262L49.7006 36.9619L49.8346 37.0184L50.1285 37.1434L50.2808 37.2121L50.5398 37.3249L50.7286 37.4088L50.9419 37.5049L51.1703 37.6086L51.3348 37.6849L51.6288 37.8237L51.7125 37.8633L52.0826 38.0433C53.2992 38.6466 54.4213 39.4245 55.4135 40.3524C55.5521 40.4805 55.6877 40.6132 55.8217 40.7474L55.9085 40.8343L55.9177 40.8435C56.1766 41.1089 56.4304 41.3854 56.6792 41.6732V41.6808L56.7675 41.7845C56.8909 41.937 57.0128 42.0819 57.1316 42.2421C58.5531 44.0723 59.2638 46.4343 59.2638 49.328V49.3631C59.2638 49.5156 59.2638 49.6681 59.2638 49.8206C59.2638 49.8771 59.2638 49.9335 59.2562 49.9899C59.2562 50.0952 59.2486 50.1989 59.2425 50.3026C59.2425 50.3712 59.2318 50.4414 59.2258 50.51C59.2258 50.6 59.212 50.6915 59.2044 50.7815C59.1968 50.8577 59.1877 50.934 59.1801 51.0087C59.1724 51.0911 59.1633 51.1735 59.1526 51.2543C59.142 51.3336 59.1313 51.4068 59.1191 51.4922C59.1085 51.5685 59.0963 51.6447 59.0841 51.7195C59.0704 51.8018 59.0567 51.8842 59.0415 51.9665C59.0293 52.0367 59.0156 52.1084 59.0019 52.1785C58.9851 52.264 58.9684 52.3494 58.9501 52.4348C58.9364 52.4988 58.9227 52.5644 58.9074 52.6285L58.8435 52.8954L58.7978 53.0708C58.7734 53.1638 58.749 53.2568 58.7216 53.3484L58.6759 53.5009C58.647 53.5985 58.6165 53.6976 58.5845 53.7952L58.5434 53.9188C58.5084 54.0255 58.4718 54.1323 58.4338 54.2375C58.4246 54.2604 58.4155 54.2833 58.4079 54.3062C58.3485 54.4587 58.2876 54.6112 58.2236 54.7729C58.2099 54.8049 58.1946 54.8384 58.1809 54.872C58.1292 54.994 58.0743 55.116 58.0195 55.238C57.9997 55.2823 57.9784 55.325 57.9586 55.3692C57.9053 55.4836 57.8489 55.5964 57.791 55.7093C57.7697 55.752 57.7499 55.7947 57.7271 55.8374C57.6494 55.9899 57.5748 56.1425 57.4864 56.2828C59.0391 58.4264 61.0772 60.1708 63.4335 61.3728C65.7898 62.5749 68.3972 63.2004 71.0416 63.1979C71.2853 63.1979 71.5275 63.1979 71.7681 63.1811C71.8808 62.8349 71.9813 62.4841 72.0727 62.1303L71.7209 62.1455C71.4726 62.1562 71.2503 62.1608 71.0386 62.1608C68.6679 62.1558 66.3289 61.616 64.1952 60.5815C62.0616 59.547 60.1881 58.0443 58.714 56.1852C58.9659 55.6898 59.1897 55.1806 59.3842 54.66V54.6371C59.3918 54.6188 59.3994 54.6005 59.4055 54.5807C59.4481 54.4678 59.4862 54.3534 59.5258 54.2375L59.5395 54.1979L59.5715 54.1033C59.605 53.9981 59.6385 53.8913 59.669 53.7861L59.6796 53.751C59.6933 53.7068 59.707 53.6625 59.7192 53.6183C59.7482 53.5192 59.7756 53.4185 59.8015 53.3133C59.8182 53.2492 59.8365 53.1852 59.8517 53.1211C59.8761 53.025 59.8989 52.9305 59.9203 52.8344C59.937 52.7642 59.9522 52.6941 59.9675 52.6239C59.9827 52.5537 60.0071 52.4394 60.0238 52.3463C60.0406 52.2533 60.0528 52.1938 60.0665 52.1191C60.0802 52.0443 60.0985 51.9406 60.1137 51.8522L60.1502 51.6051V51.5959C60.1624 51.5136 60.1731 51.4327 60.1838 51.3504C60.1944 51.268 60.2036 51.1841 60.2127 51.1018V51.0835V51.0347C60.2203 50.9706 60.2264 50.9066 60.2325 50.841C60.2386 50.7754 60.2477 50.6686 60.2538 50.5832V50.5497V50.4902C60.2538 50.4353 60.263 50.3819 60.266 50.327C60.2736 50.2202 60.2782 50.1119 60.2828 50.0052V49.9884V49.9289V49.8069C60.2828 49.6224 60.2919 49.45 60.2919 49.2792C60.2919 46.1694 59.5014 43.572 57.9449 41.5588C57.8291 41.4063 57.7073 41.2538 57.558 41.0768L57.4621 40.964C57.1986 40.659 56.9229 40.3539 56.6427 40.0626L56.5482 39.9681C56.3959 39.8155 56.2436 39.6706 56.1126 39.5456C55.0464 38.55 53.8413 37.7152 52.535 37.0672C50.6144 36.1155 48.0998 35.1089 45.0629 34.0702L44.97 34.0397L44.8177 33.9863C43.8779 33.6813 43.0022 33.3763 42.2132 33.088L41.936 32.9843L41.6451 33.0453C41.3303 33.1093 41.0099 33.1415 40.6887 33.1414C39.7581 33.1414 38.8485 32.8651 38.0749 32.3474C37.3012 31.8297 36.6982 31.0939 36.3421 30.2331C35.986 29.3722 35.8928 28.4249 36.0743 27.511C36.2559 26.5971 36.704 25.7577 37.3619 25.0988C38.0199 24.4399 38.8582 23.9912 39.7708 23.8094C40.6834 23.6276 41.6294 23.7209 42.4891 24.0775C43.3487 24.4341 44.0835 25.038 44.6005 25.8127C45.1174 26.5875 45.3934 27.4984 45.3934 28.4302C45.3926 28.6208 45.3809 28.8113 45.3583 29.0006C45.3351 29.1492 45.3445 29.301 45.3858 29.4457C45.427 29.5903 45.4992 29.7242 45.5973 29.8381C45.6954 29.952 45.817 30.0431 45.9538 30.1053C46.0906 30.1674 46.2393 30.199 46.3894 30.1978H58.9744C59.0738 30.1978 59.1721 30.1774 59.2634 30.1381C59.3547 30.0988 59.437 30.0413 59.5054 29.9691C59.5738 29.8969 59.6268 29.8115 59.6612 29.7182C59.6956 29.6248 59.7107 29.5255 59.7055 29.4261L59.6903 29.1073C59.4451 24.2741 57.558 20.4398 54.0717 17.7128C50.654 15.0392 46.1092 13.6803 40.5836 13.6803C39.0946 13.6759 37.6076 13.7886 36.1362 14.0173C35.0176 14.1921 33.9137 14.4516 32.8343 14.7936C32.5296 14.8897 32.2631 14.9827 32.0027 15.0788C31.2162 14.7787 30.5714 14.1931 30.1963 13.4386C29.8213 12.6841 29.7435 11.8159 29.9785 11.0066L30.4111 9.51807L29.8856 9.95884L28.9779 10.7199Z" fill="#668617"/>
<path d="M71.0233 63.2408C68.3788 63.2433 65.7715 62.6178 63.4152 61.4158C61.0589 60.2137 59.0208 58.4693 57.4681 56.3257C57.8288 55.6906 58.138 55.0276 58.3926 54.343L58.4215 54.2698C58.4596 54.1645 58.4962 54.0578 58.5312 53.951C58.5464 53.9098 58.5601 53.8671 58.5739 53.8259C58.6058 53.7283 58.6363 53.6292 58.6652 53.5316C58.682 53.4797 58.6972 53.4279 58.7125 53.3791C58.7399 53.2875 58.7642 53.1945 58.7886 53.1015C58.8054 53.042 58.8206 52.9825 58.8358 52.923L58.8998 52.6561C58.915 52.5921 58.9287 52.5265 58.944 52.4594C58.9592 52.3923 58.979 52.2886 58.9957 52.2032C59.0125 52.1177 59.0232 52.0613 59.0353 51.9896C59.0475 51.9179 59.0643 51.8249 59.078 51.7426C59.0917 51.6602 59.1024 51.59 59.113 51.5122C59.1237 51.4345 59.1359 51.3597 59.1465 51.2743C59.1572 51.1889 59.1663 51.1081 59.1755 51.0257C59.1846 50.9434 59.1922 50.8732 59.1998 50.7985C59.2074 50.7237 59.2151 50.617 59.2212 50.5255C59.2272 50.434 59.2333 50.3867 59.2379 50.318C59.2379 50.2128 59.2486 50.106 59.2531 49.9993C59.2531 49.9428 59.2531 49.8864 59.2608 49.83C59.2608 49.6653 59.2608 49.5006 59.2608 49.3343C59.2608 46.4456 58.55 44.0837 57.1285 42.2484C57.0097 42.0959 56.8878 41.9433 56.7645 41.7908C56.7355 41.7542 56.7051 41.7191 56.6761 41.6841C56.4263 41.3897 56.1705 41.1076 55.9055 40.8376L55.8186 40.7491C55.6846 40.6149 55.5491 40.4822 55.4105 40.3541C54.4183 39.4262 53.2961 38.6483 52.0795 38.045C50.1828 37.1065 47.7333 36.1253 44.7308 35.1014C43.1488 36.1458 41.264 36.6315 39.3751 36.4815C37.4862 36.3316 35.7013 35.5547 34.3034 34.2738C32.9054 32.993 31.9743 31.2816 31.6577 29.4108C31.3411 27.54 31.6571 25.617 32.5556 23.9464C33.4541 22.2759 34.8837 20.9534 36.6178 20.1887C38.3519 19.4239 40.2913 19.2607 42.1286 19.7247C43.9658 20.1888 45.5959 21.2536 46.7603 22.7505C47.9247 24.2474 48.5569 26.0906 48.5567 27.988C48.5558 28.3835 48.5279 28.7784 48.473 29.1701H57.5031C57.6504 29.1703 57.796 29.1394 57.9306 29.0795C58.0651 29.0195 58.1855 28.9319 58.2839 28.8222C58.3824 28.7126 58.4566 28.5834 58.5019 28.4431C58.5471 28.3028 58.5623 28.1545 58.5464 28.0079C58.0966 24.0191 56.3873 20.863 53.4183 18.5396C50.1691 15.9977 45.8863 14.7267 40.5698 14.7267C39.135 14.7219 37.7019 14.83 36.284 15.05C35.2157 15.2167 34.1617 15.465 33.1312 15.7928C32.7505 15.9163 32.3697 16.046 32.0118 16.1893C31.0858 15.9348 30.269 15.3827 29.6867 14.6181C29.1045 13.8535 28.7891 12.9186 28.789 11.957C28.789 11.53 28.722 10.1863 28.8347 9.79736L21.981 15.4039C23.9259 15.7425 26.1983 17.9097 26.3628 19.9108C26.1694 20.1167 25.982 20.3271 25.8053 20.5422C24.8855 21.6606 24.1783 22.9385 23.7188 24.3124C23.2124 25.859 22.9628 27.4784 22.9801 29.106C22.9801 32.134 23.6908 34.5885 25.1124 36.4695C26.4432 38.2788 28.1868 39.743 30.1978 40.74C31.9195 41.5605 33.6901 42.2736 35.4996 42.8752C37.0447 41.5527 38.9946 40.7987 41.0263 40.738C43.058 40.6774 45.0494 41.3139 46.6703 42.542C48.2913 43.7701 49.4444 45.516 49.9387 47.4903C50.4329 49.4647 50.2385 51.5488 49.3877 53.3974C48.537 55.2459 47.0809 56.7478 45.2609 57.654C43.4409 58.5603 41.3663 58.8165 39.3809 58.3802C37.3956 57.9439 35.6187 56.8413 34.345 55.2552C33.0712 53.669 32.3769 51.6946 32.3773 49.6592C32.3773 49.525 32.3773 49.3907 32.388 49.2565H23.5238C23.4367 49.2567 23.3507 49.2748 23.2709 49.3097C23.1911 49.3446 23.1193 49.3955 23.0599 49.4592C23.0005 49.523 22.9548 49.5982 22.9256 49.6804C22.8964 49.7625 22.8844 49.8498 22.8902 49.9368C23.0811 52.8112 23.9518 55.2906 25.5023 57.375C26.4541 58.6554 27.6061 59.7735 28.9139 60.6861L28.9444 60.7075C29.0967 60.8082 29.2398 60.9073 29.3891 61.0049L29.5048 61.0781C29.6282 61.1559 29.7531 61.2306 29.8795 61.3099L30.0318 61.3999C30.1476 61.4685 30.2648 61.5341 30.3836 61.5997L30.5603 61.6958C30.6761 61.7583 30.7933 61.8178 30.9121 61.8788L31.0949 61.9703C31.2198 62.0313 31.3477 62.0908 31.4757 62.1503L31.6417 62.2266C31.8245 62.3089 32.0103 62.3898 32.1991 62.4675C34.9924 63.6145 38.1527 64.1879 41.6801 64.1879C45.2989 64.1879 48.4364 63.5224 51.0926 62.1915C51.2449 62.1137 51.3972 62.039 51.5495 61.952L51.7018 61.8666C51.8008 61.8132 51.8998 61.7583 51.9973 61.7019L52.1786 61.5967L52.4329 61.4441L52.6218 61.3252C52.701 61.2764 52.7741 61.226 52.8563 61.1727C52.9386 61.1193 52.9842 61.0903 53.0467 61.0476L53.2675 60.8951L53.4549 60.7624L53.6666 60.6099L53.8478 60.4726C53.9209 60.4162 53.9925 60.3582 54.0641 60.3003C54.1357 60.2423 54.1737 60.2149 54.2271 60.1706C54.5576 59.8976 54.8728 59.6124 55.1729 59.3181C54.8683 59.6124 54.5637 59.8976 54.2271 60.1706C56.0955 62.572 57.2762 65.4373 57.6427 68.4593C58.0092 71.4813 57.5477 74.5463 56.3075 77.3257C63.4568 75.6801 69.453 70.31 71.7498 63.2255C71.5092 63.2347 71.267 63.2408 71.0233 63.2408ZM55.479 59.0237C55.7364 58.7537 55.9801 58.4762 56.2131 58.1879C55.9847 58.4685 55.7364 58.7461 55.479 59.0237Z" fill="url(#paint9_linear_5599_10875)"/>
<path d="M41.2885 58.5888C47.2635 58.5888 51.8646 52.7062 49.6333 46.4088C49.2314 45.2659 48.5865 44.2239 47.7432 43.355C46.8999 42.486 45.8783 41.8107 44.7489 41.3757C41.2459 40.0427 37.8555 40.8526 35.5116 42.8521C36.2467 43.1043 37.0214 43.3585 37.8357 43.6147L38.1175 43.7001C38.3369 43.7672 38.5713 43.7672 38.7907 43.7001C40.3256 43.2447 41.9716 43.3462 43.4391 43.9868C44.8641 44.5823 45.9985 45.7144 46.5979 47.1393C47.7402 49.8694 47.0853 52.5308 45.4678 54.2954C45.3962 54.3747 45.3155 54.4479 45.2454 54.5273L45.2134 54.5578C45.1479 54.6218 45.0809 54.6859 45.0124 54.7469L44.9591 54.7926C44.8966 54.8475 44.8327 54.9024 44.7672 54.9558L44.7002 55.0092C44.6377 55.0565 44.5768 55.1053 44.5128 55.151L44.4336 55.2075C44.3727 55.2517 44.3118 55.2929 44.2493 55.3341L44.1595 55.392L43.9767 55.5049L43.8777 55.5613C43.8183 55.5964 43.7574 55.6284 43.6949 55.662L43.5883 55.7169L43.4056 55.8038L43.2913 55.8557C43.2304 55.8831 43.1695 55.9075 43.107 55.9335L42.9867 55.9807L42.8024 56.0478C42.7598 56.0616 42.7187 56.0768 42.676 56.089C42.6334 56.1012 42.5511 56.1287 42.4887 56.1455L42.3592 56.1836L42.1688 56.2293L42.0348 56.2598L41.8399 56.298C41.7957 56.3056 41.7515 56.3148 41.7058 56.3209C41.6601 56.327 41.5688 56.3407 41.5002 56.3483L41.3723 56.3651C41.2961 56.3722 41.22 56.3783 41.1438 56.3834L41.0326 56.3925C40.9199 56.3986 40.8057 56.4017 40.69 56.4017C40.5772 56.4017 40.4645 56.4017 40.3534 56.3925L40.2589 56.3849C40.1797 56.3849 40.1066 56.3758 40.0213 56.3666L39.9223 56.3544L39.6939 56.3254L39.5994 56.3087C39.5233 56.2949 39.4471 56.2827 39.371 56.266L39.2887 56.2476C39.2095 56.2309 39.1364 56.2126 39.0527 56.1927L38.9841 56.1729L38.7404 56.1028L38.6856 56.0829C38.6018 56.0555 38.5181 56.028 38.4343 55.9975L38.3932 55.9807C38.3064 55.9472 38.2211 55.9136 38.1358 55.877L38.1053 55.8633C38.0185 55.8252 37.9302 55.7855 37.8449 55.7428L37.8236 55.7337C37.7352 55.6894 37.6469 55.6437 37.5601 55.5949H37.5509C37.4606 55.5461 37.3722 55.4952 37.2859 55.4424C36.8375 55.1649 36.4247 54.8335 36.0568 54.4556C34.8666 53.2428 34.2012 51.6094 34.2048 49.909C34.206 49.8248 34.1905 49.7412 34.1593 49.663C34.128 49.5848 34.0816 49.5135 34.0226 49.4534C33.9637 49.3933 33.8935 49.3454 33.816 49.3126C33.7385 49.2799 33.6553 49.2628 33.5712 49.2624H32.3771C32.3771 49.3966 32.3665 49.5308 32.3665 49.665C32.3681 52.0331 33.3089 54.3036 34.9821 55.9771C36.6553 57.6505 38.9237 58.59 41.2885 58.5888Z" fill="url(#paint10_linear_5599_10875)"/>
<path d="M40.0592 19.4619C38.7322 19.4615 37.4235 19.7718 36.2375 20.3681C35.0516 20.9644 34.0213 21.8301 33.229 22.8962C32.4367 23.9622 31.9044 25.199 31.6744 26.5077C31.4445 27.8165 31.5233 29.161 31.9047 30.4338C32.286 31.7066 32.9593 32.8725 33.8708 33.8383C34.7823 34.8041 35.9067 35.5432 37.1542 35.9963C38.4016 36.4495 39.7377 36.6043 41.0555 36.4483C42.3734 36.2923 43.6365 35.8299 44.7442 35.0979C43.7684 34.7838 42.8713 34.4787 42.0529 34.1828C41.9225 34.1368 41.7824 34.1252 41.6463 34.1493C40.8544 34.2829 40.0434 34.2485 39.2656 34.0485C38.4878 33.8485 37.7606 33.4873 37.131 32.9882C36.5014 32.4891 35.9834 31.8632 35.6105 31.1511C35.2376 30.4389 35.0181 29.6563 34.9661 28.8539C34.9161 28.0853 35.0208 27.3144 35.274 26.587C35.5273 25.8597 35.9239 25.1908 36.4404 24.6199C36.9569 24.0491 37.5827 23.5881 38.2806 23.2642C38.9785 22.9403 39.7343 22.7602 40.5031 22.7345C41.2719 22.7088 42.038 22.8382 42.7559 23.1148C43.4738 23.3914 44.1289 23.8097 44.6822 24.3448C45.2355 24.8799 45.6757 25.5209 45.9768 26.2298C46.2779 26.9386 46.4336 27.7008 46.4347 28.4711C46.4335 28.5605 46.45 28.6492 46.4831 28.7322C46.5162 28.8152 46.5654 28.8908 46.6278 28.9548C46.6903 29.0187 46.7647 29.0696 46.8468 29.1047C46.9289 29.1397 47.0171 29.1581 47.1064 29.1589H48.4909C48.5458 28.7673 48.5737 28.3724 48.5746 27.9769C48.5726 25.7171 47.6744 23.5506 46.0776 21.9538C44.4807 20.357 42.3159 19.4607 40.0592 19.4619Z" fill="url(#paint11_linear_5599_10875)"/>
<path d="M16.3357 20.1224C16.916 16.8982 19.6224 14.6897 22.3822 15.1885C24.3957 15.5514 25.8853 17.2551 26.3102 19.401C25.7725 17.6318 24.5175 16.2973 22.8666 15.9983C20.5226 15.5758 18.3263 17.0217 17.5511 20.3237L16.2337 21.4355C16.2236 20.9955 16.2578 20.5556 16.3357 20.1224Z" fill="url(#paint12_linear_5599_10875)"/>
<path d="M33.9667 6.71043L31.9989 8.18374L29.8819 9.96209L28.9802 10.7247C28.9802 10.7247 28.9802 6.47098 33.9667 6.71043Z" fill="url(#paint13_linear_5599_10875)"/>
<path d="M17.1843 20.6304L19.7887 18.4616L22.7648 15.942C22.7648 15.942 18.8764 14.7173 17.1843 20.6304Z" fill="url(#paint14_linear_5599_10875)"/>
<path d="M45.2008 73.7593L26.7262 65.4075L16.1867 60.6414C3.50723 54.9052 0.0894905 39.0587 8.06725 28.6327C8.08857 28.529 8.10837 28.4268 8.13122 28.3276C-2.63525 38.5142 0.223518 56.6378 13.9767 62.8559L24.5162 67.6205L42.9909 75.9724C46.7626 77.7084 50.9665 78.2756 55.0626 77.6012L55.3672 76.9302C55.5703 76.4828 55.7485 76.0288 55.9018 75.5682C52.238 75.9194 48.5465 75.2954 45.2008 73.7593Z" fill="url(#paint15_linear_5599_10875)"/>
<path d="M34.0719 5.66992C30.7638 5.66992 28.0833 8.09799 28.0833 11.0919C28.0833 13.2759 29.5104 15.158 31.5665 16.0167C29.9048 15.1168 28.8021 13.5444 28.8021 11.7538C28.8021 9.21136 31.0227 7.10663 33.9135 6.74822C34.4121 6.41166 34.9152 6.09951 35.4229 5.81176C34.9785 5.71851 34.5259 5.67098 34.0719 5.66992Z" fill="url(#paint16_linear_5599_10875)"/>
<path d="M32.9027 5.12992C29.5961 5.12992 26.9155 7.55646 26.9155 10.5504C26.9155 12.7344 28.3426 14.6165 30.3972 15.4751C28.7356 14.5753 27.6192 13.0028 27.6344 11.2123C27.6801 5.44563 32.9651 5.24278 34.2536 5.26414C33.809 5.17337 33.3564 5.1284 32.9027 5.12992Z" fill="url(#paint17_linear_5599_10875)"/>
<path d="M35.8289 16.18C38.8338 15.7834 51.6808 13.941 57.272 27.6843C57.0009 20.481 48.426 13.482 35.8289 16.18Z" fill="url(#paint18_linear_5599_10875)"/>
<path d="M47.2048 37.6055C51.8319 39.3564 58.384 44.6883 56.8305 52.5018C60.3488 43.7168 51.9537 39.1962 47.2048 37.6055Z" fill="url(#paint19_linear_5599_10875)"/>
<path d="M16.1733 65.2769L28.012 73.6851L25.6924 73.4929C23.8358 73.3386 22.0552 72.685 20.5386 71.6013C19.0221 70.5175 17.826 69.0439 17.0765 67.3358L16.1733 65.2769Z" fill="url(#paint20_linear_5599_10875)"/>
<path d="M76.7371 46.6147C76.7279 46.758 71.3272 27.5912 71.4582 27.7377C78.615 35.8088 77.1803 39.0605 76.7371 46.6147Z" fill="url(#paint21_linear_5599_10875)"/>
<path d="M54.0266 61.6377C54.0266 61.6377 60.9793 64.6484 55.8984 75.5686C58.5927 67.4837 54.0266 61.6377 54.0266 61.6377Z" fill="url(#paint22_linear_5599_10875)"/>
<path d="M9.40523 44.7925L8.83408 47.6461C8.60343 48.7989 8.83955 49.9963 9.4905 50.9747C10.1414 51.9532 11.1539 52.6327 12.3051 52.8637C13.4564 53.0946 14.6521 52.8582 15.6292 52.2063C16.6063 51.5545 17.2848 50.5406 17.5155 49.3878L18.0729 46.5968C16.8499 46.9323 13.6058 47.399 9.40523 44.7925Z" fill="#668617"/>
<path d="M15.604 39.5105C13.2006 38.4749 10.2383 40.63 9.75852 43.026L9.51636 44.2385C10.7988 45.0865 14.3429 47.0479 18.1978 45.9772L18.4415 44.7662C18.842 42.7332 17.5368 40.3417 15.604 39.5105ZM14.8821 43.874C14.8621 43.9728 14.8228 44.0666 14.7666 44.1502C14.7104 44.2337 14.6383 44.3054 14.5545 44.361C14.4706 44.4167 14.3766 44.4553 14.2778 44.4745C14.1791 44.4938 14.0775 44.4934 13.9789 44.4734C13.8803 44.4534 13.7866 44.4141 13.7032 44.3578C13.6197 44.3015 13.5482 44.2293 13.4926 44.1453C13.437 44.0614 13.3985 43.9672 13.3792 43.8683C13.36 43.7695 13.3603 43.6677 13.3803 43.569L13.7961 41.5161C13.8365 41.3167 13.9544 41.1415 14.1238 41.0291C14.2931 40.9167 14.5002 40.8763 14.6993 40.9167C14.8985 40.9572 15.0734 41.0752 15.1856 41.2448C15.2979 41.4144 15.3383 41.6217 15.2979 41.8211L14.8821 43.874Z" fill="#668617"/>
<path d="M22.9969 35.231C22.4532 36.9575 22.0237 38.321 18.5801 37.5187C17.5033 37.2686 16.5925 37.3769 15.8736 37.8375C15.2056 38.255 14.6306 38.8059 14.1845 39.4557L13.6301 39.3489C13.6438 39.2834 13.9713 37.7307 15.3055 36.8706C16.1599 36.32 17.22 36.1858 18.4552 36.4725C21.3779 37.1497 21.6673 36.23 22.1927 34.563C22.2933 34.2442 22.2628 34.2366 22.3953 33.8843" fill="#668617"/>
<path d="M8.31253 43.8647L7.81754 46.7321C7.61739 47.89 7.88476 49.08 8.56084 50.0405C9.23693 51.001 10.2663 51.6532 11.4226 51.8536C12.5789 52.054 13.7673 51.7863 14.7265 51.1093C15.6856 50.4322 16.3369 49.4014 16.537 48.2435L17.0229 45.4387C15.8044 45.8063 12.5771 46.3645 8.31253 43.8647Z" fill="#AEC90B"/>
<path d="M14.3669 38.4203C11.9301 37.4503 9.03625 39.6816 8.61741 42.0898L8.40723 43.31C9.71096 44.1244 13.3054 45.9912 17.1252 44.8199L17.3354 43.5997C17.6887 41.5575 16.3225 39.1966 14.3669 38.4203ZM13.7577 42.8021C13.7405 42.9012 13.704 42.996 13.6502 43.081C13.5964 43.166 13.5265 43.2396 13.4443 43.2975C13.3621 43.3554 13.2694 43.3966 13.1713 43.4186C13.0733 43.4406 12.9718 43.4431 12.8728 43.4259C12.7738 43.4086 12.6792 43.3721 12.5943 43.3182C12.5094 43.2644 12.4359 43.1943 12.3781 43.112C12.3202 43.0297 12.2792 42.9368 12.2572 42.8386C12.2352 42.7405 12.2327 42.6389 12.2499 42.5397L12.6063 40.4731C12.641 40.2729 12.7538 40.0947 12.9197 39.9777C13.0857 39.8607 13.2912 39.8146 13.4912 39.8493C13.6911 39.8841 13.8691 39.997 13.9859 40.1632C14.1027 40.3294 14.1489 40.5352 14.1141 40.7355L13.7577 42.8021Z" fill="url(#paint23_linear_5599_10875)"/>
<path d="M13.1865 38.9006C13.2002 38.8335 13.5292 37.2809 14.8619 36.4222C15.7163 35.8716 16.7764 35.7374 18.0116 36.0226C20.9343 36.6998 21.2237 35.7817 21.7491 34.1147C21.8497 33.7944 22.1573 32.8274 22.2898 32.4751L22.5625 33.5702C22.4345 33.9118 22.3919 33.9759 22.2944 34.2855C21.7507 36.0135 21.3212 37.3755 17.8775 36.5732C16.8007 36.3231 15.8899 36.4314 15.1711 36.892C14.041 37.6164 13.7455 38.9937 13.744 39.0074L13.1865 38.9006Z" fill="#AEC90B"/>
<path d="M16.9819 45.6357L17.0169 45.439C16.3828 45.6254 15.7278 45.7315 15.0674 45.7547C15.7079 45.7826 16.3497 45.7428 16.9819 45.6357Z" fill="url(#paint24_linear_5599_10875)"/>
<path d="M12.2191 51.8551C11.6464 51.7563 11.0988 51.5453 10.6077 51.2341C10.1165 50.923 9.69154 50.5178 9.35705 50.0419C9.02257 49.566 8.78517 49.0286 8.65846 48.4607C8.53175 47.8927 8.51822 47.3053 8.61864 46.7321L9.04509 44.2674C8.80445 44.1423 8.56076 44.0096 8.31251 43.8647L7.81751 46.7321C7.70027 47.4021 7.73892 48.0901 7.93046 48.7427C8.122 49.3953 8.46128 49.9949 8.9219 50.4948C9.38252 50.9947 9.95207 51.3815 10.5863 51.6251C11.2205 51.8687 11.9023 51.9626 12.5786 51.8993C12.4588 51.8892 12.339 51.8744 12.2191 51.8551Z" fill="url(#paint25_linear_5599_10875)"/>
<path d="M14.3669 38.4203C11.9301 37.4503 9.03625 39.6816 8.61741 42.0898L8.40723 43.31C9.71096 44.1244 13.3054 45.9912 17.1252 44.8199L17.3354 43.5997C17.6887 41.5575 16.3225 39.1966 14.3669 38.4203ZM13.7577 42.8021C13.7405 42.9012 13.704 42.996 13.6502 43.081C13.5964 43.166 13.5265 43.2396 13.4443 43.2975C13.3621 43.3554 13.2694 43.3966 13.1713 43.4186C13.0733 43.4406 12.9718 43.4431 12.8728 43.4259C12.7738 43.4086 12.6792 43.3721 12.5943 43.3182C12.5094 43.2644 12.4359 43.1943 12.3781 43.112C12.3202 43.0297 12.2792 42.9368 12.2572 42.8386C12.2352 42.7405 12.2327 42.6389 12.2499 42.5397L12.6063 40.4731C12.641 40.2729 12.7538 40.0947 12.9197 39.9777C13.0857 39.8607 13.2912 39.8146 13.4912 39.8493C13.6911 39.8841 13.8691 39.997 13.9859 40.1632C14.1027 40.3294 14.1489 40.5352 14.1141 40.7355L13.7577 42.8021Z" fill="#AEC90B"/>
<path d="M9.25874 42.7304C9.67454 40.3222 12.5775 38.0908 15.0144 39.0624C15.4354 39.2331 15.8274 39.4683 16.1765 39.7594C15.6923 39.1723 15.0722 38.7126 14.3701 38.4203C11.9332 37.4503 9.03942 39.6816 8.62058 42.0898L8.4104 43.31C8.59469 43.4259 8.82619 43.5616 9.09577 43.708C9.15213 43.3496 9.25874 42.7334 9.25874 42.7304Z" fill="url(#paint26_linear_5599_10875)"/>
<path d="M12.5799 53.0952C14.6971 53.0952 16.4134 51.3765 16.4134 49.2563C16.4134 47.1362 14.6971 45.4175 12.5799 45.4175C10.4627 45.4175 8.74634 47.1362 8.74634 49.2563C8.74634 51.3765 10.4627 53.0952 12.5799 53.0952Z" fill="url(#paint27_radial_5599_10875)"/>
<path d="M55.4464 15.5881L57.466 16.0899L56.3922 16.2485L55.0641 18.8581L49.6436 15.3334L50.6 14.1499L55.4464 15.5881Z" fill="#668617"/>
<path d="M47.6064 11.6917C47.7065 11.4916 47.8501 11.3164 48.0267 11.1792C48.2033 11.0419 48.4084 10.9461 48.6268 10.8986C48.8356 10.8445 49.051 10.8209 49.2665 10.8285H49.3457C52.6324 10.9139 55.1196 12.224 56.3517 14.5163L56.4355 14.6689L56.0014 15.5687L59.4862 16.2855C58.4612 14.2418 54.917 10.4091 54.917 10.4091C51.9136 10.4289 44.21 8.99219 44.21 8.99219C45.1376 10.2521 46.1881 11.4164 47.3459 12.468C47.4541 12.1127 47.5515 11.8198 47.6064 11.6917Z" fill="url(#paint28_linear_5599_10875)"/>
<path d="M46.9702 14.8196C46.9702 14.8196 47.7424 12.2588 47.9297 11.8318C48.1171 11.4047 48.676 11.1577 49.2578 11.179C49.8396 11.2004 54.1621 11.179 56.043 14.6869L54.5748 17.7372C54.5748 17.7372 50.3712 14.3361 46.9702 14.8196Z" fill="#DBEDF2"/>
<path d="M54.7279 11.0159C54.7279 11.0159 57.5394 14.054 58.8797 16.1664L59.4813 16.2899C58.4563 14.2462 54.9122 10.4135 54.9122 10.4135C51.9087 10.4333 44.2051 8.99658 44.2051 8.99658C44.2051 8.99658 44.4168 9.29094 44.7762 9.73934C46.779 10.0932 52.294 11.0312 54.7279 11.0159Z" fill="#DBEDF2"/>
<path d="M52.0522 11.5908C53.3758 12.1246 54.7389 13.0565 55.6162 14.693L54.2652 17.4917C54.4632 17.6442 54.5699 17.7266 54.5699 17.7266L56.0381 14.6762C55.0709 12.8842 53.4687 12.0148 52.0522 11.5908Z" fill="white"/>
<path d="M55.3541 13.5752L54.6748 16.2488L55.6754 13.8284L55.3541 13.5752Z" fill="#668617"/>
<path d="M54.2291 12.631C52.1988 11.1866 49.6904 11.1943 49.2578 11.179C48.676 11.1577 48.1171 11.4063 47.9297 11.8318C47.7424 12.2573 46.9702 14.8196 46.9702 14.8196C47.7799 14.7251 48.6002 14.7915 49.3843 15.0148C50.2585 13.8267 52.0465 12.9345 54.2291 12.631Z" fill="#B3C7CC"/>
<path d="M56.3306 12.0161C56.3306 12.0161 59.0112 15.1275 59.4803 16.2866L59.0995 16.2088C59.0995 16.2088 58.2694 14.7934 56.3306 12.0161Z" fill="white"/>
<g opacity="0.33">
<path opacity="0.33" d="M54.579 17.4827C54.0426 17.063 53.4805 16.6774 52.896 16.3281C53.6697 16.8741 54.1479 17.2554 54.2287 17.321C54.2875 17.3682 54.3311 17.4317 54.3542 17.5036C54.3772 17.5755 54.3786 17.6525 54.3581 17.7252C54.3491 17.7539 54.3368 17.7816 54.3216 17.8075C54.3794 17.8075 54.4343 17.7999 54.4921 17.7923H54.5135C54.5446 17.7839 54.5727 17.7671 54.5949 17.7437C54.6171 17.7204 54.6324 17.6913 54.6392 17.6598C54.646 17.6283 54.6439 17.5955 54.6333 17.565C54.6227 17.5346 54.6039 17.5077 54.579 17.4873V17.4827Z" fill="white"/>
</g>
<path d="M57.9354 15.3335C57.9354 15.3335 58.2294 15.486 58.2522 16.032L58.569 19.9975C58.569 19.9975 58.6589 20.8561 58.5462 21.3488C58.495 20.9089 58.326 20.491 58.0573 20.1393L57.6262 16.0046C57.6262 16.0046 57.5623 15.4433 57.9354 15.3335Z" fill="#DBEDF2"/>
<path d="M57.9361 15.3336C57.9361 15.3336 58.23 15.4861 58.2529 16.0321L58.5697 19.9975C58.5697 19.9975 58.6595 20.8562 58.5468 21.3488C58.4956 20.909 58.3267 20.4911 58.0579 20.1394L57.6269 16.0047C57.6269 16.0047 57.5629 15.4464 57.9315 15.3366L57.9361 15.3336ZM57.901 15.1841H57.8873C57.4929 15.3016 57.438 15.7652 57.467 16.0214L57.898 20.1546C57.901 20.1862 57.9138 20.2161 57.9345 20.2401C58.1833 20.5672 58.3409 20.9545 58.3915 21.3626C58.3944 21.3996 58.4107 21.4343 58.4373 21.4601C58.464 21.4859 58.4991 21.5011 58.5362 21.5029C58.5493 21.5044 58.5626 21.5044 58.5758 21.5029C58.6059 21.4977 58.6337 21.4836 58.6557 21.4624C58.6777 21.4412 58.6928 21.4139 58.6991 21.3839C58.8149 20.873 58.7296 20.0113 58.725 19.9823L58.4082 16.0169C58.3823 15.3992 58.0244 15.2009 58.0092 15.1917C57.9773 15.1754 57.9409 15.17 57.9056 15.1765L57.901 15.1841Z" fill="#668617"/>
<path d="M57.9394 15.2514H57.9242C57.8843 15.2548 57.8446 15.2423 57.8138 15.2166C57.783 15.1909 57.7636 15.1541 57.7597 15.1141L57.5404 12.7074C57.5386 12.6874 57.5408 12.6672 57.5468 12.648C57.5528 12.6288 57.5625 12.611 57.5753 12.5955C57.6013 12.5643 57.6386 12.5448 57.679 12.5411C57.7194 12.5375 57.7596 12.5501 57.7907 12.5761C57.8218 12.6021 57.8414 12.6395 57.845 12.6799L58.0613 15.0988C58.062 15.1345 58.0502 15.1693 58.0279 15.1972C58.0057 15.2251 57.9744 15.2442 57.9394 15.2514Z" fill="#668617"/>
<path d="M58.5869 20.1943C58.5793 20.0723 58.5701 19.9945 58.5701 19.9945L58.2533 16.0291C58.2305 15.4877 57.9365 15.3306 57.9365 15.3306C57.8778 15.3488 57.8241 15.3805 57.7796 15.4231C57.7352 15.4657 57.7013 15.5181 57.6807 15.5761C57.6807 15.5761 57.9853 15.6371 58.0843 16.4287C58.168 17.0815 58.4772 19.3829 58.5869 20.1943Z" fill="white"/>
<path d="M57.6902 16.5996L58.0588 20.1319C58.1146 20.195 58.1655 20.2623 58.2111 20.3332C57.9293 19.0734 58.2004 17.5864 57.6902 16.5996Z" fill="#B3C7CC"/>
<path d="M58.4438 17.5132C58.4336 17.5151 58.423 17.514 58.4133 17.5103C58.4037 17.5065 58.3952 17.5001 58.3889 17.4918C58.3195 17.4118 58.2216 17.3619 58.1161 17.3529C58.0364 17.3565 57.9584 17.3771 57.8874 17.4134C57.8164 17.4498 57.754 17.501 57.7045 17.5636C57.6937 17.5741 57.6792 17.58 57.6641 17.58C57.649 17.58 57.6346 17.5741 57.6237 17.5636C57.6136 17.5526 57.6079 17.5381 57.6079 17.5231C57.6079 17.5081 57.6136 17.4937 57.6237 17.4827C57.6832 17.4079 57.7581 17.347 57.8434 17.304C57.9287 17.2611 58.0222 17.2371 58.1176 17.2339C58.1859 17.2389 58.2525 17.2576 58.3135 17.2888C58.3745 17.32 58.4286 17.3631 58.4727 17.4155C58.4774 17.4213 58.4808 17.428 58.4828 17.4351C58.4848 17.4423 58.4855 17.4497 58.4846 17.4571C58.4838 17.4645 58.4815 17.4716 58.4779 17.4781C58.4743 17.4846 58.4694 17.4903 58.4636 17.4949C58.4587 17.5026 58.4519 17.5089 58.4438 17.5132Z" fill="#2A3149"/>
<path d="M58.4387 16.9046C58.4282 16.9063 58.4175 16.9052 58.4076 16.9014C58.3977 16.8977 58.389 16.8914 58.3823 16.8833C58.3128 16.8032 58.2149 16.7533 58.1094 16.7444C58.0298 16.7479 57.9518 16.7685 57.8808 16.8049C57.8098 16.8412 57.7474 16.8924 57.6979 16.955C57.6873 16.9654 57.6731 16.9713 57.6582 16.9713C57.6434 16.9713 57.6292 16.9654 57.6186 16.955C57.6132 16.9497 57.6089 16.9434 57.606 16.9365C57.6031 16.9296 57.6016 16.9221 57.6016 16.9145C57.6016 16.907 57.6031 16.8995 57.606 16.8926C57.6089 16.8857 57.6132 16.8794 57.6186 16.8741C57.679 16.7992 57.7551 16.7386 57.8415 16.6964C57.9279 16.6542 58.0225 16.6315 58.1186 16.6299C58.1868 16.6351 58.2534 16.6538 58.3143 16.685C58.3753 16.7162 58.4295 16.7592 58.4737 16.8115C58.4826 16.8234 58.4867 16.8383 58.485 16.853C58.4833 16.8678 58.476 16.8814 58.4646 16.8909C58.4567 16.8968 58.448 16.9015 58.4387 16.9046Z" fill="#2A3149"/>
<path d="M54.5771 17.4828C54.408 17.3471 50.4207 14.1687 47.0974 14.6369C47.0586 14.6417 47.0226 14.6593 46.995 14.6869C46.9675 14.7146 46.9499 14.7506 46.9451 14.7894C46.9451 14.8504 46.9451 15.1432 47.4218 15.552C47.7965 15.6537 48.1559 15.7665 48.5001 15.8906C48.3173 15.7701 48.1635 15.6618 48.0432 15.5733L47.8909 15.4727C47.6744 15.3404 47.489 15.163 47.3472 14.9526C49.9287 14.7177 52.9824 16.7431 53.9998 17.4844C53.1707 17.5436 52.3374 17.471 51.531 17.2693C51.8996 17.4783 52.1874 17.6582 52.3824 17.7863C53.08 17.878 53.7866 17.878 54.4842 17.7863H54.5055C54.5366 17.778 54.5648 17.7612 54.587 17.7378C54.6091 17.7144 54.6244 17.6854 54.6312 17.6538C54.638 17.6223 54.6359 17.5895 54.6253 17.5591C54.6147 17.5287 54.5959 17.5018 54.571 17.4813L54.5771 17.4828Z" fill="#B3C7CC"/>
<path opacity="0.39" d="M65.5998 33.5794H64.453V32.3242C64.4522 31.6437 64.1818 30.9912 63.7013 30.51C63.2208 30.0288 62.5693 29.7581 61.8897 29.7573H61.6978C61.0182 29.7581 60.3667 30.0288 59.8861 30.51C59.4056 30.9912 59.1353 31.6437 59.1345 32.3242V33.5794H57.9876C57.3078 33.5794 56.6558 33.8498 56.1751 34.3312C55.6944 34.8126 55.4243 35.4655 55.4243 36.1463C55.4243 36.827 55.6944 37.4799 56.1751 37.9613C56.6558 38.4427 57.3078 38.7131 57.9876 38.7131H59.1345V39.947C59.1353 40.6275 59.4056 41.2799 59.8861 41.7611C60.3667 42.2423 61.0182 42.513 61.6978 42.5138H61.8897C62.5693 42.513 63.2208 42.2423 63.7013 41.7611C64.1818 41.2799 64.4522 40.6275 64.453 39.947V38.7131H65.5998C66.2797 38.7131 66.9316 38.4427 67.4124 37.9613C67.8931 37.4799 68.1631 36.827 68.1631 36.1463C68.1631 35.4655 67.8931 34.8126 67.4124 34.3312C66.9316 33.8498 66.2797 33.5794 65.5998 33.5794ZM60.1945 40.583C60.2768 40.7768 60.3957 40.9529 60.5448 41.1015C60.3957 40.9529 60.2768 40.7768 60.1945 40.583ZM63.0426 41.1015C63.1912 40.9525 63.3101 40.7765 63.3929 40.583C63.3101 40.7765 63.1912 40.9525 63.0426 41.1015Z" fill="#668617"/>
<path d="M65.9163 37.2138H63.8373V39.3811C63.8387 39.5965 63.7976 39.8102 63.7162 40.0097C63.6349 40.2092 63.515 40.3906 63.3634 40.5435C63.2118 40.6965 63.0315 40.8179 62.8329 40.9008C62.6343 40.9837 62.4213 41.0265 62.2061 41.0267H62.0142C61.5816 41.0267 61.1667 40.8546 60.8608 40.5483C60.5549 40.242 60.383 39.8265 60.383 39.3933V37.2138H58.304C58.0898 37.214 57.8776 37.1719 57.6796 37.0899C57.4816 37.0079 57.3017 36.8875 57.1502 36.7358C56.9987 36.5841 56.8785 36.4039 56.7966 36.2057C56.7147 36.0074 56.6727 35.7949 56.6729 35.5803C56.6729 35.1471 56.8447 34.7317 57.1506 34.4253C57.4565 34.119 57.8714 33.9469 58.304 33.9469H60.383V31.7628C60.383 31.3296 60.5549 30.9142 60.8608 30.6078C61.1667 30.3015 61.5816 30.1294 62.0142 30.1294H62.2061C62.6386 30.1298 63.0533 30.302 63.3591 30.6083C63.6649 30.9145 63.8369 31.3298 63.8373 31.7628V33.9515H65.9163C66.3486 33.9519 66.7631 34.1241 67.0687 34.4304C67.3743 34.7367 67.5459 35.152 67.5459 35.5849C67.5451 36.0172 67.3731 36.4315 67.0675 36.7369C66.762 37.0423 66.3479 37.2138 65.9163 37.2138Z" fill="url(#paint29_linear_5599_10875)"/>
<path d="M62.2066 30.1292C62.6391 30.1296 63.0538 30.3018 63.3596 30.6081C63.6654 30.9143 63.8374 31.3296 63.8378 31.7627V33.9513H65.9168C66.3494 33.9513 66.7643 34.1234 67.0702 34.4297C67.3761 34.736 67.5479 35.1515 67.5479 35.5847C67.5479 36.018 67.3761 36.4334 67.0702 36.7398C66.7643 37.0461 66.3494 37.2182 65.9168 37.2182H63.8378V39.3855C63.8386 39.6005 63.797 39.8137 63.7154 40.0127C63.6338 40.2116 63.5138 40.3925 63.3623 40.545C63.2107 40.6974 63.0307 40.8184 62.8323 40.9011C62.634 40.9837 62.4214 41.0263 62.2066 41.0265H62.0147C61.5821 41.0265 61.1672 40.8544 60.8613 40.5481C60.5553 40.2418 60.3835 39.8263 60.3835 39.3931V37.2136H58.3045C57.8719 37.2136 57.457 37.0415 57.1511 36.7352C56.8452 36.4289 56.6733 36.0134 56.6733 35.5802C56.6733 35.1469 56.8452 34.7315 57.1511 34.4251C57.457 34.1188 57.8719 33.9467 58.3045 33.9467H60.3835V31.7627C60.3835 31.3294 60.5553 30.914 60.8613 30.6076C61.1672 30.3013 61.5821 30.1292 62.0147 30.1292H62.2066ZM62.2066 29.1958H62.0147C61.3351 29.1966 60.6836 29.4673 60.203 29.9485C59.7225 30.4297 59.4522 31.0821 59.4514 31.7627V33.0179H58.3045C57.6247 33.0179 56.9727 33.2883 56.492 33.7697C56.0113 34.2511 55.7412 34.904 55.7412 35.5847C55.7412 36.2655 56.0113 36.9184 56.492 37.3998C56.9727 37.8812 57.6247 38.1516 58.3045 38.1516H59.4514V39.3855C59.4522 40.066 59.7225 40.7184 60.203 41.1996C60.6836 41.6808 61.3351 41.9515 62.0147 41.9523H62.2066C62.8862 41.9515 63.5377 41.6808 64.0182 41.1996C64.4988 40.7184 64.7691 40.066 64.7699 39.3855V38.1516H65.9168C66.5966 38.1516 67.2486 37.8812 67.7293 37.3998C68.21 36.9184 68.4801 36.2655 68.4801 35.5847C68.4801 34.904 68.21 34.2511 67.7293 33.7697C67.2486 33.2883 66.5966 33.0179 65.9168 33.0179H64.7699V31.7627C64.7691 31.0821 64.4988 30.4297 64.0182 29.9485C63.5377 29.4673 62.8862 29.1966 62.2066 29.1958Z" fill="#668617"/>
<path opacity="0.32" d="M66.5159 36.588C66.7904 36.588 67.0128 36.3652 67.0128 36.0904C67.0128 35.8156 66.7904 35.5928 66.5159 35.5928C66.2415 35.5928 66.019 35.8156 66.019 36.0904C66.019 36.3652 66.2415 36.588 66.5159 36.588Z" fill="white"/>
<path opacity="0.32" d="M62.9962 32.6298C63.2059 32.6298 63.3758 32.4596 63.3758 32.2497C63.3758 32.0398 63.2059 31.8696 62.9962 31.8696C62.7866 31.8696 62.6167 32.0398 62.6167 32.2497C62.6167 32.4596 62.7866 32.6298 62.9962 32.6298Z" fill="white"/>
<path opacity="0.32" d="M93.6807 86.0001C93.9552 86.0001 94.1776 85.7773 94.1776 85.5025C94.1776 85.2277 93.9552 85.0049 93.6807 85.0049C93.4063 85.0049 93.1838 85.2277 93.1838 85.5025C93.1838 85.7773 93.4063 86.0001 93.6807 86.0001Z" fill="white"/>
<path opacity="0.32" d="M90.1644 82.347C90.3741 82.347 90.544 82.1769 90.544 81.967C90.544 81.7571 90.3741 81.5869 90.1644 81.5869C89.9548 81.5869 89.7849 81.7571 89.7849 81.967C89.7849 82.1769 89.9548 82.347 90.1644 82.347Z" fill="white"/>
<defs>
<linearGradient id="paint0_linear_5599_10875" x1="8.00061" y1="30.2378" x2="77.3175" y2="53.7082" gradientUnits="userSpaceOnUse">
<stop stop-color="#EBF3FB"/>
<stop offset="1" stop-color="#BBCCDB"/>
</linearGradient>
<linearGradient id="paint1_linear_5599_10875" x1="45.1887" y1="77.1151" x2="45.1887" y2="-0.00049182" gradientUnits="userSpaceOnUse">
<stop stop-color="#748087"/>
<stop offset="1" stop-color="#B3B9C0"/>
</linearGradient>
<linearGradient id="paint2_linear_5599_10875" x1="9.13712" y1="66.997" x2="43.4835" y2="66.997" gradientUnits="userSpaceOnUse">
<stop stop-color="#EBF3FB"/>
<stop offset="1" stop-color="#91BED8"/>
</linearGradient>
<linearGradient id="paint3_linear_5599_10875" x1="62.5708" y1="39.2438" x2="73.6998" y2="39.2438" gradientUnits="userSpaceOnUse">
<stop stop-color="#EBF3FB"/>
<stop offset="1" stop-color="#55819A"/>
</linearGradient>
<linearGradient id="paint4_linear_5599_10875" x1="22.5791" y1="71.2532" x2="28.2209" y2="64.3673" gradientUnits="userSpaceOnUse">
<stop stop-color="#EBF3FB"/>
<stop offset="1" stop-color="#BBCCDB"/>
</linearGradient>
<linearGradient id="paint5_linear_5599_10875" x1="51.2439" y1="62.2034" x2="51.2439" y2="3.22667" gradientUnits="userSpaceOnUse">
<stop stop-color="#61B12F"/>
<stop offset="1" stop-color="#C9CD00"/>
</linearGradient>
<linearGradient id="paint6_linear_5599_10875" x1="28.4314" y1="77.8503" x2="28.4314" y2="16.8146" gradientUnits="userSpaceOnUse">
<stop stop-color="#748087"/>
<stop offset="1" stop-color="#B3B9C0"/>
</linearGradient>
<linearGradient id="paint7_linear_5599_10875" x1="29.1518" y1="77.8502" x2="29.1518" y2="16.8145" gradientUnits="userSpaceOnUse">
<stop stop-color="#61B12F"/>
<stop offset="1" stop-color="#C9CD00"/>
</linearGradient>
<linearGradient id="paint8_linear_5599_10875" x1="16.8694" y1="17.916" x2="30.2398" y2="42.1642" gradientUnits="userSpaceOnUse">
<stop stop-color="#7C8F9E"/>
<stop offset="1" stop-color="#96AAC4"/>
</linearGradient>
<linearGradient id="paint9_linear_5599_10875" x1="21.9962" y1="43.557" x2="71.7498" y2="43.557" gradientUnits="userSpaceOnUse">
<stop stop-color="#EBF3FB"/>
<stop offset="1" stop-color="#BBCCDB"/>
</linearGradient>
<linearGradient id="paint10_linear_5599_10875" x1="32.371" y1="49.6589" x2="50.206" y2="49.6589" gradientUnits="userSpaceOnUse">
<stop stop-color="#EBF3FB"/>
<stop offset="1" stop-color="#96B4C7"/>
</linearGradient>
<linearGradient id="paint11_linear_5599_10875" x1="31.5499" y1="27.9846" x2="48.5701" y2="27.9846" gradientUnits="userSpaceOnUse">
<stop stop-color="#96B4C7"/>
<stop offset="1" stop-color="#EBF3FB"/>
</linearGradient>
<linearGradient id="paint12_linear_5599_10875" x1="22.2249" y1="15.7616" x2="20.2231" y2="26.5796" gradientUnits="userSpaceOnUse">
<stop stop-color="#BAD4EC"/>
<stop offset="1" stop-color="#EBF3FB"/>
</linearGradient>
<linearGradient id="paint13_linear_5599_10875" x1="28.9802" y1="8.71145" x2="33.9667" y2="8.71145" gradientUnits="userSpaceOnUse">
<stop stop-color="#55819A"/>
<stop offset="1" stop-color="#EBF3FB"/>
</linearGradient>
<linearGradient id="paint14_linear_5599_10875" x1="20.1346" y1="15.854" x2="19.1206" y2="21.3673" gradientUnits="userSpaceOnUse">
<stop stop-color="#55819A"/>
<stop offset="1" stop-color="#EBF3FB"/>
</linearGradient>
<linearGradient id="paint15_linear_5599_10875" x1="1.57142" y1="53.1025" x2="55.8988" y2="53.1025" gradientUnits="userSpaceOnUse">
<stop stop-color="#AEC90B"/>
<stop offset="1" stop-color="#CED500"/>
</linearGradient>
<linearGradient id="paint16_linear_5599_10875" x1="28.0833" y1="10.8433" x2="39.261" y2="10.8433" gradientUnits="userSpaceOnUse">
<stop stop-color="#BAD4EC"/>
<stop offset="1" stop-color="#EBF3FB"/>
</linearGradient>
<linearGradient id="paint17_linear_5599_10875" x1="26.9155" y1="10.3018" x2="38.0917" y2="10.3018" gradientUnits="userSpaceOnUse">
<stop stop-color="white"/>
<stop offset="1" stop-color="white" stop-opacity="0"/>
</linearGradient>
<linearGradient id="paint18_linear_5599_10875" x1="48.7758" y1="17.0017" x2="44.8577" y2="25.6473" gradientUnits="userSpaceOnUse">
<stop stop-color="white"/>
<stop offset="1" stop-color="white" stop-opacity="0"/>
</linearGradient>
<linearGradient id="paint19_linear_5599_10875" x1="55.6329" y1="41.7721" x2="48.9725" y2="50.1215" gradientUnits="userSpaceOnUse">
<stop stop-color="white"/>
<stop offset="1" stop-color="white" stop-opacity="0"/>
</linearGradient>
<linearGradient id="paint20_linear_5599_10875" x1="17.5072" y1="70.6338" x2="31.4644" y2="67.1458" gradientUnits="userSpaceOnUse">
<stop stop-color="white"/>
<stop offset="1" stop-color="white" stop-opacity="0"/>
</linearGradient>
<linearGradient id="paint21_linear_5599_10875" x1="79.8432" y1="39.8707" x2="62.2402" y2="31.6923" gradientUnits="userSpaceOnUse">
<stop stop-color="white"/>
<stop offset="1" stop-color="white" stop-opacity="0"/>
</linearGradient>
<linearGradient id="paint22_linear_5599_10875" x1="54.0266" y1="68.6031" x2="57.7566" y2="68.6031" gradientUnits="userSpaceOnUse">
<stop stop-color="#BBCCDB"/>
<stop offset="1" stop-color="#EBF3FB"/>
</linearGradient>
<linearGradient id="paint23_linear_5599_10875" x1="19.8938" y1="27.0121" x2="10.3951" y2="49.0233" gradientUnits="userSpaceOnUse">
<stop offset="0.36" stop-color="#AD5C00"/>
<stop offset="1" stop-color="#FFDA00"/>
</linearGradient>
<linearGradient id="paint24_linear_5599_10875" x1="8.76497" y1="38.3667" x2="17.9754" y2="47.4913" gradientUnits="userSpaceOnUse">
<stop stop-color="#FFFBE0"/>
<stop offset="1" stop-color="#FFEC00"/>
</linearGradient>
<linearGradient id="paint25_linear_5599_10875" x1="4.36932" y1="42.8017" x2="13.5797" y2="51.9277" gradientUnits="userSpaceOnUse">
<stop stop-color="#FFFBE0"/>
<stop offset="1" stop-color="#C5D200"/>
</linearGradient>
<linearGradient id="paint26_linear_5599_10875" x1="9.55421" y1="49.464" x2="15.0311" y2="32.9022" gradientUnits="userSpaceOnUse">
<stop stop-color="#FFFBE0"/>
<stop offset="1" stop-color="#C5D200"/>
</linearGradient>
<radialGradient id="paint27_radial_5599_10875" cx="0" cy="0" r="1" gradientUnits="userSpaceOnUse" gradientTransform="translate(12.5799 49.2563) scale(3.98888 3.99442)">
<stop stop-color="#FFFBE0"/>
<stop offset="1" stop-color="#FFEC00" stop-opacity="0"/>
</radialGradient>
<linearGradient id="paint28_linear_5599_10875" x1="44.1978" y1="12.6389" x2="59.4786" y2="12.6389" gradientUnits="userSpaceOnUse">
<stop stop-color="#55819A"/>
<stop offset="1" stop-color="#EBF3FB"/>
</linearGradient>
<linearGradient id="paint29_linear_5599_10875" x1="56.6729" y1="35.5742" x2="67.5459" y2="35.5742" gradientUnits="userSpaceOnUse">
<stop stop-color="#EBF3FB"/>
<stop offset="1" stop-color="#BBCCDB"/>
</linearGradient>
</defs>
</svg>
