<svg width="34" height="33" viewBox="0 0 34 33" fill="none" xmlns="http://www.w3.org/2000/svg">
<rect width="34" height="33" rx="16.5" fill="url(#paint0_linear_5599_13157)"/>
<path d="M14.1705 16.5423C14.1705 15.0222 15.4394 13.7896 17.0051 13.7896C18.5708 13.7896 19.8404 15.0222 19.8404 16.5423C19.8404 18.0624 18.5708 19.2949 17.0051 19.2949C15.4394 19.2949 14.1705 18.0624 14.1705 16.5423ZM12.6378 16.5423C12.6378 18.8841 14.5931 20.7823 17.0051 20.7823C19.4171 20.7823 21.3724 18.8841 21.3724 16.5423C21.3724 14.2005 19.4171 12.3022 17.0051 12.3022C14.5931 12.3022 12.6378 14.2005 12.6378 16.5423ZM20.5246 12.1341C20.5246 12.3301 20.5843 12.5217 20.6964 12.6847C20.8085 12.8477 20.9678 12.9747 21.1543 13.0498C21.3408 13.1249 21.546 13.1446 21.744 13.1064C21.942 13.0683 22.1239 12.974 22.2667 12.8354C22.4094 12.6969 22.5067 12.5204 22.5462 12.3282C22.5856 12.136 22.5655 11.9368 22.4883 11.7557C22.4112 11.5746 22.2804 11.4198 22.1126 11.3108C21.9448 11.2019 21.7475 11.1437 21.5457 11.1436H21.5453C21.2747 11.1438 21.0152 11.2481 20.8239 11.4338C20.6325 11.6196 20.5249 11.8714 20.5246 12.1341ZM13.569 23.2635C12.7398 23.2269 12.2891 23.0928 11.9896 22.9795C11.5925 22.8294 11.3092 22.6507 11.0113 22.3618C10.7134 22.073 10.529 21.7982 10.3751 21.4127C10.2584 21.1221 10.1203 20.6844 10.0826 19.8793C10.0413 19.0089 10.0331 18.7474 10.0331 16.5423C10.0331 14.3372 10.042 14.0765 10.0826 13.2054C10.1203 12.4003 10.2595 11.9635 10.3751 11.672C10.5297 11.2865 10.7138 11.0114 11.0113 10.7222C11.3088 10.433 11.5918 10.254 11.9896 10.1045C12.289 9.99117 12.7398 9.85707 13.569 9.82048C14.4655 9.78044 14.7348 9.77245 17.0051 9.77245C19.2753 9.77245 19.5449 9.78111 20.4422 9.82048C21.2714 9.85714 21.7213 9.99223 22.0216 10.1045C22.4187 10.254 22.702 10.4334 22.9999 10.7222C23.2978 11.011 23.4815 11.2865 23.6361 11.672C23.7528 11.9626 23.891 12.4003 23.9287 13.2054C23.9699 14.0765 23.9781 14.3372 23.9781 16.5423C23.9781 18.7474 23.9699 19.0082 23.9287 19.8793C23.8909 20.6844 23.7521 21.1219 23.6361 21.4127C23.4815 21.7982 23.2974 22.0733 22.9999 22.3618C22.7024 22.6504 22.4187 22.8294 22.0216 22.9795C21.7222 23.0929 21.2714 23.227 20.4422 23.2635C19.5457 23.3036 19.2764 23.3116 17.0051 23.3116C14.7338 23.3116 14.4653 23.3036 13.569 23.2635ZM13.4986 8.33495C12.5932 8.37498 11.9745 8.51436 11.4342 8.71849C10.8746 8.92928 10.4009 9.21208 9.92756 9.67092C9.4542 10.1298 9.16367 10.5904 8.94655 11.1337C8.73631 11.6586 8.59274 12.2589 8.55151 13.1379C8.50959 14.0184 8.5 14.2998 8.5 16.5423C8.5 18.7847 8.50959 19.0662 8.55151 19.9466C8.59274 20.8257 8.73631 21.426 8.94655 21.9509C9.16367 22.4938 9.45427 22.955 9.92756 23.4136C10.4009 23.8723 10.8746 24.1547 11.4342 24.3661C11.9755 24.5702 12.5932 24.7096 13.4986 24.7496C14.4059 24.7896 14.6954 24.7996 17.0051 24.7996C19.3148 24.7996 19.6047 24.7903 20.5116 24.7496C21.4171 24.7096 22.0354 24.5702 22.576 24.3661C23.1352 24.1547 23.6093 23.8725 24.0826 23.4136C24.556 22.9548 24.8459 22.4938 25.0636 21.9509C25.2739 21.426 25.4181 20.8257 25.4587 19.9466C25.4999 19.0655 25.5095 18.7847 25.5095 16.5423C25.5095 14.2998 25.4999 14.0184 25.4587 13.1379C25.4175 12.2588 25.2739 11.6582 25.0636 11.1337C24.8459 10.5907 24.5552 10.1305 24.0826 9.67092C23.61 9.21135 23.1352 8.92928 22.5767 8.71849C22.0354 8.51436 21.417 8.37432 20.5123 8.33495C19.6054 8.29492 19.3155 8.28494 17.0058 8.28494C14.6961 8.28494 14.4059 8.29426 13.4986 8.33495Z" fill="white"/>
<defs>
<linearGradient id="paint0_linear_5599_13157" x1="33.3465" y1="33" x2="0.36122" y2="-0.984856" gradientUnits="userSpaceOnUse">
<stop stop-color="#FBE18A"/>
<stop offset="0.21" stop-color="#FCBB45"/>
<stop offset="0.38" stop-color="#F75274"/>
<stop offset="0.52" stop-color="#D53692"/>
<stop offset="0.74" stop-color="#8F39CE"/>
<stop offset="1" stop-color="#5B4FE9"/>
</linearGradient>
</defs>
</svg>
