<svg width="73" height="61" viewBox="0 0 73 61" fill="none" xmlns="http://www.w3.org/2000/svg">
<path d="M12.7643 49.332H14.6685C14.6685 51.1159 14.6685 52.9061 14.6685 54.6963C15.17 53.7885 15.792 52.9696 16.3569 52.0999H18.661L16.5029 54.5947C17.3407 55.8009 18.1659 57.0197 19.0101 58.2259C18.223 58.2259 17.4423 58.2259 16.6552 58.2259L15.1827 55.6866C15.0176 55.8834 14.8589 56.0738 14.7003 56.277V58.1814H12.7961L12.7643 49.332Z" fill="#35BBE3"/>
<path d="M48.2393 49.332H49.7944C49.7944 51.8713 49.7944 54.3535 49.7944 56.861C49.7944 57.3181 49.7944 57.7688 49.8388 58.2259H48.4615C48.4615 57.9021 48.4615 57.5911 48.3853 57.2673C48.0599 57.7823 47.5495 58.1529 46.9591 58.3029C46.3687 58.4529 45.7433 58.3708 45.2117 58.0735C44.8315 57.8451 44.5083 57.5332 44.2664 57.1615C44.0245 56.7898 43.8702 56.3679 43.8152 55.9278C43.6413 54.9742 43.8219 53.9898 44.323 53.16C44.538 52.8289 44.826 52.5514 45.1649 52.3489C45.5038 52.1464 45.8846 52.0243 46.278 51.9919C46.6465 51.9389 47.0225 51.9851 47.3672 52.1257C47.7119 52.2662 48.013 52.4962 48.2393 52.7918V49.332ZM46.5319 53.2171C46.3533 53.2609 46.1851 53.3395 46.037 53.4484C45.8888 53.5574 45.7637 53.6945 45.6687 53.852C45.3797 54.3737 45.2704 54.976 45.3576 55.566C45.3751 55.8209 45.4463 56.0693 45.5667 56.2947C45.687 56.5201 45.8537 56.7174 46.0558 56.8737C46.3211 57.053 46.6398 57.1357 46.9588 57.108C47.2777 57.0802 47.5774 56.9437 47.8077 56.7214C47.969 56.5457 48.0909 56.3375 48.1654 56.1109C48.2398 55.8843 48.265 55.6444 48.2393 55.4073C48.3093 54.8805 48.2415 54.3447 48.0425 53.852C47.8953 53.5966 47.6686 53.3964 47.397 53.2818C47.1255 53.1672 46.8239 53.1445 46.5382 53.2171H46.5319Z" fill="#35BBE3"/>
<path d="M19.9749 49.5162C20.2167 49.4127 20.4883 49.4028 20.737 49.4884C20.9857 49.5741 21.1937 49.7491 21.3205 49.9796C21.3743 50.0925 21.4054 50.215 21.4118 50.3399C21.4183 50.4649 21.4001 50.5899 21.3583 50.7078C21.3164 50.8257 21.2517 50.9342 21.1679 51.0271C21.0841 51.12 20.9828 51.1955 20.8698 51.2492C20.661 51.349 20.4261 51.3806 20.1983 51.3396C19.9705 51.2985 19.7614 51.187 19.6004 51.0207C19.5072 50.9034 19.4421 50.7662 19.4103 50.6198C19.3785 50.4733 19.3808 50.3216 19.417 50.1761C19.4532 50.0307 19.5223 49.8956 19.6191 49.7811C19.7158 49.6667 19.8375 49.576 19.9749 49.5162Z" fill="#35BBE3"/>
<path d="M0 49.7764C2.16442 49.7764 4.32249 49.7764 6.48691 49.7764V51.3825H4.18285V58.2258H2.27867V51.3825H0V49.7764Z" fill="#35BBE3"/>
<path d="M27.2108 49.7764H29.1975C30.1051 52.595 31.0255 55.4009 31.9395 58.2195H30.2638C30.0163 57.4196 29.756 56.6197 29.5021 55.8199H26.8363C26.5887 56.6197 26.3475 57.4196 26.1063 58.2195H24.5068L27.2108 49.7764ZM28.1311 51.046C27.8645 52.2776 27.4964 53.471 27.0902 54.6708H29.2356C28.9055 53.5789 28.512 52.5061 28.2454 51.3888C28.2238 51.2656 28.1854 51.146 28.1311 51.0333V51.046Z" fill="#35BBE3"/>
<path d="M6.41707 52.4998C7.23664 52.0981 8.14658 51.9166 9.05753 51.9729C9.41467 51.9678 9.76886 52.0381 10.097 52.1792C10.4251 52.3203 10.7198 52.5291 10.9617 52.7919C11.3834 53.4114 11.5723 54.1603 11.4949 54.9058C11.4578 56.0112 11.4875 57.1178 11.5837 58.2196C11.0125 58.2196 10.4349 58.2196 9.86364 58.2196C9.82555 58.0101 9.78747 57.7942 9.74304 57.5848C9.3475 58.0265 8.79693 58.2987 8.20584 58.3448C7.61475 58.3909 7.02864 58.2074 6.5694 57.8323C6.37398 57.6336 6.2221 57.3963 6.12347 57.1356C6.02483 56.8749 5.9816 56.5965 5.99653 56.3182C6.01146 56.0399 6.08423 55.7677 6.21018 55.5191C6.33614 55.2704 6.51252 55.0507 6.72808 54.8741C7.57674 54.3173 8.58455 54.0541 9.59705 54.125C9.61321 53.9463 9.56524 53.7677 9.46174 53.6211C9.35823 53.4745 9.20594 53.3696 9.03214 53.3251C8.25362 53.1697 7.44513 53.3052 6.75982 53.706C6.65826 53.3251 6.53132 52.9061 6.41707 52.4998ZM8.15622 55.6739C8.06365 55.7477 7.9889 55.8413 7.93752 55.9479C7.88614 56.0545 7.85946 56.1714 7.85946 56.2897C7.85946 56.4081 7.88614 56.5249 7.93752 56.6315C7.9889 56.7381 8.06365 56.8318 8.15622 56.9055C8.39184 57.0286 8.66616 57.055 8.92094 56.9792C9.17573 56.9033 9.39093 56.7312 9.52088 56.4992C9.73034 56.1437 9.61609 55.7057 9.64783 55.3184C9.12678 55.2705 8.60407 55.3906 8.15622 55.6612V55.6739Z" fill="#35BBE3"/>
<path d="M33.85 52.3981C34.3585 52.1482 34.9133 52.0067 35.4793 51.9827C36.0453 51.9586 36.6101 52.0525 37.1379 52.2584C37.0554 52.652 36.9538 53.0329 36.865 53.4265C36.562 53.281 36.2333 53.1971 35.8977 53.1797C35.5621 53.1622 35.2264 53.2116 34.91 53.3249C34.6481 53.4366 34.4174 53.6107 34.2382 53.832C34.059 54.0533 33.9366 54.3151 33.8817 54.5945C33.741 55.1918 33.8389 55.8205 34.1547 56.3466C34.2871 56.5442 34.4594 56.7118 34.6606 56.8387C34.8617 56.9655 35.0873 57.0488 35.3226 57.083C35.8581 57.1564 36.4035 57.0863 36.903 56.8799C36.9729 57.2608 37.0427 57.648 37.1189 58.0289C36.3621 58.3144 35.5456 58.4039 34.745 58.2892C33.9887 58.1797 33.3053 57.7787 32.8408 57.1719C32.5845 56.7865 32.4072 56.3541 32.3189 55.8998C32.2307 55.4454 32.2333 54.978 32.3267 54.5247C32.4042 54.0784 32.5814 53.6554 32.8452 53.2871C33.1089 52.9189 33.4524 52.615 33.85 52.3981Z" fill="#35BBE3"/>
<path d="M38.0392 52.5125C38.9078 52.0694 39.8934 51.9095 40.8574 52.0555C41.1957 52.0918 41.5201 52.2103 41.8021 52.4006C42.0842 52.5909 42.3156 52.8473 42.476 53.1474C42.7621 53.9018 42.8643 54.7135 42.7743 55.5153C42.7436 56.4304 42.7732 57.3465 42.8632 58.2577H41.4668C41.4287 58.0228 41.397 57.7879 41.3589 57.5594C40.98 58.0188 40.4385 58.3141 39.8472 58.3839C39.256 58.4537 38.6606 58.2925 38.1852 57.9339C37.9851 57.7441 37.8277 57.5138 37.7235 57.2584C37.6193 57.003 37.5707 56.7283 37.5809 56.4526C37.5911 56.177 37.6599 55.9066 37.7827 55.6596C37.9055 55.4126 38.0795 55.1946 38.2931 55.0201C39.1665 54.4369 40.2104 54.1642 41.2573 54.2456C41.2721 53.9766 41.201 53.7098 41.0542 53.4838C40.9406 53.3537 40.7999 53.2499 40.6421 53.1797C40.4842 53.1095 40.3129 53.0747 40.1402 53.0775C39.5191 53.0571 38.905 53.2134 38.3693 53.5283L38.0392 52.5125ZM39.753 55.4772C39.6136 55.5313 39.4885 55.6166 39.3872 55.7267C39.286 55.8367 39.2114 55.9685 39.1691 56.112C39.1105 56.2998 39.1154 56.5017 39.1831 56.6865C39.2508 56.8712 39.3775 57.0285 39.5435 57.134C39.8442 57.2559 40.1801 57.2581 40.4823 57.14C40.7845 57.0219 41.03 56.7927 41.1684 56.4992C41.2721 56.0845 41.3021 55.6547 41.2573 55.2296C40.7441 55.2058 40.2316 55.2902 39.753 55.4772Z" fill="#35BBE3"/>
<path d="M52.0921 52.4996C52.4342 52.2676 52.8203 52.1084 53.2265 52.032C53.6327 51.9555 54.0503 51.9634 54.4533 52.0552C55.0252 52.1741 55.5283 52.5111 55.856 52.9947C56.3368 53.7761 56.5151 54.7064 56.3575 55.6102H52.2952C52.3004 55.9231 52.4011 56.227 52.5837 56.4811C52.7664 56.7352 53.0222 56.9275 53.3171 57.0322C54.1554 57.2608 55.0447 57.2164 55.856 56.9052C55.9322 57.2607 56.002 57.6162 56.0845 57.9717C55.2756 58.2796 54.4083 58.4033 53.5456 58.3336C53.1428 58.3102 52.7489 58.2053 52.3878 58.0252C52.0267 57.8452 51.7058 57.5938 51.4447 57.2861C50.9203 56.5508 50.706 55.6388 50.848 54.7468C50.89 54.3069 51.0221 53.8803 51.2362 53.4937C51.4502 53.1071 51.7416 52.7687 52.0921 52.4996ZM52.8665 53.3248C52.5422 53.635 52.3415 54.0523 52.3015 54.4993C53.1902 54.4993 54.0788 54.4993 54.9674 54.4993C54.9832 54.2589 54.9413 54.0183 54.8453 53.7975C54.7492 53.5766 54.6018 53.3819 54.4152 53.2296C54.1807 53.078 53.9039 53.0055 53.6252 53.0226C53.3465 53.0398 53.0806 53.1457 52.8665 53.3248Z" fill="#35BBE3"/>
<path d="M59.7913 52.1508C60.1184 52.0071 60.4769 51.9497 60.8325 51.9841C61.1881 52.0186 61.529 52.1437 61.8224 52.3476C62.0734 52.5473 62.2699 52.8071 62.3937 53.103C62.6985 52.616 63.1594 52.2467 63.7012 52.0556C64.0397 51.9444 64.4011 51.9229 64.7504 51.993C65.0997 52.063 65.4249 52.2224 65.6943 52.4555C66.188 52.9994 66.4499 53.7146 66.4242 54.4488V58.207H64.9072V54.7535C64.9328 54.3224 64.8071 53.8957 64.5517 53.5474C64.4068 53.3898 64.2149 53.2831 64.0046 53.243C63.7942 53.203 63.5766 53.2318 63.3839 53.3252C63.1666 53.4395 62.9859 53.6126 62.8624 53.8248C62.739 54.037 62.6777 54.2796 62.6857 54.525V58.207H61.175C61.175 57.0008 61.175 55.7947 61.175 54.5948C61.1945 54.1766 61.0512 53.767 60.7751 53.4522C60.5945 53.309 60.3708 53.2311 60.1404 53.2311C59.91 53.2311 59.6863 53.309 59.5057 53.4522C59.3341 53.5897 59.1951 53.7634 59.0985 53.961C59.002 54.1585 58.9503 54.375 58.9471 54.5948V58.2133H57.4365V54.6837C57.4365 53.8267 57.4365 52.9697 57.3857 52.1444H58.725C58.725 52.4491 58.7694 52.7793 58.7884 53.0586C59.0273 52.6649 59.3759 52.3494 59.7913 52.1508Z" fill="#35BBE3"/>
<path d="M19.4417 52.1001C20.0765 52.1001 20.7112 52.1001 21.3459 52.1001V58.2261H19.4417C19.4417 56.182 19.4354 54.1442 19.4417 52.1001Z" fill="#35BBE3"/>
<path d="M66.8939 52.1191H68.595C69.0837 53.611 69.6359 55.0838 70.0549 56.601C70.4547 55.0965 70.9054 53.611 71.3243 52.1191H72.9937C72.4393 53.63 71.885 55.1409 71.3307 56.6518C71.0011 57.6003 70.5757 58.5128 70.0612 59.3752C69.8072 59.7944 69.468 60.1556 69.0657 60.4355C68.6633 60.7155 68.2067 60.9079 67.7254 61.0003L67.37 59.6735C67.7662 59.5671 68.1341 59.3749 68.4478 59.1106C68.7615 58.8462 69.0133 58.5161 69.1853 58.1436C69.2615 57.9722 69.1472 57.8008 69.0901 57.6421C68.3538 55.8011 67.6217 53.9601 66.8939 52.1191Z" fill="#35BBE3"/>
<path d="M16.3125 5.4343L54.2692 0.000223323C54.6213 -0.0361079 54.9771 0.00159954 55.3138 0.110925C55.6504 0.22025 55.9605 0.398777 56.2241 0.635045C56.4895 0.85811 56.7063 1.13315 56.8613 1.44321C57.0163 1.75328 57.1062 2.09181 57.1255 2.43794C57.1255 5.0661 57.1255 7.68791 57.1255 10.3161C50.3703 15.6036 44.5624 22.0005 39.9497 29.2338C39.2706 28.5989 38.5978 27.9641 37.9694 27.2722C39.065 26.4466 39.8751 25.299 40.2861 23.9901C40.5247 23.2362 40.5619 22.4331 40.394 21.6603C40.178 20.7709 39.8383 19.9161 39.3848 19.121C39.0035 18.2456 38.4897 17.4342 37.8615 16.7151C37.5953 16.4216 37.2738 16.1837 36.9155 16.0148C36.5571 15.846 36.1689 15.7495 35.7732 15.7311C35.3487 15.715 34.9259 15.7932 34.5352 15.96C34.1445 16.1269 33.7956 16.3782 33.5136 16.696C33.0782 17.2575 32.8536 17.9539 32.8789 18.664C32.8974 19.3726 33.0525 20.071 33.3359 20.7208C33.9421 22.249 34.6813 23.7211 35.5447 25.1201C33.3613 26.3517 30.8541 26.8468 28.3914 27.1896C23.6355 27.8268 18.8051 27.6314 14.1163 26.6119C14.1163 20.3568 14.1163 14.1081 14.1163 7.86566C14.1473 7.26969 14.3825 6.70258 14.7825 6.25975C15.1825 5.81692 15.7228 5.52542 16.3125 5.4343ZM35.3543 11.2747C35.0244 11.6471 34.735 12.0535 34.4911 12.4872C34.4705 12.5339 34.4397 12.5754 34.401 12.6087C34.3623 12.642 34.3166 12.6662 34.2673 12.6796C34.218 12.693 34.1664 12.6952 34.1162 12.6861C34.0659 12.677 34.0184 12.6567 33.977 12.6268C33.5707 12.3792 33.1772 12.119 32.771 11.8714C32.2261 12.5745 31.748 13.3268 31.3428 14.1187L33.2851 15.3502C33.6307 14.9595 33.9348 14.534 34.1928 14.0806C34.212 14.0407 34.2393 14.0053 34.2731 13.9766C34.3068 13.948 34.3461 13.9267 34.3886 13.9141C34.431 13.9016 34.4756 13.898 34.5195 13.9037C34.5634 13.9094 34.6056 13.9243 34.6434 13.9473L35.9129 14.6646C36.1277 14.4292 36.3171 14.1717 36.4778 13.8965C36.7824 13.414 37.1125 12.9315 37.3474 12.4237C36.6936 12.0237 36.0335 11.6429 35.3607 11.2747H35.3543Z" fill="#35BBE3"/>
<path d="M60.3943 3.1743C60.5701 3.11382 60.7575 3.09524 60.9418 3.12005C61.126 3.14486 61.3018 3.21236 61.4554 3.31719C61.6089 3.42201 61.7358 3.56125 61.826 3.72381C61.9161 3.88637 61.9671 4.06775 61.9748 4.25349C61.9748 16.1331 61.9579 28.0085 61.924 39.8797C61.9594 40.1132 61.9425 40.3517 61.8744 40.5779C61.8064 40.804 61.6889 41.0122 61.5305 41.1874C61.3046 41.405 61.0031 41.5266 60.6895 41.5266C60.3758 41.5266 60.0744 41.405 59.8484 41.1874C60.1507 41.0981 60.4176 40.9168 60.6121 40.6688C60.8066 40.4208 60.9191 40.1184 60.9338 39.8035V4.25349C60.9361 4.04367 60.8884 3.83633 60.7945 3.64866C60.7007 3.46098 60.5635 3.29837 60.3943 3.1743Z" fill="#35BBE3"/>
<path d="M41.3398 32.1095C45.635 25.4064 50.9626 19.4245 57.1255 14.3853C57.1255 22.7141 57.1255 31.043 57.1255 39.3591C57.1428 39.8348 57.0635 40.3091 56.8922 40.7532C56.7209 41.1973 56.4612 41.6021 56.129 41.9429C55.7581 42.3431 55.2509 42.5899 54.7072 42.6348H38.3375C36.3233 44.5858 34.3091 46.5326 32.2949 48.4752L29.5974 42.6285H17.0424C16.75 42.6476 16.4562 42.6348 16.1665 42.5904C15.7749 42.5113 15.4071 42.3422 15.092 42.0965C14.777 41.8509 14.5234 41.5353 14.3512 41.1747C14.1464 40.7416 14.061 40.2617 14.1037 39.7845C14.1037 36.3501 14.1037 32.9157 14.1037 29.475C19.2987 30.7276 24.6868 30.9647 29.9718 30.1733C32.5753 29.8299 35.087 28.9825 37.3664 27.6784C38.5724 29.2528 39.9878 30.6621 41.3398 32.1095Z" fill="#35BBE3"/>
<path d="M35.4939 19.3621C35.8705 19.1305 36.2948 18.9878 36.7348 18.9449C37.1747 18.902 37.6187 18.96 38.0329 19.1145C38.328 19.1897 38.5841 19.3733 38.7501 19.6287C38.9043 19.9748 38.9269 20.3653 38.8136 20.7269C38.6248 21.5165 38.2799 22.2604 37.7992 22.9145C37.3184 23.5687 36.7116 24.12 36.0144 24.5359C35.6399 24.028 35.2781 23.5138 34.929 22.9869C34.5955 22.4275 34.455 21.774 34.5292 21.1269C34.5461 20.7789 34.6418 20.4393 34.8089 20.1336C34.976 19.828 35.2102 19.5642 35.4939 19.3621Z" fill="#35BBE3"/>
</svg>
