<svg width="33" height="33" viewBox="0 0 33 33" fill="none" xmlns="http://www.w3.org/2000/svg">
<rect width="33" height="33" rx="16.5" fill="#006699"/>
<path d="M12.7042 23.1869V14.2727H9.74383V23.1869H12.7045H12.7042ZM11.2246 13.0558C12.2567 13.0558 12.8993 12.3713 12.8993 11.5159C12.88 10.6409 12.2567 9.97552 11.2442 9.97552C10.2311 9.97552 9.56934 10.6409 9.56934 11.5158C9.56934 12.3712 10.2117 13.0557 11.2052 13.0557H11.2244L11.2246 13.0558ZM14.3427 23.1869H17.3028V18.2094C17.3028 17.9433 17.3222 17.6765 17.4004 17.4865C17.6143 16.954 18.1013 16.4027 18.9193 16.4027C19.9902 16.4027 20.4189 17.2201 20.4189 18.4186V23.1869H23.3789V18.0758C23.3789 15.3378 21.9187 14.0637 19.9711 14.0637C18.3743 14.0637 17.673 14.957 17.2834 15.5654H17.3031V14.273H14.3429C14.3815 15.1093 14.3427 23.1873 14.3427 23.1873L14.3427 23.1869Z" fill="white"/>
</svg>
