<svg width="59" height="59" viewBox="0 0 59 59" fill="none" xmlns="http://www.w3.org/2000/svg">
<path d="M2.70014 6.60658C18.1077 4.41079 33.5154 2.21647 48.923 0.0236296C49.3473 -0.0291119 49.778 0.0066614 50.1878 0.12869C50.5976 0.250718 50.9776 0.45635 51.3038 0.732596C51.6301 1.00884 51.8955 1.3497 52.0832 1.73364C52.271 2.11758 52.377 2.53625 52.3946 2.96322C52.3867 6.158 52.3946 9.35279 52.3946 12.5467C44.1684 18.9806 37.0948 26.7635 31.4754 35.5636C30.6493 34.7936 29.8319 34.013 29.0685 33.1794C30.4016 32.1744 31.3863 30.7774 31.8845 29.1846C32.1792 28.2693 32.227 27.2925 32.0232 26.3528C31.7962 25.2667 31.3022 24.2627 30.7862 23.2869C30.2375 22.2723 29.771 21.1818 28.9307 20.3615C28.2644 19.6762 27.3578 19.1756 26.385 19.1676C25.3636 19.1535 24.2909 19.5332 23.6326 20.3394C23.0839 21.0025 22.878 21.8864 22.8851 22.7315C22.8851 23.5942 23.1104 24.441 23.4391 25.234C24.1683 27.0834 25.0595 28.8649 26.1023 30.5577C23.4373 32.0589 20.388 32.6629 17.39 33.0744C11.6148 33.8691 5.70261 33.598 0.0078125 32.3679C0.0078125 24.7663 0.0078125 17.1643 0.0078125 9.56206C0.0634792 8.1086 1.25192 6.79555 2.70014 6.60658ZM25.899 13.7158C25.4938 14.1672 25.1402 14.6624 24.8449 15.1922C24.8195 15.2487 24.7818 15.2989 24.7346 15.339C24.6874 15.3792 24.6319 15.4084 24.5721 15.4246C24.5122 15.4407 24.4495 15.4434 24.3885 15.4323C24.3275 15.4213 24.2697 15.3969 24.2193 15.3609C23.728 15.0598 23.2473 14.7428 22.7552 14.4425C22.0911 15.2989 21.5083 16.2154 21.0145 17.1799C21.8027 17.6785 22.5911 18.1771 23.3799 18.6758C23.7983 18.1947 24.1677 17.6732 24.4826 17.119C24.5798 16.9265 24.8475 16.8267 25.0349 16.9539C25.5468 17.2482 26.061 17.5396 26.5776 17.8281C26.8542 17.5543 27.0539 17.2179 27.2677 16.8956C27.6406 16.3101 28.0011 15.7167 28.328 15.103C27.5257 14.6274 26.7161 14.165 25.899 13.7158Z" fill="#35BBE3"/>
<path d="M56.3802 3.83323C57.2682 3.48885 58.3285 4.21911 58.302 5.17454C58.2861 19.6238 58.2673 34.0724 58.2455 48.5205C58.2852 49.0856 58.1969 49.7081 57.7613 50.1099C57.2223 50.6706 56.2662 50.645 55.7148 50.1143C56.4588 49.9015 57.0553 49.2128 57.0615 48.4251C57.0615 34.0024 57.0615 19.5814 57.0615 5.16218C57.0827 4.6359 56.7973 4.1467 56.3802 3.83323Z" fill="#35BBE3"/>
<path d="M33.1804 39.0657C38.4068 30.9106 44.8902 23.6324 52.3908 17.5005C52.3908 27.6341 52.3801 37.7686 52.4022 47.9013C52.4216 48.4802 52.3239 49.057 52.115 49.5973C51.9061 50.1376 51.5903 50.6302 51.1864 51.0457C50.7296 51.5093 50.119 51.8546 49.4581 51.8881C42.8134 51.8952 36.1679 51.8828 29.5232 51.8943C27.0739 54.2649 24.6195 56.6335 22.1602 59C21.0657 56.63 19.9715 54.2599 18.8776 51.8899C13.7822 51.8899 8.68678 51.8899 3.59136 51.8899C3.23792 51.8828 2.87388 51.919 2.52309 51.8431C2.04642 51.7456 1.59886 51.5389 1.21558 51.2394C0.832293 50.9398 0.52372 50.5556 0.314095 50.1168C0.0668578 49.5902 -0.0373628 49.008 0.011904 48.4284C0.0180892 44.2473 0.011904 40.0653 0.011904 35.8833C6.31108 37.3844 12.9001 37.7094 19.3044 36.7301C22.4535 36.2833 25.5559 35.312 28.303 33.6943C29.8122 35.5884 31.5263 37.2997 33.1804 39.0657Z" fill="#35BBE3"/>
<path d="M26.0617 23.5516C26.9612 22.9741 28.1381 22.8876 29.1348 23.2541C29.4776 23.3715 29.8302 23.5472 30.0131 23.8775C30.2587 24.281 30.166 24.7738 30.0882 25.2126C29.8633 26.1794 29.4456 27.0909 28.8602 27.8928C28.2748 28.6946 27.5337 29.3703 26.6811 29.8794C26.2251 29.2613 25.7807 28.6343 25.3557 27.995C24.9192 27.3345 24.8193 26.5098 24.8723 25.7354C24.9315 24.8841 25.3309 24.0258 26.0617 23.5516Z" fill="#35BBE3"/>
<path d="M52.6334 3.13582C52.6281 2.33579 52.3135 1.56756 51.8382 0.928253C53.3226 1.97552 54.8094 3.01867 56.2986 4.05769C56.4603 4.17507 56.5925 4.32853 56.6845 4.50588C56.7766 4.68324 56.8259 4.87959 56.8287 5.07935C56.8491 14.1153 56.8358 23.1531 56.8393 32.1882C56.8331 37.6347 56.8605 43.0812 56.8499 48.5286C56.8499 48.9092 56.6388 49.258 56.3498 49.4937C55.9734 49.8178 55.4812 49.9353 55.0244 50.1039C53.7061 50.5657 52.386 51.0196 51.0703 51.4885C51.5517 51.0774 51.9399 50.5685 52.2089 49.9957C52.478 49.4228 52.6218 48.7993 52.6308 48.1666C52.6325 33.1551 52.6334 18.1449 52.6334 3.13582Z" fill="white"/>
<path d="M31.4753 35.5633C37.0936 26.7634 44.166 18.9806 52.391 12.5464V17.5001C44.8904 23.632 38.407 30.9103 33.1806 39.0654C31.5292 37.2993 29.8123 35.588 28.3067 33.6939C25.5596 35.3116 22.4573 36.283 19.3081 36.7298C12.9038 37.709 6.31922 37.3806 0.015625 35.8829C0.015625 34.7132 0.015625 33.5429 0.015625 32.372C5.71042 33.5994 11.6226 33.8732 17.3978 33.0785C20.3958 32.667 23.4451 32.063 26.1101 30.5618C25.0673 28.869 24.1761 27.0875 23.4469 25.2381C23.1182 24.4434 22.8973 23.5983 22.8929 22.7356C22.8858 21.8905 23.0917 21.0066 23.6404 20.3435C24.2987 19.5373 25.3714 19.1576 26.3928 19.1717C27.3648 19.1797 28.2722 19.6803 28.9385 20.3656C29.7752 21.1859 30.2418 22.2764 30.794 23.291C31.3056 24.2668 31.7996 25.2708 32.0311 26.3569C32.2348 27.2966 32.187 28.2734 31.8923 29.1887C31.3941 30.7815 30.4094 32.1785 29.0763 33.1835C29.8318 34.0127 30.6491 34.7933 31.4753 35.5633ZM26.0606 23.5542C25.3299 24.0283 24.9305 24.8866 24.8713 25.7379C24.8182 26.5123 24.9181 27.337 25.3546 27.9975C25.7796 28.6368 26.2241 29.2638 26.68 29.8819C27.5326 29.3728 28.2737 28.6971 28.8591 27.8953C29.4446 27.0934 29.8622 26.1819 30.0871 25.2151C30.1649 24.7736 30.2577 24.2835 30.012 23.88C29.8291 23.5497 29.4766 23.374 29.1337 23.2566C28.137 22.8875 26.9601 22.974 26.0606 23.5515V23.5542Z" fill="white"/>
<path d="M25.8969 13.7153C26.7134 14.1604 27.5222 14.6213 28.3233 15.0982C27.999 15.7119 27.6385 16.3053 27.263 16.8907C27.0492 17.213 26.8495 17.5494 26.5729 17.8232C26.0569 17.5347 25.5426 17.2433 25.0301 16.949C24.8428 16.8218 24.5751 16.9216 24.4779 17.1141C24.163 17.6683 23.7936 18.1898 23.3752 18.6709C22.5852 18.1746 21.7968 17.676 21.0098 17.175C21.5036 16.2105 22.0863 15.2941 22.7505 14.4377C23.24 14.7414 23.7224 15.0558 24.2146 15.356C24.2649 15.3921 24.3226 15.4166 24.3835 15.4277C24.4444 15.4389 24.507 15.4364 24.5669 15.4204C24.6267 15.4044 24.6822 15.3754 24.7295 15.3354C24.7768 15.2954 24.8146 15.2455 24.8402 15.1891C25.1365 14.6601 25.4909 14.1658 25.8969 13.7153Z" fill="white"/>
</svg>
