<svg width="94" height="98" viewBox="0 0 94 98" fill="none" xmlns="http://www.w3.org/2000/svg">
<path d="M46.9992 94.4512C72.9561 94.4512 93.9984 73.3076 93.9984 47.2256C93.9984 21.1436 72.9561 0 46.9992 0C21.0423 0 0 21.1436 0 47.2256C0 73.3076 21.0423 94.4512 46.9992 94.4512Z" fill="#1C2342"/>
<path d="M46.9992 2.90527C64.3007 2.90527 78.3244 19.1831 78.3244 39.26C78.3244 59.337 64.3007 75.6132 46.9992 75.6132C29.6976 75.6132 15.6755 59.337 15.6755 39.26C15.6755 19.1831 29.6993 2.90527 46.9992 2.90527C22.6389 2.90527 2.89111 22.7481 2.89111 47.2258C2.89111 71.7034 22.6389 91.5479 46.9992 91.5479C71.3595 91.5479 91.1088 71.7051 91.1088 47.2258C91.1088 22.7465 71.3611 2.90527 46.9992 2.90527Z" fill="url(#paint0_linear_5599_11249)"/>
<path opacity="0.44" d="M46.9992 4.38916C23.4592 4.38916 4.36829 23.572 4.36829 47.2254C4.36829 70.8789 23.4592 90.0617 46.9992 90.0617C70.5393 90.0617 89.6302 70.8789 89.6302 47.2254C89.6302 23.572 70.5393 4.38916 46.9992 4.38916Z" fill="url(#paint1_radial_5599_11249)"/>
<path d="M46.9992 75.6148C64.2996 75.6148 78.3244 59.3382 78.3244 39.26C78.3244 19.1818 64.2996 2.90527 46.9992 2.90527C29.6987 2.90527 15.674 19.1818 15.674 39.26C15.674 59.3382 29.6987 75.6148 46.9992 75.6148Z" fill="url(#paint2_radial_5599_11249)"/>
<path opacity="0.71" d="M46.9992 3.27592C51.1716 3.27579 55.2881 4.24089 59.0297 6.09645C62.7152 7.90419 66.0253 10.4955 68.8696 13.7956C71.7585 17.1719 74.0107 21.0491 75.5158 25.237C78.7666 34.2998 78.7666 44.2186 75.5158 53.2814C74.0107 57.4693 71.7585 61.3465 68.8696 64.7228C66.0253 68.0229 62.7216 70.6142 59.0297 72.422C55.2881 74.2777 51.1717 75.243 46.9992 75.243C42.8267 75.243 38.7102 74.2777 34.9687 72.422C31.2042 70.5516 27.857 67.9322 25.1304 64.7228C22.2415 61.3465 19.9893 57.4693 18.4842 53.2814C15.2311 44.219 15.2311 34.2994 18.4842 25.237C19.9893 21.0491 22.2415 17.1719 25.1304 13.7956C27.857 10.5862 31.2042 7.96685 34.9687 6.09645C38.7104 4.24149 42.8268 3.27643 46.9992 3.27592ZM46.9992 2.90527C29.6993 2.90527 15.6755 19.1831 15.6755 39.26C15.6755 59.337 29.6993 75.6132 46.9992 75.6132C64.2991 75.6132 78.3244 59.337 78.3244 39.26C78.3244 19.1831 64.3007 2.90527 46.9992 2.90527Z" fill="#233983"/>
<path opacity="0.36" d="M46.9992 18.838C54.4295 18.8383 61.5606 21.7798 66.8478 27.0256C72.1351 32.2714 75.1527 39.399 75.2472 46.8645C75.2472 46.7442 75.2472 46.6255 75.2472 46.5036C75.2472 42.7757 74.5165 39.0843 73.0967 35.6402C71.6769 32.1961 69.596 29.0667 66.9726 26.4307C64.3492 23.7947 61.2348 21.7037 57.8072 20.2771C54.3796 18.8505 50.7059 18.1162 46.9959 18.1162C43.2859 18.1162 39.6122 18.8505 36.1846 20.2771C32.757 21.7037 29.6426 23.7947 27.0192 26.4307C24.3959 29.0667 22.3149 32.1961 20.8951 35.6402C19.4754 39.0843 18.7446 42.7757 18.7446 46.5036C18.7446 46.6255 18.7446 46.7442 18.7446 46.8645C18.8391 39.3978 21.8577 32.2693 27.1463 27.0233C32.435 21.7774 39.5677 18.8365 46.9992 18.838Z" fill="#1C2342"/>
<path opacity="0.22" d="M46.9991 75.6148C57.2059 75.6148 65.4801 59.3382 65.4801 39.26C65.4801 19.1818 57.2059 2.90527 46.9991 2.90527C36.7924 2.90527 28.5182 19.1818 28.5182 39.26C28.5182 59.3382 36.7924 75.6148 46.9991 75.6148Z" fill="url(#paint3_radial_5599_11249)"/>
<path opacity="0.36" d="M22.6696 37.9075C20.0826 24.2226 32.008 5.50632 44.417 3.02881C28.3257 4.55206 15.6755 20.191 15.6755 39.26C15.6755 58.3291 28.3257 73.968 44.417 75.4896C32.0759 70.437 25.8018 54.4779 22.6696 37.9075Z" fill="#1C2342"/>
<path opacity="0.36" d="M71.3595 37.9075C73.9481 24.2275 62.0211 5.50632 49.6121 3.02881C65.7034 4.55206 78.3536 20.191 78.3536 39.26C78.3536 58.3291 65.7034 73.968 49.6121 75.4896C61.9516 70.437 68.2257 54.4779 71.3595 37.9075Z" fill="#1C2342"/>
<path opacity="0.05" d="M46.9992 11.2173C63.0889 11.2173 76.3425 25.2956 78.1206 43.4169C78.2532 42.0529 78.3244 40.6679 78.3244 39.2633C78.3244 19.1831 64.3007 2.90527 46.9992 2.90527C29.6976 2.90527 15.6755 19.1831 15.6755 39.26C15.6755 40.6646 15.7467 42.0497 15.8794 43.4136C17.6574 25.2923 30.911 11.2173 46.9992 11.2173Z" fill="#1C2342"/>
<g opacity="0.42">
<path opacity="0.42" d="M9.38363 46.8957C9.37175 39.8899 10.9991 32.9795 14.1343 26.7221C17.2695 20.4646 21.8248 15.0354 27.4326 10.8725C32.4788 6.1776 38.803 3.2644 45.7049 2.93764L45.8019 2.92139C22.003 3.55865 2.89111 23.1512 2.89111 47.2257C2.89111 71.7049 22.6389 91.5478 46.9991 91.5478C48.0939 91.5478 49.1795 91.5083 50.2559 91.4291C27.41 89.7482 9.38363 70.4516 9.38363 46.8957Z" fill="url(#paint4_linear_5599_11249)"/>
</g>
<g opacity="0.42">
<path opacity="0.42" d="M84.6892 46.8957C84.7027 39.8914 83.0778 32.9819 79.9454 26.7246C76.8131 20.4673 72.261 15.0373 66.6564 10.8725C61.6005 6.1776 55.2763 3.2644 48.3744 2.93764L48.2758 2.92139C72.0844 3.55865 91.1898 23.1512 91.1898 47.2257C91.1898 71.7049 71.4405 91.5478 47.0801 91.5478C45.9854 91.5478 44.8998 91.5083 43.8234 91.4291C66.6693 89.7482 84.6892 70.4516 84.6892 46.8957Z" fill="url(#paint5_linear_5599_11249)"/>
</g>
<path d="M46.9992 75.6131C62.602 75.6131 75.2505 62.9037 75.2505 47.2257C75.2505 31.5478 62.602 18.8384 46.9992 18.8384C31.3965 18.8384 18.7479 31.5478 18.7479 47.2257C18.7479 62.9037 31.3965 75.6131 46.9992 75.6131Z" fill="#1C2342"/>
<path d="M12.8928 64.3619C11.0662 60.3055 9.89838 55.9811 9.4338 51.5533C8.97484 47.1203 9.17605 42.6433 10.0308 38.27L10.1052 37.8587C10.1311 37.7221 10.1667 37.5888 10.1958 37.4523L10.3835 36.6394L10.5728 35.8266L10.6197 35.6234L10.6763 35.4234L10.7912 35.0219C10.953 34.4871 11.0921 33.9522 11.2507 33.419L11.7862 31.8405L11.9205 31.4471C11.9674 31.3154 12.0224 31.1886 12.0726 31.0585L12.3816 30.2847L12.6906 29.5109C12.7407 29.3808 12.799 29.2557 12.8524 29.1289L13.0255 28.7501C13.2585 28.2478 13.4801 27.7373 13.7244 27.2398L14.4897 25.7605C15.5451 23.8069 16.7429 21.9344 18.0732 20.1584C19.4139 18.3964 20.8763 16.7314 22.4496 15.1758C20.9239 16.7723 19.5042 18.4678 18.1994 20.2511L17.2562 21.6215C17.0944 21.8443 16.9537 22.0816 16.8064 22.3157L16.3664 23.0164L15.9279 23.717L15.5219 24.4388L15.1158 25.159L14.9119 25.5231C14.8456 25.6434 14.7873 25.7686 14.7242 25.8905C12.6913 29.8107 11.2346 34.0063 10.3997 38.3464C9.58625 42.6859 9.39069 47.1195 9.81886 51.5143C10.2507 55.9185 11.2851 60.2418 12.8928 64.3619Z" fill="url(#paint6_radial_5599_11249)"/>
<path d="M81.2285 64.3619C83.0549 60.3053 84.2232 55.981 84.6891 51.5533C85.1484 47.1202 84.9466 42.6432 84.0905 38.27L84.0177 37.8587C83.9902 37.7221 83.9562 37.5888 83.9255 37.4523L83.7378 36.6394L83.5485 35.8266L83.5016 35.6234L83.445 35.4234L83.3317 35.0219C83.1699 34.4871 83.0308 33.9522 82.8706 33.419L82.3367 31.8405L82.2008 31.4471C82.1539 31.3154 82.0989 31.1886 82.0487 31.0585L81.7397 30.2847L81.4307 29.5109C81.3822 29.3808 81.3223 29.2557 81.2689 29.1289L81.0958 28.7501C80.8628 28.2478 80.6412 27.7373 80.3969 27.2398L79.6333 25.7605C78.5773 23.8069 77.379 21.9344 76.0481 20.1584C74.7101 18.3967 73.2504 16.7317 71.6798 15.1758C73.2045 16.7732 74.6242 18.4685 75.93 20.2511L76.8651 21.6215C77.0269 21.8443 77.1676 22.0816 77.3149 22.3157L77.7549 23.0164L78.1934 23.717L78.5994 24.4388L79.0055 25.159L79.2094 25.5199C79.2757 25.6402 79.334 25.7654 79.3971 25.8873C81.43 29.8074 82.8867 34.003 83.7216 38.3431C84.5359 42.6825 84.7314 47.1163 84.3024 51.511C83.8709 55.9163 82.8365 60.2407 81.2285 64.3619Z" fill="url(#paint7_radial_5599_11249)"/>
<path d="M36.3617 5.12389C34.0169 6.24394 31.8156 7.64516 29.8061 9.29697L29.0602 9.91635L28.8742 10.0789L28.6962 10.2415L28.3419 10.5666L27.6333 11.2283C27.4003 11.4526 27.1819 11.6916 26.957 11.9224L26.284 12.6182L25.6481 13.3498C25.4378 13.5936 25.2194 13.8375 25.0155 14.0829L24.4202 14.847L24.1241 15.229C24.0238 15.3558 23.9219 15.481 23.8329 15.6159L23.278 16.4076L22.9981 16.8027L22.8589 17.001L22.7295 17.2058L22.2134 18.0187C21.8575 18.5568 21.5549 19.1274 21.2427 19.6899C20.9304 20.2523 20.6457 20.8278 20.3528 21.4082C20.06 21.9885 19.8076 22.577 19.5439 23.1655C19.2802 23.754 19.0585 24.362 18.8256 24.9635C18.5926 25.565 18.3968 26.186 18.1946 26.8021L17.8921 27.7288C17.795 28.0295 17.706 28.3384 17.6203 28.6473C17.2773 29.886 17.0103 31.154 16.7903 32.4269C16.5703 33.6998 16.4198 34.989 16.3049 36.2781C16.1901 37.5673 16.1431 38.8629 16.1545 40.1586C16.1545 40.8089 16.1836 41.4591 16.2014 42.1013C16.2192 42.7434 16.2709 43.4018 16.3421 44.0391C16.4133 44.6763 16.4861 45.3266 16.5654 45.9704L16.7191 46.9311L16.7951 47.4107L16.8874 47.8886C17.1139 49.168 17.4504 50.4231 17.7998 51.6748C18.5483 54.1755 19.5344 56.598 20.7444 58.909L20.6376 58.9708C19.2323 56.7398 18.0807 54.3574 17.2045 51.8683C17.0961 51.5561 16.999 51.2408 16.8971 50.9254L16.745 50.4539C16.6948 50.2914 16.6544 50.1288 16.6091 49.976L16.3405 49.0266C16.2596 48.7015 16.1787 48.3763 16.1075 48.061L15.9927 47.5733L15.894 47.0856C15.8293 46.7604 15.7646 46.4353 15.7063 46.1102C15.6044 45.4599 15.4895 44.8015 15.4167 44.1431C15.3439 43.4847 15.276 42.8247 15.2129 42.163L15.153 41.1698C15.1303 40.8446 15.1303 40.5065 15.119 40.1749C15.0888 38.8483 15.1158 37.5218 15.1999 36.1952C15.2857 34.8703 15.441 33.5503 15.6529 32.2384C15.8649 30.9264 16.1383 29.6259 16.4861 28.3368C16.5735 28.0116 16.6641 27.6865 16.766 27.3614L17.0766 26.4185C17.287 25.7926 17.4795 25.1635 17.7335 24.5457C17.9875 23.928 18.2011 23.3005 18.4858 22.699C18.7706 22.0975 19.0165 21.4797 19.332 20.8945C19.6474 20.3092 19.9306 19.7061 20.2784 19.1404C20.6263 18.5746 20.9401 17.9862 21.3171 17.4399L21.8655 16.6076L22.0031 16.419L22.1503 16.2191L22.4464 15.8175L23.0385 15.0177C23.1356 14.8828 23.244 14.7576 23.3491 14.6308L23.6727 14.2471L24.3102 13.4831C24.5286 13.2343 24.7599 12.9954 24.9832 12.7515L25.6595 12.0232L26.3713 11.3274C26.614 11.0998 26.847 10.8657 27.0945 10.6479L27.8517 9.99763L28.2286 9.6725L28.4179 9.50993L28.6153 9.36037L29.4048 8.77839C31.5222 7.20636 33.8474 5.93861 36.3131 5.01172L36.3617 5.12389Z" fill="url(#paint8_radial_5599_11249)"/>
<path d="M57.8276 5.12389C60.1751 6.24376 62.379 7.64497 64.3913 9.29697L65.1291 9.91635L65.3151 10.0789L65.4931 10.2415L65.8474 10.5666L66.5561 11.2283C66.789 11.4526 67.0058 11.6916 67.2323 11.9224L67.9054 12.6182L68.5412 13.3498C68.7515 13.5936 68.9683 13.8375 69.1738 14.0829L69.7675 14.847L70.0652 15.229C70.1639 15.3558 70.2658 15.481 70.3564 15.6159L70.9114 16.4076L71.1913 16.8027L71.3304 17.001L71.4598 17.2058L71.9759 18.0187C72.3319 18.5568 72.6344 19.1274 72.9466 19.6899C73.2589 20.2523 73.5436 20.8278 73.8365 21.4082C74.1293 21.9885 74.3817 22.577 74.6454 23.1655C74.9091 23.754 75.1308 24.362 75.3637 24.9635C75.5967 25.565 75.7925 26.186 75.9947 26.8021L76.2973 27.7288C76.3943 28.0295 76.4833 28.3384 76.5691 28.6473C76.912 29.886 77.179 31.154 77.399 32.4269C77.6191 33.6998 77.7679 34.989 77.8844 36.2781C78.0009 37.5673 78.0462 38.8629 78.0332 40.1586C78.0332 40.8089 78.0057 41.4591 77.9879 42.1013C77.9701 42.7434 77.9167 43.4018 77.8472 44.0391C77.7776 44.6763 77.7032 45.3266 77.6239 45.9704L77.4702 46.9311L77.3942 47.4107L77.302 47.8886C77.0755 49.168 76.7389 50.4231 76.3895 51.6748C75.6403 54.1752 74.6543 56.5977 73.445 58.909L73.5501 58.9708C74.9566 56.7405 76.1082 54.3579 76.9832 51.8683C77.0916 51.5561 77.1903 51.2408 77.2922 50.9254L77.4443 50.4539C77.4945 50.2914 77.5349 50.1288 77.5802 49.976L77.8472 49.0201C77.9281 48.695 78.0009 48.3698 78.0802 48.0545L78.195 47.5668L78.2921 47.0791C78.359 46.7539 78.4221 46.4288 78.4814 46.1037C78.5833 45.4534 78.6982 44.795 78.771 44.1366C78.8438 43.4782 78.9117 42.8182 78.9732 42.1565L79.0347 41.1633C79.0574 40.8381 79.0573 40.5 79.0687 40.1684C79.0989 38.8418 79.0719 37.5153 78.9878 36.1887C78.9037 34.8622 78.7521 33.5432 78.5332 32.2319C78.3215 30.9181 78.0439 29.6159 77.7016 28.3303C77.6142 28.0051 77.5236 27.68 77.4217 27.3549L77.111 26.412C76.9007 25.7861 76.7082 25.157 76.4542 24.5392C76.2002 23.9215 75.9866 23.2939 75.7003 22.6925C75.4139 22.091 75.1712 21.4732 74.8557 20.888C74.5402 20.3027 74.2571 19.6996 73.9093 19.1339C73.5614 18.5681 73.2476 17.9796 72.869 17.4334L72.3189 16.619L72.1814 16.4109L72.0342 16.2109L71.7381 15.8094L71.146 15.0096C71.0489 14.8746 70.9405 14.7495 70.8337 14.6227L70.5101 14.239L69.8921 13.4749C69.6737 13.2262 69.4423 12.9872 69.2191 12.7434L68.5428 12.0151L67.8261 11.3274C67.5834 11.0998 67.3504 10.8657 67.1013 10.6479L66.3457 9.99763L65.9688 9.6725L65.7795 9.50993L65.5821 9.36037L64.7845 8.77839C62.6667 7.20607 60.341 5.9383 57.8746 5.01172L57.8276 5.12389Z" fill="url(#paint9_radial_5599_11249)"/>
<path opacity="0.36" d="M55.7341 74.231C55.7341 74.231 62.4223 84.9376 75.1954 81.3124C75.1954 81.3124 69.5911 85.9569 65.4494 87.4655C65.4494 87.4655 55.4072 84.1882 52.4045 80.6523C49.4017 77.1165 50.1265 75.3462 50.1265 75.3462C50.1265 75.3462 51.5502 75.5445 55.7341 74.231Z" fill="#1C2342"/>
<path opacity="0.36" d="M38.261 74.231C38.261 74.231 31.5728 84.9376 18.8013 81.3124C18.8013 81.3124 24.404 85.9569 28.5457 87.4655C28.5457 87.4655 38.5879 84.1882 41.5906 80.6523C44.5934 77.1165 43.8686 75.3462 43.8686 75.3462C43.8686 75.3462 42.4449 75.5445 38.261 74.231Z" fill="#1C2342"/>
<path opacity="0.14" d="M91.0328 49.6738C90.8926 50.4423 90.7089 51.2022 90.4828 51.9498C90.2644 52.6992 90.0071 53.4356 89.7288 54.1655C89.1664 55.6265 88.4885 57.04 87.7016 58.3923C86.1402 61.129 84.0792 63.5452 81.6265 65.5143C80.3938 66.4927 79.0594 67.3343 77.6466 68.0243C76.2329 68.7058 74.752 69.2365 73.2282 69.6077C70.185 70.3523 67.022 70.4466 63.9513 70.0727C65.4946 70.1227 67.0395 70.075 68.5768 69.9296L69.1495 69.8743C69.3404 69.85 69.5313 69.8207 69.7206 69.7947L70.2917 69.7134C70.481 69.6858 70.6687 69.6435 70.858 69.6094L71.4226 69.5053C71.6119 69.4728 71.7963 69.4208 71.984 69.3801L72.5438 69.2501C72.7299 69.2078 72.9127 69.1493 73.0971 69.0989C74.5711 68.6933 76.0017 68.1428 77.3683 67.4553C78.7329 66.7696 80.0228 65.9431 81.2172 64.9892C83.6262 63.1034 85.634 60.7283 87.2664 58.1224C87.4735 57.7973 87.666 57.4721 87.8618 57.1324C88.0576 56.7926 88.2404 56.461 88.42 56.1196C88.7824 55.4379 89.1205 54.7437 89.4344 54.0371C89.7579 53.3332 90.0411 52.6147 90.3113 51.888C90.4456 51.5255 90.5717 51.1581 90.6931 50.789C90.8144 50.42 90.9341 50.0494 91.0328 49.6738Z" fill="url(#paint10_radial_5599_11249)"/>
<path opacity="0.14" d="M2.9834 49.6738C3.08209 50.0494 3.19696 50.4216 3.3183 50.789C3.43964 51.1564 3.55936 51.5336 3.70173 51.888C3.9703 52.6147 4.25828 53.3332 4.577 54.0371C4.89572 54.741 5.22415 55.4384 5.59303 56.1196C5.77099 56.461 5.96352 56.7959 6.14957 57.1324C6.33563 57.4689 6.53786 57.7973 6.74495 58.1224C8.37739 60.7235 10.3852 63.1035 12.7942 64.9892C13.9905 65.9406 15.282 66.7644 16.648 67.4472C18.0146 68.1344 19.4452 68.6849 20.9191 69.0908C21.1036 69.1412 21.2864 69.1997 21.4724 69.242L22.0322 69.372C22.2199 69.4127 22.4043 69.4647 22.5936 69.4972L23.1599 69.6012C23.3476 69.6354 23.5352 69.6777 23.7245 69.7053L24.2956 69.7866C24.4849 69.8126 24.6758 69.8418 24.8667 69.8662L25.4395 69.9215C26.9768 70.0668 28.5217 70.1146 30.065 70.0646C26.991 70.4385 23.8313 70.3442 20.7881 69.5996C19.2643 69.2284 17.7834 68.6977 16.3697 68.0162C14.9572 67.3288 13.6228 66.4899 12.3897 65.5143C9.93453 63.5433 7.87175 61.1242 6.30974 58.3842C5.52287 57.0318 4.84497 55.6184 4.28255 54.1574C4.00428 53.4275 3.74703 52.6943 3.52862 51.9416C3.3044 51.1967 3.12237 50.4395 2.9834 49.6738Z" fill="url(#paint11_radial_5599_11249)"/>
<path d="M51.5325 75.2261C51.6813 75.4764 51.8366 75.7252 52 75.9658C52.1635 76.2064 52.3236 76.4535 52.4984 76.6843C52.8397 77.1557 53.1924 77.6158 53.5694 78.0547C53.9463 78.4937 54.3282 78.9277 54.7359 79.3341C55.1436 79.7405 55.5594 80.1372 55.9962 80.5062C57.7419 81.9856 59.7626 83.1219 61.9532 83.6747C62.5002 83.8128 63.0551 83.917 63.6148 83.9868C64.1764 84.0534 64.7415 84.0876 65.307 84.0892H65.7325L66.158 84.0681C66.2988 84.0681 66.4412 84.0502 66.5819 84.0388C66.7227 84.0274 66.8667 84.0193 67.0074 83.9982L67.4313 83.9461C67.5721 83.9283 67.7128 83.9022 67.8536 83.8811C68.1367 83.8437 68.4166 83.7803 68.6981 83.7283C70.9389 83.2406 73.1036 82.366 75.1955 81.3174C73.2753 82.7019 71.1305 83.7409 68.8567 84.3883C67.7029 84.7093 66.515 84.8899 65.3184 84.9264C64.1127 84.9608 62.908 84.829 61.738 84.5346C60.5679 84.2398 59.4434 83.7858 58.3955 83.1853C57.3539 82.5907 56.3879 81.8713 55.5189 81.0427C55.0856 80.6307 54.6736 80.1966 54.2845 79.7422C53.8978 79.2902 53.5354 78.8204 53.1924 78.336C52.8494 77.8515 52.5453 77.3492 52.2492 76.8322C51.9581 76.3189 51.7014 75.7867 51.4807 75.2391L51.5325 75.2261Z" fill="url(#paint12_radial_5599_11249)"/>
<path d="M42.3721 75.2261C42.2249 75.4764 42.0679 75.7252 41.9045 75.9658C41.7411 76.2063 41.5809 76.4534 41.4078 76.6843C41.0665 77.1557 40.7122 77.6158 40.3352 78.0547C39.9582 78.4937 39.5764 78.9277 39.1687 79.3341C38.761 79.7405 38.3468 80.1372 37.9084 80.5062C36.1627 81.9856 34.142 83.1219 31.9514 83.6746C31.4044 83.8127 30.8495 83.917 30.2898 83.9868C29.7281 84.0535 29.1631 84.0877 28.5975 84.0892H28.172L27.7481 84.068C27.6058 84.068 27.465 84.0502 27.3226 84.0388C27.1803 84.0274 27.0395 84.0193 26.8987 83.9981L26.4749 83.9461C26.3325 83.9282 26.1917 83.9022 26.051 83.8811C25.7679 83.8437 25.4896 83.7803 25.2081 83.7283C22.9657 83.2406 20.801 82.366 18.7107 81.3174C20.6305 82.7025 22.7754 83.7416 25.0495 84.3883C26.2027 84.7092 27.3901 84.8899 28.5862 84.9264C29.7919 84.961 30.9966 84.8292 32.1665 84.5346C33.3371 84.2398 34.4622 83.7858 35.5107 83.1853C36.5516 82.5903 37.5169 81.8709 38.3856 81.0427C38.8194 80.6311 39.2314 80.197 39.6201 79.7422C40.0073 79.2902 40.3713 78.8215 40.7121 78.336C41.0487 77.8483 41.3674 77.3492 41.6554 76.8322C41.9471 76.3192 42.2038 75.787 42.4239 75.2391L42.3721 75.2261Z" fill="url(#paint13_radial_5599_11249)"/>
<path d="M75.1939 81.3091C75.1939 81.3091 66.2746 89.0229 56.2648 81.171C54.2635 79.6022 52.8948 77.9066 51.9807 76.1981C48.0687 66.4343 64.5791 53.8208 56.2033 33.1943C56.2033 33.1943 58.0428 41.4186 52.7087 47.0564C52.7087 47.0564 56.4784 57.0363 52.157 63.5975C52.157 63.5975 52.7136 54.5718 50.8627 50.2801C50.66 49.8187 50.2894 49.4526 49.8268 49.2567C49.3642 49.0609 48.8447 49.0501 48.3744 49.2266C44.3136 50.7385 33.3444 55.7602 32.7458 66.0019C32.7458 66.0019 36.9781 57.4428 42.6795 60.4925C46.9442 62.7684 44.4592 72.2916 41.0261 77.7733C40.0919 79.059 38.9794 80.2037 37.7224 81.1726C28.8241 88.1499 20.7881 82.8356 19.1168 81.566C27.0442 88.0658 36.9736 91.5948 47.2052 91.5489C57.4368 91.5029 67.3344 87.8848 75.2036 81.314L75.1939 81.3091Z" fill="url(#paint14_linear_5599_11249)"/>
<path d="M37.8 45.8585L37.4765 44.8002L37.6156 42.9941L42.1893 42.3048C42.1529 42.5399 42.1345 42.7774 42.1343 43.0152C42.1339 43.8053 42.3371 44.5821 42.724 45.2699C43.1109 45.9578 43.6684 46.5333 44.3422 46.9405C45.0161 47.3477 45.7833 47.5727 46.5694 47.5937C47.3554 47.6147 48.1335 47.4308 48.8279 47.0601C49.5223 46.6894 50.1093 46.1444 50.532 45.4782C50.9547 44.8119 51.1985 44.0471 51.2399 43.258C51.2812 42.469 51.1186 41.6827 50.7678 40.9755C50.4171 40.2684 49.8902 39.6645 49.2384 39.2226L49.4228 37.475L51.916 34.9698L47.5105 33.814L38.9762 38.3431L37.1545 43.0575L37.2726 44.7579L36.9911 45.9235L37.8 45.8585Z" fill="url(#paint15_linear_5599_11249)"/>
<path d="M51.8787 43.7661L49.0717 44.3335L51.2736 45.5527L51.8787 43.7661Z" fill="#1C2342"/>
<path opacity="0.06" d="M58.9019 89.9158C58.9019 89.9158 51.7946 86.2938 50.1783 82.9092C50.1783 82.9092 45.6644 86.7669 41.7913 88.0869C41.7913 88.0869 45.5641 90.8961 47.2823 91.5724C47.2823 91.574 54.1194 91.5073 58.9019 89.9158Z" fill="#1C2342"/>
<path d="M32.681 66.0022C32.681 65.9779 32.6681 63.5264 34.3814 60.3628C35.9621 57.448 39.3726 53.3091 46.6514 50.1504L46.6999 50.2642C39.4583 53.4082 36.0656 57.5195 34.4947 60.4148C32.7927 63.5507 32.804 65.9762 32.804 66.0006L32.681 66.0022Z" fill="url(#paint16_radial_5599_11249)"/>
<path opacity="0.19" d="M46.9992 91.5475C44.3298 90.3705 41.6781 88.1108 41.6781 88.1108C41.6781 88.1108 37.1367 89.7983 35.6709 90.0844C35.6709 90.086 41.3237 91.6873 46.9992 91.5475Z" fill="#1C2342"/>
<g opacity="0.31">
<path opacity="0.31" d="M59.5603 89.5596C55.9816 88.5679 53.0435 86.6594 50.8238 83.8844C49.0441 81.667 47.7337 78.8936 46.9069 75.6439C46.0531 72.165 45.7538 68.5721 46.0203 64.999L46.1433 65.012C45.8776 68.5715 46.1757 72.1507 47.0266 75.6163C48.3209 80.6932 51.547 87.2121 59.591 89.4344L59.5603 89.5596Z" fill="url(#paint17_radial_5599_11249)"/>
<path opacity="0.31" d="M34.6677 89.7256C34.3434 89.7301 34.0191 89.7127 33.697 89.6736L33.7148 89.5517C33.7407 89.5517 36.3972 89.9418 40.4937 88.5145C44.2763 87.1961 50.0942 84.0212 56.3327 76.3691L56.4281 76.4472C50.167 84.1252 44.3248 87.3131 40.5244 88.6397C37.8582 89.5598 35.8019 89.7256 34.6677 89.7256Z" fill="url(#paint18_radial_5599_11249)"/>
<path opacity="0.31" d="M46.97 91.6014C37.9633 86.4578 37.0508 83.1821 37.0168 83.0455L37.1366 83.0146C37.1447 83.0472 38.0846 86.3847 47.0299 91.4941L46.97 91.6014Z" fill="url(#paint19_radial_5599_11249)"/>
</g>
<path d="M56.4638 57.0869L56.3473 57.0446C58.9747 49.8104 58.7741 43.7141 58.1528 39.8841C57.4733 35.7272 56.1564 33.2497 56.1434 33.2188L56.2518 33.1587C56.2664 33.1831 57.5914 35.6752 58.2725 39.8516C58.9019 43.7093 59.0977 49.825 56.4638 57.0869Z" fill="url(#paint20_radial_5599_11249)"/>
<path d="M75.1939 81.3092C75.1939 81.3092 66.2746 89.0229 56.2648 81.171C54.2635 79.6022 52.8948 77.9066 51.9807 76.1981C48.0686 66.4343 64.579 53.8208 56.2033 33.1943C56.2033 33.1943 58.0428 41.4186 52.7087 47.0564C52.7087 47.0564 56.4783 57.0363 52.157 63.5975C52.157 63.5975 52.7136 54.5718 50.8627 50.2801C50.6786 49.86 50.3543 49.5175 49.9459 49.3119C49.5374 49.1062 49.0703 49.0502 48.6252 49.1535C47.3568 51.8423 44.1065 60.3234 46.4297 72.7988C48.3615 83.1722 54.7197 87.9809 58.6026 90.0016C64.6928 88.3347 70.355 85.3713 75.2052 81.3124L75.1939 81.3092Z" fill="url(#paint21_radial_5599_11249)"/>
<path opacity="0.18" d="M47.8454 34.6069L50.3854 35.4376L49.6169 36.4472L47.4587 38.7166L42.5743 41.3811L38.397 42.2622L39.8142 38.7605L47.8454 34.6069Z" fill="#1C2342"/>
<path d="M42.178 43.5923C42.296 44.5436 42.7084 45.4337 43.3571 46.1368C44.0058 46.8398 44.8579 47.3203 45.793 47.5104C46.7282 47.7005 47.6992 47.5906 48.5688 47.1961C49.4384 46.8017 50.1627 46.1427 50.6395 45.3122C46.7679 48.5229 43.4205 45.1578 42.178 43.5923Z" fill="url(#paint22_linear_5599_11249)"/>
<path d="M57.9927 28.8002L55.0093 29.2586L55.8862 32.1523L54.0143 29.7642L51.8868 31.2891L52.3269 24.4629L57.9927 28.8002Z" fill="url(#paint23_linear_5599_11249)"/>
<path d="M53.2603 23.0845C53.2421 23.0843 53.2241 23.081 53.2069 23.0748C53.1684 23.0598 53.1371 23.0306 53.1193 22.9931C53.1016 22.9556 53.0988 22.9127 53.1115 22.8732L53.6535 21.35C53.6734 21.3196 53.7028 21.2968 53.7372 21.2853C53.7715 21.2737 53.8086 21.2741 53.8427 21.2862C53.8768 21.2984 53.9059 21.3217 53.9252 21.3524C53.9446 21.3831 53.9532 21.4195 53.9495 21.4556L53.4076 22.9789C53.3963 23.0092 53.3763 23.0355 53.35 23.0543C53.3238 23.0732 53.2926 23.0837 53.2603 23.0845Z" fill="url(#paint24_linear_5599_11249)"/>
<path d="M51.6425 23.2306C51.6121 23.2301 51.5825 23.221 51.557 23.2043C51.5316 23.1876 51.5113 23.1641 51.4985 23.1363L50.5116 20.8783C50.4969 20.8588 50.4868 20.8361 50.482 20.8121C50.4772 20.7881 50.4779 20.7633 50.484 20.7396C50.4901 20.7159 50.5015 20.6938 50.5172 20.6751C50.533 20.6565 50.5528 20.6416 50.575 20.6317C50.5973 20.6217 50.6216 20.617 50.6459 20.6178C50.6703 20.6186 50.6942 20.6249 50.7158 20.6362C50.7373 20.6476 50.7561 20.6637 50.7706 20.6834C50.7851 20.7031 50.7951 20.7258 50.7996 20.7499L51.7865 23.0095C51.8021 23.048 51.8023 23.0911 51.7873 23.1298C51.7722 23.1685 51.743 23.1999 51.7056 23.2176C51.6856 23.2258 51.6642 23.2302 51.6425 23.2306Z" fill="url(#paint25_linear_5599_11249)"/>
<path d="M52.5485 23.0046C52.5083 23.0048 52.4694 22.9899 52.4395 22.9629C52.4096 22.9358 52.3907 22.8986 52.3867 22.8583L52.2379 20.9709C52.2298 20.9475 52.2271 20.9225 52.2301 20.8979C52.233 20.8733 52.2416 20.8496 52.255 20.8288C52.2685 20.808 52.2865 20.7906 52.3077 20.7779C52.3289 20.7652 52.3527 20.7575 52.3773 20.7554C52.4019 20.7534 52.4267 20.757 52.4496 20.7661C52.4726 20.7751 52.4933 20.7893 52.5099 20.8076C52.5266 20.8259 52.5389 20.8478 52.5459 20.8716C52.5528 20.8954 52.5543 20.9205 52.5501 20.9449L52.7119 22.8258C52.7142 22.8674 52.7006 22.9082 52.6738 22.94C52.647 22.9718 52.6091 22.992 52.5679 22.9965L52.5485 23.0046Z" fill="url(#paint26_linear_5599_11249)"/>
<path d="M50.4776 24.3459C50.4571 24.3459 50.4368 24.3421 50.4178 24.3345L48.9342 23.7038C48.8966 23.6866 48.8669 23.6557 48.8513 23.6173C48.8357 23.5789 48.8352 23.536 48.85 23.4973C48.8671 23.4591 48.8982 23.4291 48.9367 23.4133C48.9753 23.3976 49.0184 23.3974 49.0571 23.4128L50.5391 24.0419C50.5693 24.0586 50.5933 24.0846 50.6078 24.116C50.6222 24.1474 50.6263 24.1827 50.6194 24.2166C50.6126 24.2505 50.5951 24.2813 50.5696 24.3046C50.5441 24.3278 50.5119 24.3423 50.4776 24.3459Z" fill="url(#paint27_linear_5599_11249)"/>
<path d="M50.9014 23.7672C50.8799 23.7669 50.8587 23.7623 50.8389 23.7536C50.8192 23.745 50.8014 23.7325 50.7866 23.7168L49.5068 22.3301C49.4866 22.3164 49.4697 22.2983 49.4574 22.2771C49.4451 22.2559 49.4378 22.2321 49.4359 22.2077C49.434 22.1832 49.4377 22.1586 49.4466 22.1358C49.4556 22.113 49.4695 22.0925 49.4875 22.0758C49.5054 22.0592 49.5269 22.0468 49.5502 22.0397C49.5736 22.0326 49.5983 22.0309 49.6224 22.0347C49.6465 22.0385 49.6695 22.0478 49.6895 22.0618C49.7096 22.0758 49.7262 22.0942 49.7382 22.1155L51.0131 23.5022C51.0405 23.5337 51.0548 23.5746 51.053 23.6164C51.0511 23.6581 51.0334 23.6976 51.0034 23.7266C50.9751 23.7516 50.9391 23.766 50.9014 23.7672Z" fill="url(#paint28_linear_5599_11249)"/>
<g opacity="0.39">
<path opacity="0.39" d="M51.9661 17.6596L51.6506 17.3068C54.3444 14.8683 55.4704 12.2575 54.998 9.53288C54.5127 6.69122 52.3544 4.67214 52.047 4.54534C52.0627 4.55031 52.0791 4.55251 52.0955 4.55184V4.07715C52.4563 4.07715 54.1988 5.70281 55.0514 7.96899C55.9428 10.3165 56.1257 13.901 51.9661 17.6596Z" fill="url(#paint29_radial_5599_11249)"/>
</g>
<g opacity="0.39">
<path opacity="0.39" d="M54.5935 15.9431L54.257 15.618C58.8808 10.9036 54.6533 6.58255 54.4705 6.40048L54.8022 6.06396C54.8459 6.10298 59.5506 10.8792 54.5935 15.9431Z" fill="url(#paint30_radial_5599_11249)"/>
</g>
<g opacity="0.39">
<path opacity="0.39" d="M41.6052 17.9752C37.8469 14.5694 37.7708 11.2531 38.3694 9.07141C39.1234 6.32404 41.1328 4.4594 41.4272 4.40088L41.5194 4.86582C41.5317 4.86342 41.5436 4.8596 41.555 4.85444C41.3512 4.96011 39.0214 7.08973 38.617 10.2191C38.2788 12.8348 39.3919 15.3237 41.9223 17.6175L41.6052 17.9752Z" fill="url(#paint31_radial_5599_11249)"/>
</g>
<g opacity="0.39">
<path opacity="0.39" d="M38.9794 16.2566C34.0206 11.1927 38.7221 6.41645 38.7707 6.36768L39.1023 6.70581C38.9195 6.88951 34.692 11.204 39.3143 15.9315L38.9794 16.2566Z" fill="url(#paint32_radial_5599_11249)"/>
</g>
<path d="M46.7031 17.7212C50.5989 17.7212 53.757 14.5479 53.757 10.6333C53.757 6.71877 50.5989 3.54541 46.7031 3.54541C42.8073 3.54541 39.6492 6.71877 39.6492 10.6333C39.6492 14.5479 42.8073 17.7212 46.7031 17.7212Z" fill="url(#paint33_linear_5599_11249)"/>
<g opacity="0.36">
<path opacity="0.44" d="M50.2576 9.88077L46.2986 7.58371C46.0683 7.44972 45.807 7.37908 45.5408 7.37891C45.2747 7.37873 45.0133 7.44902 44.7828 7.58269C44.5523 7.71637 44.361 7.90871 44.228 8.14034C44.0951 8.37198 44.0252 8.63473 44.0255 8.90212V13.493C44.0252 13.7604 44.0951 14.0231 44.228 14.2548C44.361 14.4864 44.5523 14.6788 44.7828 14.8124C45.0133 14.9461 45.2747 15.0164 45.5408 15.0162C45.807 15.016 46.0683 14.9454 46.2986 14.8114L50.2576 12.5176C50.4881 12.3841 50.6795 12.192 50.8126 11.9606C50.9458 11.7291 51.0159 11.4665 51.0159 11.1992C51.0159 10.9319 50.9458 10.6693 50.8126 10.4378C50.6795 10.2064 50.4881 10.0142 50.2576 9.88077Z" fill="#1C2342"/>
</g>
<path d="M50.2576 9.21118L46.2986 6.91574C46.0683 6.78175 45.807 6.71112 45.5408 6.71094C45.2747 6.71076 45.0133 6.78105 44.7828 6.91472C44.5523 7.0484 44.361 7.24074 44.228 7.47238C44.0951 7.70401 44.0252 7.96676 44.0255 8.23415V12.8267C44.026 13.0937 44.0964 13.356 44.2296 13.5871C44.3627 13.8182 44.5541 14.0101 44.7843 14.1435C45.0146 14.2768 45.2757 14.3471 45.5415 14.3471C45.8073 14.3471 46.0684 14.2768 46.2986 14.1434L50.2576 11.8464C50.4873 11.7125 50.678 11.5203 50.8105 11.289C50.9431 11.0578 51.0128 10.7956 51.0128 10.5288C51.0128 10.2619 50.9431 9.99975 50.8105 9.76851C50.678 9.53727 50.4873 9.34508 50.2576 9.21118Z" fill="url(#paint34_linear_5599_11249)"/>
<path d="M50.2576 9.21118L46.2986 6.91574C46.0683 6.78175 45.807 6.71112 45.5408 6.71094C45.2747 6.71076 45.0133 6.78105 44.7828 6.91472C44.5523 7.0484 44.361 7.24074 44.228 7.47238C44.0951 7.70401 44.0252 7.96676 44.0255 8.23415V12.8267C44.026 13.0937 44.0964 13.356 44.2296 13.5871C44.3627 13.8182 44.5541 14.0101 44.7843 14.1435C45.0146 14.2768 45.2757 14.3471 45.5415 14.3471C45.8073 14.3471 46.0684 14.2768 46.2986 14.1434L50.2576 11.8464C50.4873 11.7125 50.678 11.5203 50.8105 11.289C50.9431 11.0578 51.0128 10.7956 51.0128 10.5288C51.0128 10.2619 50.9431 9.99975 50.8105 9.76851C50.678 9.53727 50.4873 9.34508 50.2576 9.21118Z" fill="url(#paint35_linear_5599_11249)"/>
<path d="M45.7292 7.11219L50.8271 10.0693C50.9615 10.1462 51.0786 10.2503 51.1708 10.3752C51.263 10.5 51.3283 10.6427 51.3626 10.7943C51.4201 10.5553 51.399 10.304 51.3024 10.0781C51.2059 9.85212 51.0391 9.66367 50.8271 9.54093L45.7292 6.58547C45.5567 6.48425 45.3606 6.43067 45.1608 6.43018C44.9611 6.42968 44.7647 6.48229 44.5917 6.58265C44.4188 6.68302 44.2753 6.82758 44.1758 7.00166C44.0764 7.17575 44.0245 7.37316 44.0255 7.57388V8.10222C44.0242 7.90136 44.0759 7.70374 44.1752 7.52943C44.2745 7.35512 44.418 7.21033 44.591 7.10977C44.7641 7.00921 44.9605 6.95646 45.1604 6.95689C45.3603 6.95731 45.5565 7.0109 45.7292 7.11219Z" fill="url(#paint36_radial_5599_11249)"/>
<path d="M88.3018 82.5841C88.0645 82.3446 87.7823 82.1548 87.4716 82.0256C87.1609 81.8964 86.8277 81.8304 86.4914 81.8314H84.2911C83.8078 81.8331 83.3329 81.9584 82.9111 82.1955C82.5309 82.4006 82.1997 82.6863 81.9404 83.0327L81.9145 83.0685L80.4454 85.2306L79.0185 83.1287C78.7519 82.7338 78.3945 82.4093 77.9765 82.1829C77.5585 81.9565 77.0924 81.8348 76.6176 81.8281H74.4221C73.848 81.8276 73.2905 82.0218 72.8398 82.3792C72.3896 82.021 71.8318 81.8267 71.2576 81.8281H68.8938C68.4212 81.8279 67.9578 81.9591 67.5548 82.2073C67.1519 82.4555 66.8252 82.811 66.611 83.2343C66.4879 82.9948 66.3291 82.7755 66.1402 82.5841C65.9029 82.3436 65.6203 82.1529 65.3089 82.0231C64.9976 81.8934 64.6637 81.8271 64.3266 81.8281H61.9645C61.3668 81.8264 60.7876 82.0365 60.3288 82.4215C59.8712 82.0394 59.2946 81.8311 58.6996 81.833H56.5026C56.0192 81.8347 55.5443 81.96 55.1225 82.1971C54.7423 82.4021 54.411 82.6878 54.1518 83.0344L54.1243 83.0701L52.6553 85.2323L51.2283 83.1303C50.9622 82.735 50.6048 82.4103 50.1867 82.1838C49.7687 81.9574 49.3023 81.8359 48.8274 81.8297H46.6352C46.1147 81.8288 45.6065 81.9883 45.1791 82.2866C44.7516 81.9883 44.2434 81.8288 43.723 81.8297H41.3544C40.9995 81.8278 40.6481 81.8998 40.3222 82.0411C39.988 81.8902 39.6257 81.8126 39.2593 81.8135H30.9353C30.5985 81.8121 30.2647 81.8779 29.9534 82.0071C29.6421 82.1363 29.3594 82.3264 29.1217 82.5662C29.0974 82.5906 29.0748 82.6182 29.0505 82.6442C28.8372 82.5235 28.6174 82.415 28.392 82.3191C27.5961 81.9812 26.7403 81.8086 25.8762 81.8119H21.0517C20.4832 81.8115 19.9306 82.0014 19.4815 82.3518C19.0323 82.7021 18.7122 83.1928 18.5715 83.7464C17.8942 83.127 17.1196 82.6244 16.279 82.2589C15.2717 81.8249 14.1871 81.6011 13.091 81.6011C11.995 81.6011 10.9103 81.8249 9.90299 82.2589C8.94072 82.6755 8.06692 83.2738 7.32895 84.0211C6.59896 84.7656 6.01304 85.6398 5.60106 86.5994C5.16984 87.6118 4.94751 88.7016 4.94751 89.8028C4.94751 90.904 5.16984 91.9938 5.60106 93.0062C6.01311 93.9672 6.59898 94.8431 7.32895 95.5894C8.06749 96.3353 8.9412 96.9323 9.90299 97.3483C10.9105 97.7816 11.9951 98.0051 13.091 98.0051C14.1869 98.0051 15.2715 97.7816 16.279 97.3483C17.1192 96.9844 17.8939 96.4834 18.5715 95.8657C18.7113 96.4195 19.0311 96.9105 19.4801 97.2609C19.929 97.6113 20.4816 97.8012 21.0501 97.8003H23.4187C24.0981 97.7998 24.7495 97.5284 25.2298 97.0455C25.71 96.5626 25.9798 95.9079 25.9798 95.2252V94.6693C26.7824 94.643 27.5757 94.4894 28.3305 94.2141C29.1471 93.9154 29.8934 93.4505 30.5228 92.8485C30.8447 92.5347 31.1287 92.1838 31.3689 91.8032V95.2252C31.3685 95.5635 31.4345 95.8986 31.5631 96.2112C31.6918 96.5238 31.8805 96.8078 32.1186 97.047C32.3566 97.2862 32.6393 97.4759 32.9504 97.6051C33.2615 97.7344 33.595 97.8007 33.9316 97.8003H36.2953C36.6472 97.8031 36.9957 97.7322 37.3188 97.5923C37.6419 97.4524 37.9325 97.2464 38.1721 96.9874C38.5194 96.6066 38.7448 96.1297 38.8192 95.6186C38.9082 96.2274 39.2131 96.7832 39.6778 97.1839C40.1425 97.5845 40.7357 97.8028 41.3479 97.7987H43.7165C44.2371 97.7992 44.7454 97.6392 45.1726 97.3402C45.5994 97.6399 46.1079 97.8 46.6287 97.7987H48.9972C49.3345 97.7998 49.6685 97.7333 49.9799 97.6033C50.2913 97.4732 50.5738 97.2821 50.8109 97.0411C51.0253 96.8255 51.2001 96.5734 51.327 96.2965C51.728 96.5441 52.1894 96.6752 52.6601 96.6752C53.1308 96.6752 53.5922 96.5441 53.9932 96.2965C54.1975 96.7455 54.5258 97.126 54.9391 97.3929C55.3524 97.6598 55.8333 97.8017 56.3246 97.8019H58.6932C59.2824 97.8021 59.8537 97.5984 60.311 97.225C60.7683 96.8517 61.0836 96.3315 61.2041 95.7519C61.2801 95.8365 61.3659 95.9145 61.4403 95.9974C62.1085 96.6496 62.9039 97.1556 63.7765 97.4833C65.6128 98.1508 67.6238 98.1508 69.4601 97.4833C70.3326 97.1554 71.128 96.6495 71.7963 95.9974C71.8481 95.947 71.8966 95.895 71.9451 95.8349C72.0822 96.392 72.4012 96.8869 72.8511 97.2405C73.3009 97.5941 73.8558 97.7861 74.427 97.7857H76.7955C77.1328 97.7869 77.4669 97.7206 77.7783 97.5905C78.0897 97.4604 78.3722 97.2692 78.6092 97.0281C78.8246 96.8133 78.9995 96.5611 79.1253 96.2835C79.5265 96.5319 79.9888 96.6626 80.46 96.6607C80.9306 96.6624 81.3922 96.5305 81.7915 96.2803C81.9948 96.7321 82.3235 97.1153 82.7382 97.3841C83.1529 97.6528 83.6359 97.7956 84.1293 97.7954H86.4914C87.1708 97.795 87.8223 97.5235 88.3025 97.0406C88.7828 96.5577 89.0525 95.903 89.0525 95.2203V84.4015C89.0525 84.0639 88.9862 83.7295 88.8574 83.4177C88.7286 83.1058 88.5398 82.8225 88.3018 82.5841Z" fill="#1C2342"/>
<path d="M13.0902 92.7961C13.4716 92.7981 13.8487 92.7143 14.1936 92.5506L14.2454 92.5229C13.8301 92.6107 13.4176 92.7001 13.0077 92.7912L13.0902 92.7961Z" fill="url(#paint37_linear_5599_11249)"/>
<g opacity="0.39">
<path opacity="0.39" d="M7.13158 90.5677C7.12658 89.7666 7.28746 88.9733 7.604 88.2381C7.90686 87.5249 8.34042 86.8753 8.88212 86.3231C9.4246 85.7752 10.0666 85.3371 10.7734 85.0323C11.5063 84.7191 12.2946 84.5576 13.091 84.5576C13.8875 84.5576 14.6757 84.7191 15.4086 85.0323C16.8402 85.6471 17.9807 86.7931 18.5926 88.2316C18.9043 88.968 19.065 89.7601 19.065 90.5604C19.065 91.3606 18.9043 92.1527 18.5926 92.8891C17.9807 94.3276 16.8402 95.4736 15.4086 96.0884C14.6757 96.4016 13.8875 96.5631 13.091 96.5631C12.2946 96.5631 11.5063 96.4016 10.7734 96.0884C10.0663 95.7843 9.42417 95.346 8.88212 94.7976C8.34159 94.2494 7.90807 93.6043 7.604 92.8956C7.28764 92.1609 7.12676 91.3682 7.13158 90.5677ZM10.2541 90.5677C10.2522 90.9578 10.327 91.3445 10.4741 91.7056C10.6157 92.0597 10.8214 92.3844 11.0808 92.6631C11.3393 92.9353 11.6467 93.156 11.9868 93.3134C12.3324 93.4751 12.709 93.5588 13.0902 93.5588C13.4714 93.5588 13.848 93.4751 14.1936 93.3134C14.5359 93.1549 14.8463 92.9345 15.1093 92.6631C15.372 92.3879 15.5806 92.0652 15.7241 91.7121C16.0184 90.9823 16.0184 90.166 15.7241 89.4362C15.5828 89.082 15.374 88.7589 15.1093 88.4852C14.845 88.2154 14.5349 87.9952 14.1936 87.8349C13.848 87.6733 13.4714 87.5895 13.0902 87.5895C12.709 87.5895 12.3324 87.6733 11.9868 87.8349C11.6478 87.9942 11.3407 88.2146 11.0808 88.4852C10.5513 89.0488 10.2556 89.7942 10.2541 90.5693V90.5677Z" fill="url(#paint38_linear_5599_11249)"/>
<path opacity="0.39" d="M25.5494 93.2437H24.1742C24.1243 93.2428 24.0748 93.2522 24.0286 93.2712C23.9824 93.2902 23.9406 93.3184 23.9056 93.3542C23.8699 93.3892 23.8416 93.4312 23.8227 93.4777C23.8038 93.5241 23.7946 93.5739 23.7956 93.6241V95.9845C23.7961 96.0345 23.7866 96.084 23.7678 96.1302C23.7491 96.1765 23.7213 96.2185 23.6863 96.2539C23.6512 96.2893 23.6095 96.3173 23.5635 96.3364C23.5176 96.3555 23.4684 96.3652 23.4187 96.3649H21.0501C21.0004 96.3658 20.9512 96.3564 20.9052 96.3374C20.8593 96.3184 20.8178 96.2901 20.7831 96.2544C20.7477 96.2192 20.7197 96.1771 20.7007 96.1307C20.6818 96.0844 20.6724 96.0346 20.6731 95.9845V85.1495C20.6727 85.0994 20.6822 85.0498 20.7011 85.0034C20.7199 84.9571 20.7478 84.915 20.7831 84.8796C20.8183 84.8441 20.8602 84.8161 20.9063 84.7972C20.9525 84.7782 21.0019 84.7687 21.0517 84.7691H25.8762C26.4369 84.7662 26.9925 84.8754 27.5108 85.0903C28.0291 85.3052 28.4996 85.6215 28.8952 86.0209C29.2805 86.4147 29.5903 86.8765 29.8093 87.3832C30.036 87.9078 30.1512 88.4742 30.1474 89.0462C30.1526 89.6106 30.0562 90.1713 29.8626 90.7011C29.6797 91.2047 29.3854 91.6599 29.0019 92.0326C28.5886 92.425 28.0989 92.7273 27.5636 92.9202C26.9169 93.1481 26.2347 93.2577 25.5494 93.2437ZM25.6643 87.6839H24.1758C24.1257 87.683 24.0759 87.6923 24.0294 87.7113C23.983 87.7303 23.9409 87.7586 23.9056 87.7945C23.8697 87.829 23.8414 87.8707 23.8225 87.9169C23.8035 87.9631 23.7944 88.0128 23.7956 88.0627V89.9192C23.7944 89.9691 23.8035 90.0188 23.8225 90.065C23.8414 90.1111 23.8697 90.1529 23.9056 90.1874C23.9409 90.2233 23.983 90.2515 24.0294 90.2705C24.0759 90.2896 24.1257 90.2989 24.1758 90.298H25.8697C26.271 90.298 26.5643 90.1695 26.7499 89.9127C26.8894 89.7167 26.9795 89.4896 27.0125 89.2509C27.0455 89.0122 27.0203 88.769 26.9391 88.5423C26.882 88.3826 26.7934 88.236 26.6787 88.1115C26.5577 87.9812 26.4119 87.8767 26.2499 87.8042C26.066 87.721 25.8659 87.6799 25.6643 87.6839Z" fill="url(#paint39_linear_5599_11249)"/>
<path opacity="0.39" d="M39.2593 87.6837H37.0493C36.9994 87.6833 36.95 87.6928 36.9039 87.7118C36.8578 87.7308 36.8158 87.7588 36.7806 87.7942C36.7454 87.8296 36.7175 87.8717 36.6986 87.9181C36.6797 87.9644 36.6703 88.0141 36.6707 88.0641V95.9844C36.6728 96.0842 36.6362 96.181 36.5688 96.2543C36.5331 96.2914 36.49 96.3205 36.4423 96.3395C36.3946 96.3586 36.3434 96.3672 36.2921 96.3648H33.9316C33.8818 96.3652 33.8324 96.3557 33.7862 96.3367C33.7401 96.3178 33.6982 96.2898 33.663 96.2543C33.6277 96.2189 33.5999 96.1768 33.581 96.1305C33.5621 96.0841 33.5526 96.0345 33.553 95.9844V88.0641C33.5552 87.9643 33.5186 87.8676 33.4511 87.7943C33.4153 87.7574 33.3722 87.7285 33.3245 87.7094C33.2768 87.6904 33.2257 87.6816 33.1745 87.6837H30.9353C30.8856 87.684 30.8364 87.6743 30.7904 87.6552C30.7445 87.6361 30.7028 87.6081 30.6677 87.5727C30.6326 87.5373 30.6049 87.4953 30.5862 87.449C30.5674 87.4028 30.5579 87.3533 30.5584 87.3033V85.1493C30.5579 85.0994 30.5674 85.0499 30.5862 85.0036C30.6049 84.9574 30.6326 84.9153 30.6677 84.88C30.7028 84.8446 30.7445 84.8165 30.7904 84.7975C30.8364 84.7784 30.8856 84.7687 30.9353 84.7689H39.2593C39.3106 84.7666 39.3617 84.7753 39.4094 84.7943C39.4571 84.8134 39.5002 84.8424 39.5359 84.8795C39.6034 84.9527 39.64 85.0495 39.6379 85.1493V87.2985C39.6403 87.3983 39.6037 87.4952 39.5359 87.5683C39.5007 87.6063 39.4577 87.6362 39.41 87.6561C39.3623 87.676 39.3109 87.6854 39.2593 87.6837Z" fill="url(#paint40_linear_5599_11249)"/>
<path opacity="0.39" d="M43.723 96.3647H41.3545C41.3034 96.367 41.2525 96.3583 41.2051 96.3392C41.1577 96.3201 41.1148 96.2911 41.0794 96.2541C41.0119 96.1808 40.9754 96.0841 40.9775 95.9843V85.1654C40.9754 85.0656 41.0119 84.9689 41.0794 84.8956C41.1148 84.8586 41.1577 84.8295 41.2051 84.8105C41.2525 84.7914 41.3034 84.7827 41.3545 84.785H43.723C43.7727 84.7848 43.8218 84.7945 43.8677 84.8136C43.9135 84.8327 43.9552 84.8607 43.9901 84.8962C44.025 84.9316 44.0526 84.9736 44.0712 85.0198C44.0898 85.0661 44.099 85.1156 44.0984 85.1654V95.9843C44.099 96.0341 44.0898 96.0836 44.0712 96.1298C44.0526 96.1761 44.025 96.2181 43.9901 96.2535C43.9552 96.2889 43.9135 96.317 43.8677 96.3361C43.8218 96.3552 43.7727 96.3649 43.723 96.3647Z" fill="url(#paint41_linear_5599_11249)"/>
<path opacity="0.39" d="M59.075 85.1656V95.9844C59.0754 96.0342 59.066 96.0836 59.0474 96.1297C59.0287 96.1758 59.0011 96.2178 58.9662 96.2532C58.9313 96.2885 58.8898 96.3166 58.844 96.3357C58.7983 96.3549 58.7492 96.3648 58.6997 96.3648H56.3311C56.2814 96.365 56.2321 96.3553 56.1862 96.3362C56.1403 96.3172 56.0985 96.2891 56.0635 96.2537C56.0284 96.2183 56.0007 96.1763 55.9819 96.1301C55.9631 96.0838 55.9537 96.0343 55.9541 95.9844V90.883C55.9566 90.8627 55.955 90.8421 55.9493 90.8224C55.9437 90.8027 55.9342 90.7843 55.9214 90.7684C55.9085 90.7525 55.8927 90.7393 55.8747 90.7297C55.8567 90.72 55.8369 90.7141 55.8166 90.7123C55.7707 90.7073 55.7243 90.7149 55.6824 90.7344C55.6405 90.7539 55.6047 90.7845 55.5788 90.8229L52.9238 95.1163C52.8972 95.1585 52.8597 95.1926 52.8152 95.2149C52.7707 95.2372 52.721 95.247 52.6715 95.2431C52.6199 95.245 52.5686 95.2345 52.5219 95.2124C52.4751 95.1904 52.4343 95.1574 52.4029 95.1163L49.748 90.8229C49.7266 90.7844 49.6942 90.7532 49.6549 90.7335C49.6157 90.7138 49.5714 90.7064 49.5279 90.7123C49.5069 90.7135 49.4863 90.719 49.4675 90.7286C49.4487 90.7381 49.4321 90.7515 49.4187 90.7679C49.4053 90.7842 49.3954 90.8032 49.3897 90.8236C49.384 90.844 49.3826 90.8653 49.3856 90.8863V95.9876C49.3862 96.0377 49.3768 96.0874 49.3579 96.1338C49.339 96.1802 49.311 96.2222 49.2755 96.2575C49.2409 96.2932 49.1994 96.3215 49.1534 96.3405C49.1075 96.3595 49.0582 96.3689 49.0086 96.368H46.6352C46.5855 96.3689 46.5362 96.3595 46.4903 96.3405C46.4444 96.3215 46.4029 96.2932 46.3682 96.2575C46.3328 96.2222 46.3047 96.1802 46.2858 96.1338C46.2669 96.0874 46.2575 96.0377 46.2582 95.9876V85.1656C46.2578 85.1156 46.2672 85.0661 46.286 85.0199C46.3048 84.9736 46.3325 84.9316 46.3676 84.8962C46.4026 84.8608 46.4444 84.8328 46.4903 84.8137C46.5362 84.7946 46.5855 84.7849 46.6352 84.7852H48.8306C48.9445 84.7898 49.0555 84.8222 49.1542 84.8795C49.2555 84.9307 49.3419 85.0074 49.405 85.1022L52.4466 89.5744C52.4702 89.6119 52.5026 89.643 52.541 89.6651C52.5793 89.6872 52.6224 89.6996 52.6666 89.7012C52.7091 89.7007 52.7506 89.6887 52.7868 89.6663C52.823 89.644 52.8525 89.6122 52.8721 89.5744L55.9072 85.107C55.9784 85.0142 56.069 84.9382 56.1725 84.8843C56.2713 84.8272 56.3823 84.7949 56.4961 84.79H58.6932C58.7428 84.79 58.7918 84.7999 58.8376 84.8191C58.8833 84.8382 58.9249 84.8663 58.9597 84.9017C58.9946 84.937 59.0222 84.979 59.0409 85.0251C59.0596 85.0713 59.069 85.1206 59.0685 85.1704L59.075 85.1656Z" fill="url(#paint42_linear_5599_11249)"/>
<path opacity="0.39" d="M61.5811 85.1656C61.5804 85.1155 61.5898 85.0658 61.6087 85.0194C61.6276 84.973 61.6556 84.931 61.6911 84.8958C61.7257 84.86 61.7673 84.8318 61.8132 84.8128C61.8591 84.7937 61.9084 84.7844 61.9581 84.7852H64.3266C64.3763 84.7844 64.4256 84.7937 64.4715 84.8128C64.5174 84.8318 64.5589 84.86 64.5936 84.8958C64.629 84.931 64.6571 84.973 64.676 85.0194C64.6949 85.0658 64.7043 85.1155 64.7036 85.1656V91.5805C64.6908 91.932 64.7583 92.2818 64.901 92.603C65.0071 92.8342 65.1618 93.0396 65.3545 93.2049C65.5473 93.3702 65.7734 93.4915 66.0173 93.5605C66.4079 93.6883 66.8288 93.6883 67.2194 93.5605C67.4453 93.4957 67.6557 93.3851 67.8374 93.2354C68.0435 93.0631 68.2093 92.8471 68.3228 92.603C68.4661 92.282 68.5341 91.9321 68.5218 91.5805V85.1656C68.5211 85.1158 68.5304 85.0663 68.549 85.02C68.5676 84.9738 68.5951 84.9317 68.6301 84.8963C68.665 84.8609 68.7066 84.8329 68.7525 84.8138C68.7983 84.7947 68.8475 84.785 68.8971 84.7852H71.2657C71.3153 84.7844 71.3646 84.7937 71.4105 84.8128C71.4564 84.8318 71.498 84.86 71.5326 84.8958C71.5681 84.931 71.5961 84.973 71.615 85.0194C71.6339 85.0658 71.6433 85.1155 71.6426 85.1656V91.5805C71.6518 92.2778 71.5317 92.9708 71.2883 93.6239C71.0663 94.214 70.7203 94.7491 70.2739 95.1927C69.8181 95.6342 69.2768 95.9768 68.6836 96.199C67.3495 96.6737 65.8937 96.6737 64.5596 96.199C63.9667 95.9771 63.4258 95.6345 62.9708 95.1927C62.5224 94.7489 62.1733 94.2141 61.9467 93.6239C61.6983 92.972 61.5753 92.2786 61.5843 91.5805L61.5811 85.1656Z" fill="url(#paint43_linear_5599_11249)"/>
<path opacity="0.39" d="M86.8684 85.1656V95.9843C86.8691 96.0344 86.8597 96.0842 86.8408 96.1305C86.8219 96.1769 86.7939 96.219 86.7584 96.2542C86.7238 96.2899 86.6822 96.3182 86.6363 96.3372C86.5904 96.3562 86.5411 96.3656 86.4914 96.3647H84.1294C84.0797 96.3656 84.0304 96.3562 83.9845 96.3372C83.9386 96.3182 83.897 96.2899 83.8624 96.2542C83.8269 96.219 83.7989 96.1769 83.78 96.1305C83.7611 96.0842 83.7517 96.0344 83.7524 95.9843V90.883C83.7553 90.862 83.7539 90.8407 83.7482 90.8203C83.7425 90.7999 83.7326 90.7809 83.7193 90.7646C83.7059 90.7482 83.6893 90.7349 83.6704 90.7253C83.6516 90.7157 83.6311 90.7102 83.61 90.7091C83.5644 90.7042 83.5182 90.7119 83.4766 90.7313C83.435 90.7508 83.3995 90.7813 83.3738 90.8196L80.7189 95.113C80.692 95.1549 80.6544 95.1888 80.61 95.2111C80.5656 95.2335 80.516 95.2433 80.4665 95.2398C80.4149 95.2417 80.3636 95.2312 80.3169 95.2091C80.2702 95.1871 80.2294 95.1541 80.1979 95.113L77.543 90.8196C77.5213 90.781 77.4886 90.7498 77.4491 90.7301C77.4096 90.7104 77.3651 90.703 77.3213 90.7091C77.3003 90.7102 77.2797 90.7157 77.2609 90.7253C77.2421 90.7349 77.2255 90.7482 77.2121 90.7646C77.1987 90.7809 77.1889 90.7999 77.1832 90.8203C77.1775 90.8407 77.176 90.862 77.179 90.883V95.9843C77.1797 96.0344 77.1703 96.0842 77.1514 96.1305C77.1325 96.1769 77.1044 96.219 77.069 96.2542C77.0343 96.2899 76.9928 96.3182 76.9469 96.3372C76.9009 96.3562 76.8517 96.3656 76.802 96.3647H74.4221C74.3725 96.3647 74.3235 96.3549 74.2777 96.3357C74.232 96.3166 74.1904 96.2885 74.1556 96.2531C74.1207 96.2178 74.0931 96.1758 74.0744 96.1297C74.0557 96.0835 74.0463 96.0341 74.0468 95.9843V85.1656C74.0463 85.1158 74.0557 85.0664 74.0744 85.0202C74.0931 84.9741 74.1207 84.9321 74.1556 84.8968C74.1904 84.8614 74.232 84.8333 74.2777 84.8142C74.3235 84.795 74.3725 84.7852 74.4221 84.7852H76.6192C76.7331 84.7897 76.8441 84.8221 76.9428 84.8794C77.0446 84.9306 77.1315 85.0073 77.1952 85.1022L80.2465 89.5744C80.2704 89.612 80.303 89.6432 80.3417 89.6653C80.3803 89.6874 80.4237 89.6997 80.4681 89.7012C80.5105 89.7005 80.552 89.6884 80.5882 89.6661C80.6243 89.6438 80.6538 89.6121 80.6736 89.5744L83.7071 85.107C83.7793 85.0146 83.8703 84.9386 83.974 84.8843C84.0727 84.827 84.1837 84.7947 84.2976 84.79H86.4914C86.5411 84.7898 86.5904 84.7995 86.6363 84.8186C86.6823 84.8376 86.724 84.8657 86.7591 84.9011C86.7941 84.9365 86.8219 84.9785 86.8406 85.0247C86.8594 85.071 86.8688 85.1205 86.8684 85.1704V85.1656Z" fill="url(#paint44_linear_5599_11249)"/>
</g>
<path d="M7.13158 89.802C7.12676 89.0015 7.28763 88.2087 7.60399 87.474C7.90687 86.7632 8.33987 86.1158 8.8805 85.5655C9.42254 85.0171 10.0647 84.5789 10.7718 84.2747C11.5044 83.9604 12.2928 83.7983 13.0894 83.7983C13.886 83.7983 14.6744 83.9604 15.407 84.2747C16.8386 84.8896 17.9791 86.0355 18.591 87.474C18.9027 88.2104 19.0634 89.0025 19.0634 89.8028C19.0634 90.6031 18.9027 91.3951 18.591 92.1315C17.9791 93.57 16.8386 94.716 15.407 95.3308C14.6741 95.6441 13.8858 95.8055 13.0894 95.8055C12.293 95.8055 11.5047 95.6441 10.7718 95.3308C10.065 95.0261 9.42298 94.5879 8.8805 94.0401C8.34005 93.4896 7.90707 92.8423 7.60399 92.1315C7.28759 91.3963 7.12672 90.603 7.13158 89.802ZM10.2541 89.802C10.2522 90.1921 10.327 90.5788 10.4741 90.9399C10.6164 91.2917 10.8221 91.6141 11.0808 91.8909C11.3397 92.1626 11.647 92.3832 11.9868 92.5412C12.3324 92.7029 12.709 92.7866 13.0902 92.7866C13.4714 92.7866 13.848 92.7029 14.1936 92.5412C14.5356 92.3821 14.8459 92.1618 15.1093 91.8909C15.372 91.6157 15.5806 91.293 15.7241 90.9399C16.0184 90.2101 16.0184 89.3938 15.7241 88.664C15.5828 88.3097 15.374 87.9867 15.1093 87.713C14.8453 87.4428 14.5351 87.2226 14.1936 87.0627C13.848 86.9011 13.4714 86.8173 13.0902 86.8173C12.709 86.8173 12.3324 86.9011 11.9868 87.0627C11.6475 87.2215 11.3403 87.4419 11.0808 87.713C10.5517 88.2762 10.256 89.0209 10.2541 89.7955V89.802Z" fill="url(#paint45_linear_5599_11249)"/>
<path d="M25.5494 92.479H24.1742C24.1243 92.4782 24.0748 92.4875 24.0286 92.5065C23.9824 92.5255 23.9406 92.5538 23.9057 92.5896C23.8699 92.6246 23.8417 92.6666 23.8227 92.713C23.8038 92.7595 23.7946 92.8093 23.7956 92.8594V95.2199C23.7956 95.3205 23.756 95.417 23.6853 95.4883C23.6147 95.5596 23.5188 95.5999 23.4187 95.6003H21.0501C21.0003 95.6012 20.9509 95.5917 20.9049 95.5724C20.8589 95.5531 20.8175 95.5244 20.7832 95.4881C20.7476 95.4533 20.7195 95.4116 20.7006 95.3655C20.6816 95.3193 20.6723 95.2698 20.6731 95.2199V84.3849C20.6727 84.3348 20.6822 84.2851 20.7011 84.2388C20.72 84.1924 20.7478 84.1503 20.7831 84.1149C20.8183 84.0795 20.8602 84.0515 20.9063 84.0325C20.9525 84.0136 21.0019 84.004 21.0517 84.0044H25.8762C26.4369 84.0016 26.9925 84.1108 27.5108 84.3257C28.0291 84.5406 28.4997 84.8569 28.8952 85.2562C29.2805 85.6501 29.5904 86.1119 29.8093 86.6185C30.036 87.1432 30.1512 87.7096 30.1474 88.2816C30.1526 88.846 30.0562 89.4066 29.8627 89.9365C29.6793 90.4398 29.3851 90.895 29.002 91.2679C28.5885 91.6599 28.0988 91.9615 27.5637 92.1539C26.917 92.3825 26.2348 92.4926 25.5494 92.479ZM25.6643 86.9193H24.1758C24.1257 86.9184 24.0759 86.9277 24.0295 86.9467C23.983 86.9657 23.9409 86.994 23.9057 87.0298C23.8699 87.0641 23.8416 87.1056 23.8227 87.1515C23.8038 87.1974 23.7945 87.2467 23.7956 87.2964V89.1546C23.7944 89.2045 23.8036 89.2541 23.8225 89.3003C23.8414 89.3465 23.8698 89.3882 23.9057 89.4228C23.9409 89.4586 23.983 89.4869 24.0295 89.5059C24.0759 89.5249 24.1257 89.5342 24.1758 89.5333H25.8698C26.271 89.5333 26.5644 89.4044 26.7499 89.1464C26.8894 88.9507 26.9796 88.7239 27.0125 88.4855C27.0455 88.247 27.0203 88.0041 26.9392 87.7776C26.8818 87.617 26.7933 87.4695 26.6787 87.3436C26.5572 87.2143 26.4115 87.1105 26.25 87.0379C26.0659 86.9553 25.8658 86.9148 25.6643 86.9193Z" fill="url(#paint46_linear_5599_11249)"/>
<path d="M39.2593 86.9196H37.0493C36.9994 86.9191 36.95 86.9287 36.9039 86.9477C36.8578 86.9666 36.8158 86.9946 36.7806 87.03C36.7454 87.0654 36.7175 87.1076 36.6986 87.1539C36.6797 87.2003 36.6703 87.2499 36.6707 87.3V95.2202C36.6731 95.3196 36.6364 95.416 36.5688 95.4885C36.5335 95.5262 36.4905 95.5557 36.4427 95.5751C36.3949 95.5945 36.3435 95.6032 36.2921 95.6006H33.9316C33.8312 95.6006 33.7349 95.5606 33.6639 95.4892C33.5929 95.4179 33.553 95.3211 33.553 95.2202V87.2984C33.5552 87.1985 33.5186 87.1018 33.4511 87.0285C33.4153 86.9916 33.3722 86.9627 33.3245 86.9437C33.2768 86.9246 33.2257 86.9158 33.1745 86.918H30.9353C30.8856 86.9182 30.8364 86.9085 30.7904 86.8894C30.7445 86.8703 30.7028 86.8423 30.6677 86.8069C30.6326 86.7715 30.6049 86.7295 30.5862 86.6833C30.5674 86.637 30.5579 86.5875 30.5584 86.5376V84.3852C30.5579 84.3352 30.5674 84.2857 30.5862 84.2395C30.6049 84.1932 30.6326 84.1512 30.6677 84.1158C30.7028 84.0804 30.7445 84.0524 30.7904 84.0333C30.8364 84.0142 30.8856 84.0045 30.9353 84.0048H39.2593C39.3106 84.0024 39.3617 84.0111 39.4094 84.0302C39.4571 84.0492 39.5002 84.0782 39.5359 84.1153C39.6034 84.1886 39.64 84.2853 39.6379 84.3852V86.5392C39.64 86.639 39.6034 86.7358 39.5359 86.809C39.5002 86.8461 39.4571 86.8751 39.4094 86.8942C39.3617 86.9132 39.3106 86.9219 39.2593 86.9196Z" fill="url(#paint47_linear_5599_11249)"/>
<path d="M43.7229 95.6005H41.3544C41.3032 95.6029 41.2521 95.5941 41.2046 95.5747C41.1571 95.5554 41.1144 95.5259 41.0793 95.4883C41.0116 95.4158 40.975 95.3195 40.9774 95.2201V84.4013C40.9753 84.3014 41.0118 84.2047 41.0793 84.1314C41.1147 84.0944 41.1576 84.0654 41.205 84.0463C41.2524 84.0273 41.3033 84.0186 41.3544 84.0209H43.7229C43.7726 84.0206 43.8217 84.0304 43.8676 84.0494C43.9134 84.0685 43.9551 84.0966 43.99 84.132C44.0249 84.1674 44.0525 84.2095 44.0711 84.2557C44.0897 84.3019 44.0989 84.3514 44.0983 84.4013V95.2201C44.0987 95.2699 44.0893 95.3193 44.0707 95.3654C44.052 95.4115 44.0244 95.4535 43.9895 95.4889C43.9546 95.5242 43.9131 95.5523 43.8673 95.5715C43.8216 95.5906 43.7725 95.6005 43.7229 95.6005Z" fill="url(#paint48_linear_5599_11249)"/>
<path d="M59.075 84.4014V95.2202C59.075 95.3205 59.0356 95.4168 58.9653 95.488C58.895 95.5593 58.7995 95.5997 58.6997 95.6006H56.3311C56.231 95.6002 56.1351 95.5599 56.0645 95.4886C55.9938 95.4173 55.9541 95.3208 55.9541 95.2202V90.1189C55.9573 90.0978 55.9561 90.0764 55.9505 90.0559C55.9449 90.0354 55.9351 90.0163 55.9216 89.9999C55.9082 89.9835 55.8915 89.9701 55.8725 89.9607C55.8536 89.9512 55.8329 89.9458 55.8118 89.9449C55.7658 89.9395 55.7193 89.947 55.6773 89.9665C55.6354 89.986 55.5996 90.0168 55.5739 90.0555L52.919 94.3488C52.8924 94.391 52.8548 94.4251 52.8104 94.4475C52.7659 94.4698 52.7162 94.4796 52.6666 94.4756C52.615 94.4776 52.5637 94.467 52.517 94.445C52.4703 94.4229 52.4295 94.39 52.3981 94.3488L49.7431 90.062C49.7221 90.0231 49.6897 89.9917 49.6504 89.972C49.611 89.9522 49.5666 89.945 49.5231 89.9514C49.502 89.9523 49.4813 89.9577 49.4623 89.9672C49.4434 89.9766 49.4267 89.99 49.4132 90.0064C49.3998 90.0228 49.39 90.0419 49.3844 90.0624C49.3788 90.0829 49.3775 90.1044 49.3807 90.1254V95.2267C49.3816 95.2766 49.3722 95.3261 49.3533 95.3722C49.3344 95.4184 49.3063 95.4601 49.2707 95.4949C49.2364 95.5312 49.1949 95.5599 49.149 95.5792C49.103 95.5985 49.0536 95.608 49.0038 95.6071H46.6352C46.5854 95.608 46.5359 95.5985 46.49 95.5792C46.444 95.5599 46.4026 95.5312 46.3682 95.4949C46.3327 95.4601 46.3046 95.4184 46.2856 95.3722C46.2667 95.3261 46.2574 95.2766 46.2582 95.2267V84.4014C46.2578 84.3515 46.2672 84.3019 46.286 84.2557C46.3048 84.2094 46.3325 84.1674 46.3676 84.132C46.4027 84.0966 46.4444 84.0686 46.4903 84.0495C46.5362 84.0305 46.5855 84.0208 46.6352 84.021H48.8306C48.9446 84.0248 49.0559 84.0572 49.1542 84.1153C49.2555 84.1665 49.3419 84.2432 49.405 84.338L52.4401 88.8037C52.4635 88.8415 52.4958 88.8729 52.5342 88.895C52.5726 88.9172 52.6159 88.9294 52.6601 88.9305C52.7027 88.9304 52.7444 88.9185 52.7806 88.8961C52.8169 88.8738 52.8463 88.8418 52.8656 88.8037L55.9007 84.338C55.9719 84.2452 56.0625 84.1691 56.1661 84.1153C56.2645 84.0574 56.3757 84.025 56.4897 84.021H58.6867C58.7363 84.021 58.7854 84.0309 58.8311 84.05C58.8769 84.0692 58.9184 84.0972 58.9533 84.1326C58.9882 84.168 59.0158 84.2099 59.0344 84.2561C59.0531 84.3022 59.0625 84.3516 59.0621 84.4014H59.075Z" fill="url(#paint49_linear_5599_11249)"/>
<path d="M61.5811 84.4014C61.5804 84.3513 61.5898 84.3016 61.6087 84.2552C61.6276 84.2089 61.6556 84.1668 61.6911 84.1316C61.7257 84.0958 61.7673 84.0676 61.8132 84.0486C61.8591 84.0296 61.9084 84.0202 61.9581 84.021H64.3266C64.3763 84.0202 64.4256 84.0296 64.4715 84.0486C64.5174 84.0676 64.5589 84.0958 64.5936 84.1316C64.629 84.1668 64.6571 84.2089 64.676 84.2552C64.6949 84.3016 64.7043 84.3513 64.7036 84.4014V90.8163C64.6907 91.1673 64.7582 91.5166 64.901 91.8372C65.0134 92.0825 65.1792 92.2992 65.3863 92.4712C65.5722 92.6192 65.7848 92.7296 66.0124 92.7964C66.4034 92.9221 66.8236 92.9221 67.2145 92.7964C67.4402 92.7309 67.6504 92.6203 67.8325 92.4712C68.0391 92.2986 68.2048 92.0821 68.3179 91.8372C68.4612 91.5167 68.5293 91.1675 68.5169 90.8163V84.4014C68.5163 84.3516 68.5255 84.3021 68.5441 84.2559C68.5627 84.2096 68.5903 84.1676 68.6252 84.1322C68.6601 84.0968 68.7018 84.0687 68.7476 84.0496C68.7935 84.0305 68.8426 84.0208 68.8923 84.021H71.2608C71.3105 84.0202 71.3598 84.0296 71.4057 84.0486C71.4516 84.0676 71.4931 84.0958 71.5278 84.1316C71.5632 84.1668 71.5913 84.2089 71.6102 84.2552C71.6291 84.3016 71.6385 84.3513 71.6378 84.4014V90.8163C71.647 91.5137 71.5268 92.2066 71.2835 92.8598C71.0615 93.4499 70.7155 93.9849 70.2691 94.4285C69.8136 94.8701 69.2721 95.2122 68.6787 95.4332C67.3438 95.9086 65.8865 95.9063 64.5531 95.4267C63.96 95.206 63.419 94.8639 62.9644 94.422C62.5159 93.9782 62.1668 93.4434 61.9403 92.8533C61.6918 92.2013 61.5689 91.5079 61.5779 90.8098L61.5811 84.4014Z" fill="url(#paint50_linear_5599_11249)"/>
<path d="M86.8684 84.4014V95.2202C86.8693 95.2701 86.8599 95.3196 86.841 95.3657C86.8221 95.4119 86.794 95.4536 86.7584 95.4884C86.7241 95.5247 86.6826 95.5534 86.6367 95.5727C86.5907 95.592 86.5413 95.6015 86.4915 95.6006H84.1294C84.0796 95.6015 84.0301 95.592 83.9841 95.5727C83.9382 95.5534 83.8967 95.5247 83.8624 95.4884C83.8268 95.4536 83.7987 95.4119 83.7798 95.3657C83.7609 95.3196 83.7516 95.2701 83.7524 95.2202V90.1189C83.7556 90.0978 83.7544 90.0764 83.7488 90.0559C83.7432 90.0354 83.7333 90.0163 83.7199 89.9999C83.7064 89.9835 83.6897 89.9701 83.6708 89.9607C83.6519 89.9512 83.6311 89.9458 83.61 89.9449C83.5643 89.9396 83.5181 89.9472 83.4764 89.9667C83.4347 89.9862 83.3992 90.0169 83.3738 90.0555L80.7189 94.3488C80.692 94.3908 80.6544 94.4247 80.61 94.447C80.5656 94.4693 80.516 94.4792 80.4665 94.4756C80.4149 94.4776 80.3636 94.467 80.3169 94.445C80.2702 94.4229 80.2294 94.39 80.1979 94.3488L77.5365 90.062C77.515 90.0232 77.4824 89.9918 77.4428 89.9721C77.4032 89.9524 77.3586 89.9452 77.3149 89.9514C77.2937 89.9523 77.273 89.9577 77.2541 89.9672C77.2352 89.9766 77.2185 89.99 77.205 90.0064C77.1916 90.0228 77.1817 90.0419 77.1761 90.0624C77.1705 90.0829 77.1693 90.1044 77.1725 90.1254V95.2267C77.1733 95.2766 77.164 95.3261 77.1451 95.3722C77.1262 95.4184 77.0981 95.4601 77.0625 95.4949C77.0282 95.5312 76.9867 95.5599 76.9408 95.5792C76.8948 95.5985 76.8453 95.608 76.7955 95.6071H74.4221C74.3223 95.6062 74.2268 95.5658 74.1565 95.4945C74.0862 95.4233 74.0468 95.327 74.0468 95.2267V84.4014C74.0463 84.3516 74.0557 84.3022 74.0744 84.2561C74.0931 84.2099 74.1207 84.168 74.1556 84.1326C74.1904 84.0972 74.232 84.0692 74.2777 84.05C74.3235 84.0309 74.3726 84.021 74.4221 84.021H76.6192C76.7332 84.0248 76.8444 84.0572 76.9428 84.1153C77.0446 84.1665 77.1315 84.2432 77.1952 84.338L80.2465 88.8037C80.2702 88.8415 80.3028 88.8729 80.3415 88.895C80.3801 88.9172 80.4236 88.9293 80.4681 88.9305C80.5106 88.9302 80.5522 88.9182 80.5884 88.8959C80.6247 88.8735 80.6541 88.8417 80.6736 88.8037L83.7071 84.338C83.7793 84.2455 83.8703 84.1696 83.974 84.1153C84.0724 84.0572 84.1836 84.0248 84.2976 84.021H86.4915C86.5412 84.0208 86.5904 84.0305 86.6363 84.0495C86.6823 84.0686 86.724 84.0966 86.7591 84.132C86.7941 84.1674 86.8219 84.2094 86.8406 84.2557C86.8594 84.3019 86.8688 84.3515 86.8684 84.4014Z" fill="url(#paint51_linear_5599_11249)"/>
<path d="M11.9868 92.551C11.6467 92.3935 11.3393 92.1729 11.0808 91.9007C10.8221 91.6239 10.6164 91.3015 10.4741 90.9497C10.2578 90.4103 10.1999 89.8199 10.3075 89.2485C10.415 88.6772 10.6834 88.1487 11.0808 87.726C11.3398 87.4544 11.6471 87.2338 11.9868 87.0757C12.3321 86.913 12.7088 86.8286 13.0902 86.8286C13.4716 86.8286 13.8483 86.913 14.1936 87.0757C14.5355 87.2349 14.8458 87.4552 15.1093 87.726C15.3744 87.9993 15.5833 88.3225 15.7241 88.677C16.0184 89.4068 16.0184 90.2231 15.7241 90.9529C15.5806 91.306 15.372 91.6287 15.1093 91.904C14.8597 92.1624 14.5674 92.3752 14.2453 92.5331C15.7176 92.2231 17.2276 91.9321 18.7754 91.6601C19.2185 90.2916 19.1541 88.8083 18.5942 87.4838C17.9839 86.0413 16.8426 84.8916 15.4086 84.2747C14.676 83.9604 13.8876 83.7983 13.091 83.7983C12.2944 83.7983 11.506 83.9604 10.7734 84.2747C10.0663 84.5789 9.42413 85.0171 8.88208 85.5655C8.34019 86.1151 7.90654 86.7626 7.60396 87.474C7.29115 88.2102 7.12988 89.0023 7.12988 89.8028C7.12988 90.6032 7.29115 91.3954 7.60396 92.1315C7.87025 92.7551 8.23643 93.3307 8.68794 93.8353C10.0847 93.4679 11.5241 93.12 13.006 92.7916C12.6535 92.7824 12.3065 92.7005 11.9868 92.551Z" fill="url(#paint52_linear_5599_11249)"/>
<path d="M29.8627 89.9365C30.0563 89.4066 30.1527 88.8459 30.1475 88.2816C30.1513 87.7096 30.0361 87.1432 29.8094 86.6185C29.5904 86.1119 29.2806 85.6501 28.8953 85.2562C28.4997 84.8569 28.0292 84.5406 27.5109 84.3257C26.9926 84.1108 26.437 84.0016 25.8763 84.0044H21.0518C21.002 84.004 20.9526 84.0136 20.9064 84.0325C20.8603 84.0515 20.8184 84.0795 20.7832 84.1149C20.7479 84.1503 20.72 84.1924 20.7012 84.2388C20.6823 84.2851 20.6728 84.3348 20.6732 84.3849V91.3313C23.5983 90.8577 26.6346 90.4594 29.7819 90.1364C29.811 90.0714 29.8385 90.0048 29.8627 89.9365ZM26.75 89.1464C26.5644 89.4054 26.2711 89.5344 25.8698 89.5333H24.1759C24.1258 89.5342 24.076 89.5249 24.0295 89.5059C23.9831 89.4869 23.941 89.4586 23.9057 89.4228C23.8699 89.3882 23.8415 89.3465 23.8226 89.3003C23.8036 89.2541 23.7945 89.2045 23.7957 89.1545V87.298C23.7946 87.2484 23.8038 87.199 23.8228 87.1531C23.8417 87.1072 23.87 87.0657 23.9057 87.0314C23.941 86.9956 23.9831 86.9673 24.0295 86.9483C24.076 86.9293 24.1258 86.92 24.1759 86.9209H25.6644C25.8659 86.9164 26.066 86.9569 26.25 87.0396C26.4116 87.1121 26.5573 87.2159 26.6788 87.3452C26.7934 87.4711 26.8819 87.6186 26.9392 87.7792C27.0204 88.0057 27.0456 88.2486 27.0126 88.4871C26.9796 88.7255 26.8895 88.9524 26.75 89.148V89.1464Z" fill="url(#paint53_linear_5599_11249)"/>
<path d="M36.6739 87.2983C36.6735 87.2483 36.683 87.1986 36.7019 87.1523C36.7207 87.1059 36.7486 87.0638 36.7838 87.0284C36.8191 86.993 36.861 86.965 36.9071 86.946C36.9532 86.9271 37.0027 86.9175 37.0525 86.9179H39.2593C39.3106 86.9202 39.3617 86.9116 39.4094 86.8925C39.4571 86.8735 39.5002 86.8445 39.5359 86.8074C39.6034 86.7341 39.64 86.6374 39.6379 86.5375V84.3852C39.64 84.2853 39.6034 84.1886 39.5359 84.1153C39.5002 84.0782 39.4571 84.0492 39.4094 84.0302C39.3617 84.0111 39.3106 84.0024 39.2593 84.0048H30.9353C30.8856 84.0045 30.8364 84.0142 30.7904 84.0333C30.7445 84.0524 30.7028 84.0804 30.6677 84.1158C30.6326 84.1512 30.6049 84.1932 30.5862 84.2395C30.5674 84.2857 30.5579 84.3352 30.5584 84.3852V86.5392C30.5579 86.5891 30.5674 86.6386 30.5862 86.6849C30.6049 86.7311 30.6326 86.7731 30.6677 86.8085C30.7028 86.8439 30.7445 86.872 30.7904 86.891C30.8364 86.9101 30.8856 86.9198 30.9353 86.9196H33.1745C33.2257 86.9175 33.2768 86.9262 33.3245 86.9453C33.3722 86.9643 33.4153 86.9932 33.4511 87.0301C33.5186 87.1034 33.5552 87.2001 33.553 87.3V89.7937C34.5842 89.7114 35.6245 89.6371 36.6739 89.571V87.2983Z" fill="url(#paint54_linear_5599_11249)"/>
<path d="M44.0983 84.4013C44.0989 84.3514 44.0897 84.3019 44.0711 84.2557C44.0525 84.2095 44.0249 84.1674 43.99 84.132C43.9551 84.0966 43.9134 84.0685 43.8676 84.0494C43.8217 84.0304 43.7726 84.0206 43.7229 84.0209H41.3544C41.3033 84.0186 41.2524 84.0273 41.205 84.0463C41.1576 84.0654 41.1147 84.0944 41.0793 84.1314C41.0115 84.2045 40.975 84.3014 40.9774 84.4013V89.3514C42.0118 89.3113 43.0521 89.2788 44.0983 89.2539V84.4013Z" fill="url(#paint55_linear_5599_11249)"/>
<path d="M59.075 89.493V84.4014C59.0754 84.3516 59.066 84.3022 59.0474 84.2561C59.0287 84.2099 59.0011 84.168 58.9662 84.1326C58.9313 84.0972 58.8898 84.0692 58.844 84.05C58.7983 84.0309 58.7492 84.021 58.6997 84.021H56.5026C56.3886 84.0248 56.2774 84.0572 56.179 84.1153C56.0754 84.1691 55.9848 84.2452 55.9137 84.338L52.8721 88.8037C52.8524 88.8415 52.823 88.8733 52.7868 88.8956C52.7506 88.918 52.7091 88.93 52.6666 88.9305C52.6224 88.9289 52.5793 88.9165 52.541 88.8944C52.5026 88.8724 52.4702 88.8412 52.4466 88.8037L49.4114 84.338C49.3484 84.2432 49.262 84.1665 49.1607 84.1153C49.0623 84.0572 48.9511 84.0248 48.8371 84.021H46.6352C46.5855 84.0208 46.5362 84.0305 46.4903 84.0495C46.4443 84.0686 46.4026 84.0966 46.3675 84.132C46.3325 84.1674 46.3048 84.2094 46.286 84.2557C46.2672 84.3019 46.2578 84.3515 46.2582 84.4014V89.2166C47.0132 89.209 47.7682 89.2047 48.5232 89.2036C52.1198 89.2036 55.6419 89.3028 59.075 89.493Z" fill="url(#paint56_linear_5599_11249)"/>
<path d="M71.6393 84.4014C71.6398 84.3515 71.6303 84.3019 71.6115 84.2557C71.5928 84.2095 71.5651 84.1674 71.53 84.132C71.4949 84.0966 71.4532 84.0686 71.4073 84.0495C71.3613 84.0305 71.3121 84.0208 71.2624 84.021H68.8938C68.8442 84.0208 68.795 84.0305 68.7492 84.0496C68.7033 84.0686 68.6617 84.0967 68.6268 84.1321C68.5918 84.1675 68.5642 84.2096 68.5457 84.2558C68.5271 84.3021 68.5178 84.3515 68.5185 84.4014V90.2684C69.5701 90.3855 70.6104 90.5101 71.6393 90.6423V84.4014Z" fill="url(#paint57_linear_5599_11249)"/>
<path d="M64.7036 84.4014C64.704 84.3515 64.6945 84.3019 64.6758 84.2557C64.657 84.2094 64.6293 84.1674 64.5942 84.132C64.5591 84.0966 64.5174 84.0686 64.4715 84.0495C64.4255 84.0305 64.3763 84.0208 64.3266 84.021H61.9645C61.9148 84.0208 61.8656 84.0305 61.8196 84.0495C61.7737 84.0686 61.732 84.0966 61.6969 84.132C61.6618 84.1674 61.6341 84.2094 61.6153 84.2557C61.5966 84.3019 61.5871 84.3515 61.5875 84.4014V89.649C62.6381 89.7216 63.6789 89.8034 64.71 89.8945L64.7036 84.4014Z" fill="url(#paint58_linear_5599_11249)"/>
<path d="M77.1725 90.1188C77.1693 90.0978 77.1705 90.0764 77.1761 90.0559C77.1817 90.0354 77.1916 90.0163 77.205 89.9999C77.2185 89.9835 77.2352 89.9701 77.2541 89.9606C77.273 89.9512 77.2937 89.9458 77.3149 89.9449C77.3586 89.9386 77.4032 89.9459 77.4428 89.9656C77.4824 89.9853 77.515 90.0167 77.5365 90.0555L78.5509 91.6974C79.7039 91.9022 80.8364 92.119 81.9485 92.3476L83.3673 90.0619C83.3927 90.0234 83.4282 89.9927 83.4699 89.9732C83.5116 89.9537 83.5579 89.9461 83.6036 89.9514C83.6247 89.9523 83.6454 89.9577 83.6643 89.9671C83.6833 89.9766 83.7 89.99 83.7134 90.0064C83.7268 90.0228 83.7367 90.0419 83.7423 90.0624C83.7479 90.0829 83.7491 90.1043 83.7459 90.1254V92.7264C84.8094 92.9605 85.8502 93.2038 86.8684 93.4563V84.4014C86.8689 84.3515 86.8594 84.3019 86.8406 84.2557C86.8219 84.2094 86.7941 84.1674 86.7591 84.132C86.724 84.0966 86.6823 84.0686 86.6363 84.0495C86.5904 84.0305 86.5412 84.0208 86.4915 84.021H84.2912C84.1772 84.0248 84.0659 84.0572 83.9676 84.1153C83.8638 84.1696 83.7728 84.2455 83.7006 84.338L80.6671 88.8037C80.6474 88.8414 80.6178 88.8731 80.5817 88.8954C80.5455 88.9177 80.5041 88.9298 80.4616 88.9305C80.4172 88.929 80.3738 88.9167 80.3352 88.8946C80.2966 88.8726 80.2639 88.8413 80.24 88.8037L77.2049 84.338C77.1412 84.2432 77.0543 84.1665 76.9525 84.1153C76.8542 84.0571 76.7429 84.0246 76.6289 84.021H74.4221C74.3726 84.021 74.3235 84.0309 74.2777 84.05C74.232 84.0692 74.1904 84.0972 74.1556 84.1326C74.1207 84.168 74.0931 84.2099 74.0744 84.2561C74.0557 84.3022 74.0463 84.3516 74.0468 84.4014V90.9723C75.1016 91.1262 76.1419 91.2888 77.1676 91.46L77.1725 90.1188Z" fill="url(#paint59_linear_5599_11249)"/>
<defs>
<linearGradient id="paint0_linear_5599_11249" x1="46.9992" y1="3.01094" x2="46.9992" y2="93.159" gradientUnits="userSpaceOnUse">
<stop stop-color="#6DC7E9"/>
<stop offset="0.88" stop-color="#2854A1"/>
</linearGradient>
<radialGradient id="paint1_radial_5599_11249" cx="0" cy="0" r="1" gradientUnits="userSpaceOnUse" gradientTransform="translate(49.2384 -11.3928) scale(88.2566 88.6817)">
<stop offset="0.04" stop-color="#FBFBFB"/>
<stop offset="1" stop-color="#FBFBFB" stop-opacity="0"/>
</radialGradient>
<radialGradient id="paint2_radial_5599_11249" cx="0" cy="0" r="1" gradientUnits="userSpaceOnUse" gradientTransform="translate(46.9963 13.5351) rotate(3.31586) scale(32.5731 19.6374)">
<stop stop-color="#44A3DB"/>
<stop offset="1" stop-color="#273579"/>
</radialGradient>
<radialGradient id="paint3_radial_5599_11249" cx="0" cy="0" r="1" gradientUnits="userSpaceOnUse" gradientTransform="translate(46.4415 20.3422) scale(19.215 32.7246)">
<stop stop-color="#4694D0"/>
<stop offset="1" stop-color="#273579"/>
</radialGradient>
<linearGradient id="paint4_linear_5599_11249" x1="28.9211" y1="-3.89666" x2="26.497" y2="70.5939" gradientUnits="userSpaceOnUse">
<stop stop-color="#44A3DB" stop-opacity="0"/>
<stop offset="1" stop-color="#273579"/>
</linearGradient>
<linearGradient id="paint5_linear_5599_11249" x1="65.1583" y1="-3.89666" x2="67.5807" y2="70.5939" gradientUnits="userSpaceOnUse">
<stop stop-color="#44A3DB" stop-opacity="0"/>
<stop offset="1" stop-color="#273579"/>
</linearGradient>
<radialGradient id="paint6_radial_5599_11249" cx="0" cy="0" r="1" gradientUnits="userSpaceOnUse" gradientTransform="translate(15.8195 39.7721) scale(17.9276 18.014)">
<stop offset="0.04" stop-color="#FBFBFB"/>
<stop offset="1" stop-color="#FBFBFB" stop-opacity="0"/>
</radialGradient>
<radialGradient id="paint7_radial_5599_11249" cx="0" cy="0" r="1" gradientUnits="userSpaceOnUse" gradientTransform="translate(78.3018 39.7721) rotate(180) scale(17.9276 18.014)">
<stop offset="0.04" stop-color="#FBFBFB"/>
<stop offset="1" stop-color="#FBFBFB" stop-opacity="0"/>
</radialGradient>
<radialGradient id="paint8_radial_5599_11249" cx="0" cy="0" r="1" gradientUnits="userSpaceOnUse" gradientTransform="translate(16.656 30.6728) scale(25.729 25.853)">
<stop offset="0.04" stop-color="#FBFBFB"/>
<stop offset="1" stop-color="#FBFBFB" stop-opacity="0"/>
</radialGradient>
<radialGradient id="paint9_radial_5599_11249" cx="0" cy="0" r="1" gradientUnits="userSpaceOnUse" gradientTransform="translate(77.5333 30.6728) rotate(180) scale(25.729 25.853)">
<stop offset="0.04" stop-color="#FBFBFB"/>
<stop offset="1" stop-color="#FBFBFB" stop-opacity="0"/>
</radialGradient>
<radialGradient id="paint10_radial_5599_11249" cx="0" cy="0" r="1" gradientUnits="userSpaceOnUse" gradientTransform="translate(77.6401 60.0521) scale(12.168 12.2266)">
<stop offset="0.04" stop-color="#FBFBFB"/>
<stop offset="1" stop-color="#FBFBFB" stop-opacity="0"/>
</radialGradient>
<radialGradient id="paint11_radial_5599_11249" cx="0" cy="0" r="1" gradientUnits="userSpaceOnUse" gradientTransform="translate(16.3761 60.0521) scale(12.168 12.2266)">
<stop offset="0.04" stop-color="#FBFBFB"/>
<stop offset="1" stop-color="#FBFBFB" stop-opacity="0"/>
</radialGradient>
<radialGradient id="paint12_radial_5599_11249" cx="0" cy="0" r="1" gradientUnits="userSpaceOnUse" gradientTransform="translate(61.7914 83.6551) scale(10.6343 10.6855)">
<stop stop-color="#FBFBFB" stop-opacity="0.94"/>
<stop offset="0.03" stop-color="#FBFBFB"/>
<stop offset="1" stop-color="#FBFBFB" stop-opacity="0"/>
</radialGradient>
<radialGradient id="paint13_radial_5599_11249" cx="0" cy="0" r="1" gradientUnits="userSpaceOnUse" gradientTransform="translate(32.1148 83.6551) rotate(180) scale(10.6343 10.6855)">
<stop stop-color="#FBFBFB" stop-opacity="0.94"/>
<stop offset="0.03" stop-color="#FBFBFB"/>
<stop offset="1" stop-color="#FBFBFB" stop-opacity="0"/>
</radialGradient>
<linearGradient id="paint14_linear_5599_11249" x1="49.0507" y1="30.7152" x2="45.8034" y2="116.653" gradientUnits="userSpaceOnUse">
<stop stop-color="#6DC7E9"/>
<stop offset="1" stop-color="#2854A1"/>
</linearGradient>
<linearGradient id="paint15_linear_5599_11249" x1="44.8264" y1="30.5561" x2="41.5791" y2="116.492" gradientUnits="userSpaceOnUse">
<stop stop-color="#6DC7E9"/>
<stop offset="1" stop-color="#2854A1"/>
</linearGradient>
<radialGradient id="paint16_radial_5599_11249" cx="0" cy="0" r="1" gradientUnits="userSpaceOnUse" gradientTransform="translate(39.6929 58.0755) scale(7.46163 7.49756)">
<stop offset="0.04" stop-color="#FBFBFB"/>
<stop offset="1" stop-color="#FBFBFB" stop-opacity="0"/>
</radialGradient>
<radialGradient id="paint17_radial_5599_11249" cx="0" cy="0" r="1" gradientUnits="userSpaceOnUse" gradientTransform="translate(51.9903 77.4797) rotate(-13.9945) scale(10.0595 10.1023)">
<stop offset="0.04" stop-color="#FBFBFB"/>
<stop offset="1" stop-color="#FBFBFB" stop-opacity="0"/>
</radialGradient>
<radialGradient id="paint18_radial_5599_11249" cx="0" cy="0" r="1" gradientUnits="userSpaceOnUse" gradientTransform="translate(45.0436 83.0382) rotate(14.6171) scale(9.3056 9.34474)">
<stop offset="0.04" stop-color="#FBFBFB"/>
<stop offset="1" stop-color="#FBFBFB" stop-opacity="0"/>
</radialGradient>
<radialGradient id="paint19_radial_5599_11249" cx="0" cy="0" r="1" gradientUnits="userSpaceOnUse" gradientTransform="translate(42.0242 87.308) scale(4.65462 4.67703)">
<stop offset="0.04" stop-color="#FBFBFB"/>
<stop offset="1" stop-color="#FBFBFB" stop-opacity="0"/>
</radialGradient>
<radialGradient id="paint20_radial_5599_11249" cx="0" cy="0" r="1" gradientUnits="userSpaceOnUse" gradientTransform="translate(57.407 45.1268) scale(8.46467 8.50548)">
<stop offset="0.04" stop-color="#FBFBFB"/>
<stop offset="1" stop-color="#FBFBFB" stop-opacity="0"/>
</radialGradient>
<radialGradient id="paint21_radial_5599_11249" cx="0" cy="0" r="1" gradientUnits="userSpaceOnUse" gradientTransform="translate(57.9263 22.3089) scale(48.7918 49.0268)">
<stop offset="0.04" stop-color="#FBFBFB"/>
<stop offset="1" stop-color="#FBFBFB" stop-opacity="0"/>
</radialGradient>
<linearGradient id="paint22_linear_5599_11249" x1="46.7727" y1="28.6475" x2="45.6946" y2="74.6911" gradientUnits="userSpaceOnUse">
<stop stop-color="#6DC7E9"/>
<stop offset="1" stop-color="#2854A1"/>
</linearGradient>
<linearGradient id="paint23_linear_5599_11249" x1="51.7509" y1="28.5352" x2="57.8681" y2="28.5352" gradientUnits="userSpaceOnUse">
<stop stop-color="#F6A42C"/>
<stop offset="1" stop-color="#ECC10D"/>
</linearGradient>
<linearGradient id="paint24_linear_5599_11249" x1="53.1034" y1="22.1612" x2="53.9593" y2="22.1612" gradientUnits="userSpaceOnUse">
<stop stop-color="#F6A42C"/>
<stop offset="1" stop-color="#ECC10D"/>
</linearGradient>
<linearGradient id="paint25_linear_5599_11249" x1="50.7345" y1="22.3826" x2="51.5696" y2="21.5948" gradientUnits="userSpaceOnUse">
<stop stop-color="#F6A42C"/>
<stop offset="1" stop-color="#ECC10D"/>
</linearGradient>
<linearGradient id="paint26_linear_5599_11249" x1="52.0364" y1="22.1161" x2="52.9023" y2="21.7241" gradientUnits="userSpaceOnUse">
<stop stop-color="#F6A42C"/>
<stop offset="1" stop-color="#ECC10D"/>
</linearGradient>
<linearGradient id="paint27_linear_5599_11249" x1="42.4734" y1="26.3822" x2="41.8884" y2="27.0158" gradientUnits="userSpaceOnUse">
<stop stop-color="#F6A42C"/>
<stop offset="1" stop-color="#ECC10D"/>
</linearGradient>
<linearGradient id="paint28_linear_5599_11249" x1="51.5249" y1="22.2727" x2="50.6514" y2="22.6412" gradientUnits="userSpaceOnUse">
<stop stop-color="#F6A42C"/>
<stop offset="1" stop-color="#ECC10D"/>
</linearGradient>
<radialGradient id="paint29_radial_5599_11249" cx="0" cy="0" r="1" gradientUnits="userSpaceOnUse" gradientTransform="translate(53.7118 10.8692) scale(4.97657 5.00055)">
<stop offset="0.04" stop-color="#FBFBFB"/>
<stop offset="1" stop-color="#FBFBFB" stop-opacity="0"/>
</radialGradient>
<radialGradient id="paint30_radial_5599_11249" cx="0" cy="0" r="1" gradientUnits="userSpaceOnUse" gradientTransform="translate(55.6645 10.9995) scale(3.59976 3.6171)">
<stop offset="0.04" stop-color="#FBFBFB"/>
<stop offset="1" stop-color="#FBFBFB" stop-opacity="0"/>
</radialGradient>
<radialGradient id="paint31_radial_5599_11249" cx="0" cy="0" r="1" gradientUnits="userSpaceOnUse" gradientTransform="translate(38.5684 11.188) rotate(180) scale(4.96524 4.98917)">
<stop offset="0.04" stop-color="#FBFBFB"/>
<stop offset="1" stop-color="#FBFBFB" stop-opacity="0"/>
</radialGradient>
<radialGradient id="paint32_radial_5599_11249" cx="0" cy="0" r="1" gradientUnits="userSpaceOnUse" gradientTransform="translate(36.5704 11.3146) rotate(180) scale(3.59976 3.61711)">
<stop offset="0.04" stop-color="#FBFBFB"/>
<stop offset="1" stop-color="#FBFBFB" stop-opacity="0"/>
</radialGradient>
<linearGradient id="paint33_linear_5599_11249" x1="60.9711" y1="39.3865" x2="40.2215" y2="-2.02901" gradientUnits="userSpaceOnUse">
<stop stop-color="#44A3DB" stop-opacity="0"/>
<stop offset="1" stop-color="#273579"/>
</linearGradient>
<linearGradient id="paint34_linear_5599_11249" x1="47.2774" y1="19.1407" x2="43.8095" y2="157.001" gradientUnits="userSpaceOnUse">
<stop stop-color="#6DC7E9"/>
<stop offset="1" stop-color="#2854A1"/>
</linearGradient>
<linearGradient id="paint35_linear_5599_11249" x1="47.2774" y1="19.1407" x2="43.8095" y2="157.001" gradientUnits="userSpaceOnUse">
<stop stop-color="#6DC7E9"/>
<stop offset="1" stop-color="#2854A1"/>
</linearGradient>
<radialGradient id="paint36_radial_5599_11249" cx="0" cy="0" r="1" gradientUnits="userSpaceOnUse" gradientTransform="translate(49.5312 -1.0649) scale(23.4964 23.6095)">
<stop offset="0.04" stop-color="#FBFBFB"/>
<stop offset="1" stop-color="#FBFBFB" stop-opacity="0"/>
</radialGradient>
<linearGradient id="paint37_linear_5599_11249" x1="13.6273" y1="92.5213" x2="13.6257" y2="92.7977" gradientUnits="userSpaceOnUse">
<stop stop-color="#6DC7E9"/>
<stop offset="1" stop-color="#2854A1"/>
</linearGradient>
<linearGradient id="paint38_linear_5599_11249" x1="13.0983" y1="105.296" x2="13.0983" y2="150.065" gradientUnits="userSpaceOnUse">
<stop stop-color="#6DC7E9"/>
<stop offset="1" stop-color="#2854A1"/>
</linearGradient>
<linearGradient id="paint39_linear_5599_11249" x1="25.4103" y1="105.296" x2="25.4103" y2="150.065" gradientUnits="userSpaceOnUse">
<stop stop-color="#6DC7E9"/>
<stop offset="1" stop-color="#2854A1"/>
</linearGradient>
<linearGradient id="paint40_linear_5599_11249" x1="35.0981" y1="105.296" x2="35.0981" y2="150.065" gradientUnits="userSpaceOnUse">
<stop stop-color="#6DC7E9"/>
<stop offset="1" stop-color="#2854A1"/>
</linearGradient>
<linearGradient id="paint41_linear_5599_11249" x1="42.5388" y1="105.296" x2="42.5388" y2="150.065" gradientUnits="userSpaceOnUse">
<stop stop-color="#6DC7E9"/>
<stop offset="1" stop-color="#2854A1"/>
</linearGradient>
<linearGradient id="paint42_linear_5599_11249" x1="52.6666" y1="105.296" x2="52.6666" y2="150.065" gradientUnits="userSpaceOnUse">
<stop stop-color="#6DC7E9"/>
<stop offset="1" stop-color="#2854A1"/>
</linearGradient>
<linearGradient id="paint43_linear_5599_11249" x1="66.6111" y1="105.296" x2="66.6111" y2="150.065" gradientUnits="userSpaceOnUse">
<stop stop-color="#6DC7E9"/>
<stop offset="1" stop-color="#2854A1"/>
</linearGradient>
<linearGradient id="paint44_linear_5599_11249" x1="80.46" y1="105.296" x2="80.46" y2="150.065" gradientUnits="userSpaceOnUse">
<stop stop-color="#6DC7E9"/>
<stop offset="1" stop-color="#2854A1"/>
</linearGradient>
<linearGradient id="paint45_linear_5599_11249" x1="13.1371" y1="80.178" x2="12.9607" y2="124.612" gradientUnits="userSpaceOnUse">
<stop stop-color="#6DC7E9"/>
<stop offset="1" stop-color="#2854A1"/>
</linearGradient>
<linearGradient id="paint46_linear_5599_11249" x1="25.4345" y1="80.2264" x2="25.2581" y2="124.661" gradientUnits="userSpaceOnUse">
<stop stop-color="#6DC7E9"/>
<stop offset="1" stop-color="#2854A1"/>
</linearGradient>
<linearGradient id="paint47_linear_5599_11249" x1="35.1175" y1="80.2641" x2="34.9427" y2="124.698" gradientUnits="userSpaceOnUse">
<stop stop-color="#6DC7E9"/>
<stop offset="1" stop-color="#2854A1"/>
</linearGradient>
<linearGradient id="paint48_linear_5599_11249" x1="42.5759" y1="80.2932" x2="42.3994" y2="124.728" gradientUnits="userSpaceOnUse">
<stop stop-color="#6DC7E9"/>
<stop offset="1" stop-color="#2854A1"/>
</linearGradient>
<linearGradient id="paint49_linear_5599_11249" x1="52.7038" y1="80.334" x2="52.5291" y2="124.768" gradientUnits="userSpaceOnUse">
<stop stop-color="#6DC7E9"/>
<stop offset="1" stop-color="#2854A1"/>
</linearGradient>
<linearGradient id="paint50_linear_5599_11249" x1="66.6386" y1="80.3893" x2="66.4638" y2="124.824" gradientUnits="userSpaceOnUse">
<stop stop-color="#6DC7E9"/>
<stop offset="1" stop-color="#2854A1"/>
</linearGradient>
<linearGradient id="paint51_linear_5599_11249" x1="80.4956" y1="80.4445" x2="80.3208" y2="124.879" gradientUnits="userSpaceOnUse">
<stop stop-color="#6DC7E9"/>
<stop offset="1" stop-color="#2854A1"/>
</linearGradient>
<linearGradient id="paint52_linear_5599_11249" x1="13.0983" y1="102.446" x2="13.0983" y2="86.102" gradientUnits="userSpaceOnUse">
<stop offset="0.04" stop-color="#FBFBFB"/>
<stop offset="1" stop-color="#FBFBFB" stop-opacity="0"/>
</linearGradient>
<linearGradient id="paint53_linear_5599_11249" x1="25.4104" y1="102.446" x2="25.4104" y2="86.1015" gradientUnits="userSpaceOnUse">
<stop offset="0.04" stop-color="#FBFBFB"/>
<stop offset="1" stop-color="#FBFBFB" stop-opacity="0"/>
</linearGradient>
<linearGradient id="paint54_linear_5599_11249" x1="35.0981" y1="102.446" x2="35.0981" y2="86.1019" gradientUnits="userSpaceOnUse">
<stop offset="0.04" stop-color="#FBFBFB"/>
<stop offset="1" stop-color="#FBFBFB" stop-opacity="0"/>
</linearGradient>
<linearGradient id="paint55_linear_5599_11249" x1="42.5387" y1="102.446" x2="42.5387" y2="86.1017" gradientUnits="userSpaceOnUse">
<stop offset="0.04" stop-color="#FBFBFB"/>
<stop offset="1" stop-color="#FBFBFB" stop-opacity="0"/>
</linearGradient>
<linearGradient id="paint56_linear_5599_11249" x1="52.6666" y1="102.446" x2="52.6666" y2="86.1018" gradientUnits="userSpaceOnUse">
<stop offset="0.04" stop-color="#FBFBFB"/>
<stop offset="1" stop-color="#FBFBFB" stop-opacity="0"/>
</linearGradient>
<linearGradient id="paint57_linear_5599_11249" x1="70.0781" y1="102.446" x2="70.0781" y2="86.1019" gradientUnits="userSpaceOnUse">
<stop offset="0.04" stop-color="#FBFBFB"/>
<stop offset="1" stop-color="#FBFBFB" stop-opacity="0"/>
</linearGradient>
<linearGradient id="paint58_linear_5599_11249" x1="63.1423" y1="102.446" x2="63.1423" y2="86.1018" gradientUnits="userSpaceOnUse">
<stop offset="0.04" stop-color="#FBFBFB"/>
<stop offset="1" stop-color="#FBFBFB" stop-opacity="0"/>
</linearGradient>
<linearGradient id="paint59_linear_5599_11249" x1="80.46" y1="102.446" x2="80.46" y2="86.1018" gradientUnits="userSpaceOnUse">
<stop offset="0.04" stop-color="#FBFBFB"/>
<stop offset="1" stop-color="#FBFBFB" stop-opacity="0"/>
</linearGradient>
</defs>
</svg>
