<svg width="69" height="69" viewBox="0 0 69 69" fill="none" xmlns="http://www.w3.org/2000/svg">
<g clip-path="url(#clip0_5599_11930)">
<path d="M57.5799 23.0532C57.5799 23.0532 57.4836 22.9579 57.4113 22.9579L48.3555 20.9092L57.4113 22.9579C57.4113 22.9579 57.5318 23.0056 57.5799 23.0532Z" fill="#D7F9FF"/>
<path d="M48.2591 20.9092L39.2033 22.9579C39.2033 22.9579 39.0828 23.0056 39.0347 23.0532C39.0828 23.0056 39.131 22.9579 39.2033 22.9579L48.2591 20.9092Z" fill="#D7F9FF"/>
<path d="M57.5801 23.3867C57.5801 23.3867 57.6523 23.2676 57.6523 23.22C57.6523 23.1485 57.6523 23.1009 57.5801 23.0532C57.6282 23.1009 57.6523 23.1723 57.6523 23.22C57.6523 23.2915 57.6523 23.3391 57.5801 23.3867Z" fill="#D7F9FF"/>
<path d="M39.0347 23.0532C39.0347 23.0532 38.9624 23.1723 38.9624 23.22C38.9624 23.2915 38.9624 23.3391 39.0347 23.3867C38.9865 23.3391 38.9624 23.2676 38.9624 23.22C38.9624 23.1485 38.9624 23.1009 39.0347 23.0532Z" fill="#D7F9FF"/>
<path d="M48.2589 28.58C47.8254 28.58 47.4159 28.5562 46.9824 28.5085C47.3919 28.5562 47.8254 28.58 48.2589 28.58Z" fill="#D7F9FF"/>
<path d="M48.3555 28.5802C48.8131 28.5802 49.2707 28.5325 49.7283 28.4849C49.2707 28.5325 48.8131 28.5802 48.3555 28.5802Z" fill="#D7F9FF"/>
<path d="M53.2207 24.4349L56.6407 23.6726L53.2207 24.4349Z" fill="#D7F9FF"/>
<path d="M39.9741 23.6726L43.3701 24.4349L39.9741 23.6726Z" fill="#D7F9FF"/>
<path d="M53.0278 27.2222C53.1483 27.0555 53.2205 26.8887 53.2205 26.6743C53.2205 26.8649 53.1483 27.0555 53.0278 27.2222Z" fill="#D7F9FF"/>
<path d="M43.3701 26.6743C43.3701 26.8887 43.4665 27.1031 43.6351 27.2699C43.4905 27.0793 43.3701 26.8887 43.3701 26.6743Z" fill="#D7F9FF"/>
<path d="M45.6582 28.2942C46.0676 28.3895 46.5253 28.4609 46.9829 28.5086C46.5253 28.4609 46.0676 28.3895 45.6582 28.2942Z" fill="#D7F9FF"/>
<path d="M49.7285 28.4849C50.1139 28.4372 50.4751 28.3896 50.8123 28.3181C50.4751 28.3896 50.0898 28.4372 49.7285 28.4849Z" fill="#D7F9FF"/>
<path d="M51.1011 28.2465C51.9922 28.0083 52.6907 27.6748 53.0279 27.2222C52.7148 27.6748 51.9922 28.0083 51.1011 28.2465Z" fill="#D7F9FF"/>
<path d="M45.6579 28.2943C44.7186 28.0799 43.996 27.7463 43.6348 27.2937C43.996 27.7463 44.7427 28.0799 45.6579 28.2943Z" fill="#D7F9FF"/>
<path d="M53.6783 27.8893C53.1243 28.5325 52.1368 28.9613 51.0048 29.1996C50.4509 29.3187 49.8488 29.3901 49.2467 29.4378L48.3314 29.4616H48.2833H47.368V29.414C46.8141 29.3663 46.2601 29.2948 45.7544 29.1996C44.6224 28.9613 43.6349 28.5563 43.0569 27.9369C42.0453 29.1757 41.395 30.748 41.395 32.4871C41.395 36.4417 44.526 39.6339 48.4037 39.6339C52.2813 39.6339 55.4124 36.4417 55.4124 32.4871C55.4124 30.7004 54.7621 29.1043 53.7023 27.8655L53.6783 27.8893Z" fill="#5EDEFC"/>
<path d="M57.5798 23.0532C57.5798 23.0532 57.4834 22.9579 57.4112 22.9579L48.3553 20.9092C48.3553 20.9092 48.3553 20.9092 48.3312 20.9092H48.2831L39.2272 22.9579C39.1549 22.9579 39.1068 23.0056 39.0586 23.0532C39.0104 23.1009 38.9863 23.1723 38.9863 23.22C38.9863 23.2915 38.9863 23.3391 39.0586 23.3867C39.1068 23.4344 39.1549 23.482 39.2272 23.482L39.9979 23.6488L43.4179 24.4111V26.6505C43.4179 26.8649 43.5143 27.0793 43.6829 27.246C44.0441 27.6987 44.7908 28.0322 45.706 28.2466C46.1154 28.3419 46.573 28.4133 47.0306 28.461C47.4401 28.5086 47.8736 28.5324 48.3071 28.5324C48.3071 28.5324 48.3312 28.5324 48.3553 28.5324C48.3553 28.5324 48.3794 28.5324 48.4035 28.5324C48.8611 28.5324 49.3187 28.4848 49.7763 28.4372C50.1617 28.3895 50.5229 28.3419 50.8601 28.2704C50.9565 28.2704 51.0528 28.2228 51.1491 28.1989C52.0403 27.9607 52.7387 27.6272 53.0759 27.1746C53.1963 27.0078 53.2686 26.841 53.2686 26.6266V24.3873L56.6886 23.625L57.4594 23.4582C57.4594 23.4582 57.5798 23.4106 57.628 23.3629C57.6761 23.3153 57.7002 23.2438 57.7002 23.1962C57.7002 23.1247 57.7002 23.077 57.628 23.0294L57.5798 23.0532Z" fill="#5EDEFC"/>
<path d="M39.0347 23.3867C39.0347 23.3867 39.131 23.482 39.2033 23.482L39.974 23.6488L39.2033 23.482C39.2033 23.482 39.0828 23.4344 39.0347 23.3867Z" fill="#D7F9FF"/>
<path d="M56.6406 23.6727L57.4113 23.5059C57.4113 23.5059 57.5318 23.4583 57.5799 23.4106C57.5318 23.4583 57.4836 23.5059 57.4113 23.5059L56.6406 23.6727Z" fill="#D7F9FF"/>
<path d="M51.101 28.2466C51.101 28.2466 50.9084 28.2942 50.812 28.318C50.9084 28.318 51.0047 28.2704 51.101 28.2466Z" fill="#D7F9FF"/>
<path fill-rule="evenodd" clip-rule="evenodd" d="M13.6012 45.8754L17.9605 43.3502C17.9605 43.3502 22.7293 41.7541 23.3314 41.635C23.9335 41.5159 30.0511 40.8965 30.6532 40.8965C31.2553 40.8965 36.289 41.635 37.3006 42.1591C38.3121 42.6832 41.5877 44.6843 42.3343 45.3513C43.0809 46.0184 43.8035 47.3524 43.8035 48.5912C43.8035 49.83 43.0568 51.8311 42.4547 52.3076C41.8526 52.784 41.0578 53.7608 38.3603 53.9037C35.6628 54.0466 32.9172 53.9037 30.5087 54.1657C28.1002 54.4278 21.3083 54.4278 20.1041 54.5707C18.8998 54.7137 13.6012 52.4505 13.6012 52.4505L13.1436 49.1391L13.6012 45.8993V45.8754Z" fill="#D7F9FF"/>
<path d="M24.5117 23.0769C25.0657 23.196 25.6919 23.2913 26.3181 23.3628C25.6919 23.2913 25.0898 23.2198 24.5117 23.0769Z" fill="#35BBE3"/>
<path d="M30.0513 23.3391C30.557 23.2914 31.0628 23.1961 31.5445 23.1008C31.0628 23.1961 30.5811 23.2676 30.0513 23.3391Z" fill="#35BBE3"/>
<path d="M31.9536 23.0055C33.1819 22.6958 34.1212 22.2193 34.5548 21.6238C34.1212 22.2432 33.1579 22.6958 31.9536 23.0055Z" fill="#35BBE3"/>
<path d="M24.5114 23.0769C23.235 22.791 22.2475 22.3146 21.7417 21.719C22.2475 22.3384 23.235 22.791 24.5114 23.0769Z" fill="#35BBE3"/>
<path d="M33.953 28.8421C33.953 32.0581 31.3759 34.6786 28.2208 34.6786C25.0657 34.6786 22.4887 32.0581 22.4887 28.8421C22.4887 27.0315 23.3316 25.4116 24.6081 24.3396C23.0667 24.0299 21.7179 23.482 20.9231 22.6243C19.5262 24.3158 18.6592 26.4598 18.6592 28.8421C18.6592 34.226 22.9463 38.5617 28.2208 38.5617C33.4954 38.5617 37.7825 34.2022 37.7825 28.8421C37.7825 26.4122 36.8914 24.2443 35.4463 22.5291C34.6996 23.4105 33.3509 23.9822 31.8095 24.3158C33.11 25.3878 33.953 27.0077 33.953 28.8421Z" fill="#35BBE3"/>
<path d="M43.6349 44.3507C41.4432 42.3972 36.7225 39.467 28.1965 39.467C19.6705 39.467 14.974 42.3972 12.7823 44.3507C11.4335 45.5418 11 47.2332 11 48.6864C11 52.7363 14.2274 56 18.1773 56H38.2399C42.2139 56 45.4171 52.7363 45.4171 48.6864C45.4171 47.2332 44.9836 45.5418 43.6349 44.3269V44.3507ZM38.2399 52.1169H18.1773C16.3227 52.1169 14.8295 50.5923 14.8295 48.7103C14.8295 47.9718 15.0462 47.5191 15.3112 47.2809C16.8044 45.9468 20.658 43.374 28.2206 43.374C35.7832 43.374 39.6127 45.9468 41.1301 47.2809C41.395 47.5191 41.6118 47.9718 41.6118 48.7103C41.6118 50.5923 40.1185 52.1169 38.264 52.1169H38.2399Z" fill="#35BBE3"/>
<path d="M59.6996 43.8981C58.086 42.4688 54.6177 40.3247 48.3798 40.3247C45.5378 40.3247 43.2979 40.7773 41.5156 41.3967C42.7921 42.1114 43.7796 42.8499 44.454 43.4693C45.8509 44.7319 46.6457 46.5901 46.6457 48.7103C46.6457 50.0682 46.3085 51.3308 45.7305 52.4743H55.7497C58.664 52.4743 61.0243 50.0682 61.0243 47.1142C61.0243 46.0422 60.7112 44.8034 59.7237 43.9219L59.6996 43.8981Z" fill="#5EDEFC"/>
<path d="M40.7687 15.9302C40.7687 15.9302 40.6482 15.8111 40.5519 15.7873L28.1964 13C28.1964 13 28.1723 13 28.1482 13H28.076L15.6964 15.7873C15.6001 15.7873 15.5278 15.8587 15.4796 15.9302C15.4315 16.0017 15.3833 16.0731 15.3833 16.1684C15.3833 16.2637 15.4074 16.3352 15.4796 16.4066C15.5278 16.4781 15.6001 16.5258 15.6964 16.5496L16.7561 16.7878L21.4045 17.836V20.9091C21.4045 21.2188 21.549 21.4809 21.7417 21.7429C22.2475 22.3623 23.2349 22.815 24.5114 23.1008C25.0654 23.2199 25.6916 23.3152 26.3178 23.3867C26.8958 23.4344 27.4739 23.482 28.0519 23.482C28.0519 23.482 28.1001 23.482 28.1241 23.482C28.1241 23.482 28.1723 23.482 28.1964 23.482C28.8226 23.482 29.4488 23.4343 30.0509 23.3629C30.5567 23.3152 31.0625 23.2199 31.5442 23.1247C31.6887 23.1008 31.8091 23.0532 31.9536 23.0294C33.182 22.7197 34.1213 22.2432 34.5548 21.6476C34.7234 21.4094 34.8197 21.1712 34.8197 20.9091V17.836L39.4681 16.7878L40.5278 16.5496C40.5278 16.5496 40.6964 16.4781 40.7446 16.4066C40.7927 16.3352 40.8409 16.2637 40.8409 16.1684C40.8409 16.0731 40.8168 16.0017 40.7446 15.9302H40.7687Z" fill="#35BBE3"/>
<path d="M15.48 16.4067C15.48 16.4067 15.6004 16.5259 15.6967 16.5497L16.7565 16.7879L15.6967 16.5497C15.6967 16.5497 15.5282 16.4782 15.48 16.4067Z" fill="white"/>
<path d="M39.4922 16.7879L40.5519 16.5497C40.5519 16.5497 40.7205 16.4782 40.7687 16.4067C40.7205 16.4782 40.6483 16.5259 40.5519 16.5497L39.4922 16.7879Z" fill="white"/>
<path d="M31.9539 23.0056C31.8094 23.0294 31.6889 23.0771 31.5444 23.1009C31.6889 23.0771 31.8094 23.0294 31.9539 23.0056Z" fill="white"/>
</g>
<circle cx="34.5" cy="34.5" r="34" stroke="#35BBE3" stroke-dasharray="10 18 30 6"/>
<defs>
<clipPath id="clip0_5599_11930">
<rect width="50" height="43" fill="white" transform="translate(11 13)"/>
</clipPath>
</defs>
</svg>
