<svg width="88" height="88" viewBox="0 0 88 88" fill="none" xmlns="http://www.w3.org/2000/svg">
<path d="M43.9875 88C68.2546 88 87.9271 68.3005 87.9271 44C87.9271 19.6995 68.2546 0 43.9875 0C19.7203 0 0.0478516 19.6995 0.0478516 44C0.0478516 68.3005 19.7203 88 43.9875 88Z" fill="#FFDC00"/>
<path d="M77.3358 38.1257C77.2673 37.6229 76.8336 37.2343 76.3086 37.2343H70.5565C69.6207 33.6457 67.9315 30.24 65.649 27.3143C60.4903 20.7543 52.7752 17.0286 44.4666 17.0286C36.1581 17.0286 28.4202 20.7771 23.2615 27.3143C20.3627 30.9943 18.5594 35.2228 17.8518 39.7486L10.5704 43.0628C10.1824 43.2457 9.9541 43.6114 9.9541 44.0229C9.9541 44.4343 10.1824 44.7771 10.5704 44.96L17.8518 48.2286C18.5594 52.7543 20.3855 57.0286 23.2615 60.6628C28.4202 67.2457 36.1352 70.9943 44.4666 70.9943C52.7981 70.9943 60.4903 67.2686 65.649 60.6628C67.9315 57.76 69.6207 54.3314 70.5337 50.7429H76.3086C76.8108 50.7429 77.2216 50.3771 77.3129 49.92C77.7466 48 77.9749 45.9886 77.9749 44C77.9749 42.0114 77.7695 40.0457 77.3358 38.1257ZM24.8822 48.6629C25.0876 47.4743 25.2246 46.24 25.2702 45.0514H69.3239C69.2783 46.24 69.1185 47.4743 68.8902 48.6629H24.8822ZM28.7625 57.1428C28.3745 57.2571 27.9864 57.3943 27.5984 57.5086C27.1647 57.6686 26.7539 57.8057 26.343 57.9657C25.955 58.1257 25.6126 58.24 25.2474 58.4228C24.9506 58.5143 24.6767 58.6286 24.4028 58.72C22.28 55.8629 20.8648 52.6628 20.1116 49.2343L23.2387 50.6514C23.2387 50.6514 23.3072 50.6743 23.3528 50.6743L23.3985 50.6971C23.467 50.72 23.5126 50.72 23.5811 50.72H29.2191C29.6527 52.6857 30.3147 54.6057 31.1364 56.4571C30.7712 56.5257 30.4288 56.64 30.0636 56.7543C29.6299 56.8457 29.219 56.96 28.7854 57.12L28.7625 57.1428ZM24.38 29.2343C24.6767 29.3486 24.9963 29.4857 25.293 29.6C25.6354 29.76 25.9778 29.8743 26.3202 29.9886C26.7539 30.1714 27.2332 30.3314 27.6897 30.4686C28.0321 30.5828 28.3745 30.72 28.7397 30.8343C29.1962 30.9486 29.6756 31.1086 30.1777 31.2228C30.4745 31.3143 30.7712 31.4057 31.0907 31.4971C30.269 33.3257 29.6299 35.2229 29.1734 37.1886H23.6496V37.2114C23.5811 37.2114 23.5354 37.2114 23.467 37.2343H23.3528C23.3528 37.2343 23.2844 37.2571 23.2387 37.2571L20.1572 38.6743C20.8648 35.2686 22.3028 32.0686 24.4028 29.1886L24.38 29.2343ZM33.7614 32.1371C34.2864 32.2286 34.8342 32.32 35.3592 32.4114C35.7016 32.48 36.044 32.5257 36.3635 32.5943C36.957 32.6629 37.5048 32.7086 38.0983 32.8C38.395 32.8 38.7146 32.8686 39.0341 32.8914C39.6961 32.96 40.358 32.9829 41.02 33.0514C41.2482 33.0514 41.4765 33.0743 41.7048 33.0743C42.2754 33.0971 42.8232 33.0971 43.3938 33.1428V37.2114H31.2962C31.7299 35.4057 32.3462 33.6686 33.1222 31.9771C33.3277 32.0457 33.556 32.0686 33.7614 32.1371ZM45.471 33.1428C46.0416 33.12 46.5895 33.12 47.1373 33.0743C47.3884 33.0743 47.6166 33.0514 47.8677 33.0514C48.5296 32.9829 49.1916 32.96 49.8307 32.8914C50.1503 32.8686 50.4698 32.8 50.7894 32.8C51.36 32.7086 51.9307 32.64 52.4785 32.5943C52.8209 32.5257 53.1861 32.48 53.5285 32.3886C54.0535 32.32 54.5785 32.2286 55.0807 32.1371C55.2861 32.0686 55.5143 32.0457 55.7426 31.9771C56.4958 33.6686 57.1121 35.4057 57.5686 37.2114H45.471V33.1428ZM54.51 30.1486C54.0307 30.24 53.5285 30.3086 53.0492 30.4C52.7068 30.4686 52.3872 30.5143 52.0448 30.56C51.5198 30.6514 50.9948 30.72 50.4698 30.7657C50.1731 30.7886 49.8535 30.8343 49.534 30.8571C48.9633 30.9257 48.347 30.9714 47.7536 30.9714C47.5025 30.9943 47.2742 31.04 47.0232 31.04C46.521 31.0628 45.996 31.0628 45.4938 31.1086V19.8857C49.4199 22.5143 52.5926 26.0343 54.8067 30.0571C54.7154 30.1257 54.6241 30.1257 54.5328 30.1486H54.51ZM43.3938 31.0857C42.8688 31.0629 42.3667 31.0628 41.8645 31.0171C41.6134 31.0171 41.3623 30.9943 41.1113 30.9486C40.5178 30.9257 39.9243 30.88 39.3537 30.8343C39.0341 30.8114 38.6917 30.7657 38.3722 30.7428C37.87 30.6743 37.345 30.6286 36.8428 30.5371C36.4776 30.5143 36.1353 30.4457 35.7929 30.3771C35.3135 30.2857 34.8342 30.2171 34.3777 30.1257C34.2864 30.1029 34.1951 30.1029 34.1038 30.0343C36.3179 26.0114 39.4907 22.4914 43.4167 19.8628V31.0857H43.3938ZM22.8278 39.7486C23.0561 41.12 23.1702 42.5371 23.1702 43.9771C23.1702 45.4171 23.0561 46.7886 22.8278 48.1828L20.0431 46.9486C20.3855 44.9829 20.3855 42.9714 20.0431 41.0057L22.8278 39.7486ZM43.3938 54.8114H42.8689C42.5036 54.8343 42.1156 54.8343 41.7732 54.8343C41.2711 54.8571 40.7917 54.9028 40.3124 54.9486C39.9015 54.9486 39.4906 54.9714 39.0798 55.0171C38.6233 55.0857 38.1668 55.1314 37.7102 55.2C37.2766 55.2686 36.8429 55.2914 36.432 55.36C35.9983 55.4286 35.5418 55.52 35.1081 55.5657C34.6744 55.6343 34.2407 55.7257 33.8299 55.8171C33.6244 55.84 33.3962 55.8857 33.1679 55.9314C32.3918 54.24 31.7527 52.5028 31.319 50.6971H43.4167V54.8114H43.3938ZM34.3777 57.8057C34.8342 57.7143 35.2907 57.6457 35.7472 57.5543C36.1124 57.4857 36.4776 57.44 36.8428 57.3714C37.3222 57.3029 37.8015 57.2571 38.2809 57.1886C38.6461 57.1657 38.9885 57.0971 39.3537 57.0743C39.8787 57.0514 40.4037 56.9828 40.9058 56.9828C41.2254 56.96 41.545 56.9143 41.8874 56.8914C42.3667 56.8914 42.8917 56.8686 43.3938 56.8686V67.9543C39.4906 65.28 36.3407 61.8286 34.1266 57.8514C34.1951 57.8514 34.2864 57.8286 34.3777 57.8286V57.8057ZM45.471 56.8457C45.9732 56.8457 46.4753 56.8686 46.9775 56.8686C47.2971 56.8914 47.6394 56.9371 47.959 56.96C48.484 56.9828 49.009 57.0286 49.5112 57.0514C49.8764 57.0743 50.2416 57.1429 50.6068 57.1657C51.0861 57.2343 51.5655 57.28 52.022 57.3486C52.3872 57.4171 52.7752 57.4628 53.1404 57.5314C53.597 57.6229 54.0535 57.6914 54.4872 57.7829C54.6469 57.8057 54.7839 57.8514 54.9437 57.8743C52.7524 62.0114 49.534 65.6 45.471 68.2971V56.8457ZM55.0578 55.7943C54.6241 55.7028 54.1448 55.6114 53.6883 55.5428C53.2774 55.4514 52.8437 55.3828 52.4329 55.3371C51.9992 55.2686 51.5198 55.2228 51.0861 55.1771C50.6525 55.1086 50.2188 55.0629 49.7622 54.9943C49.3286 54.9714 48.8949 54.9257 48.4383 54.9028C47.9818 54.88 47.5253 54.8343 47.0688 54.8114C46.6579 54.8114 46.2471 54.8114 45.859 54.7886H45.4254V50.6743H57.5915C57.1806 52.5028 56.5872 54.2628 55.8339 55.9543C55.5828 55.9314 55.3089 55.84 55.0122 55.7943H55.0578ZM69.3011 42.9028H25.2474C25.2017 41.6686 25.0876 40.4571 24.8593 39.2686H68.8674C69.0957 40.4571 69.2554 41.6914 69.3011 42.9028ZM59.7143 37.1657C59.2578 35.2 58.6186 33.3029 57.8197 31.4743C58.1165 31.3829 58.436 31.2914 58.7327 31.2C59.2121 31.0857 59.6915 30.9257 60.148 30.8114C60.4904 30.6971 60.8556 30.56 61.1979 30.4457C61.6545 30.2857 62.111 30.1486 62.5447 29.9657C62.8871 29.8514 63.2523 29.7143 63.5947 29.5771C63.8914 29.4628 64.2109 29.3257 64.4849 29.2114C66.2653 31.6343 67.5663 34.3543 68.3881 37.2114H59.7143V37.1657ZM63.1153 27.4971C62.9555 27.5657 62.7729 27.6571 62.5903 27.7028C62.2479 27.8628 61.9055 27.9771 61.5632 28.0914C61.1523 28.2514 60.7414 28.3886 60.3306 28.5257C59.9654 28.64 59.6458 28.7771 59.2806 28.8686C58.8469 29.0286 58.4132 29.1428 57.9567 29.2571C57.5915 29.3486 57.2719 29.44 56.9067 29.5314C56.9067 29.5314 56.8839 29.5314 56.8611 29.5543C54.7611 25.5771 51.8394 22.08 48.2557 19.2914C53.985 20.1828 59.2121 23.04 63.1153 27.4743V27.4971ZM40.6091 19.3143C37.0027 22.1028 34.0809 25.6 32.0038 29.5771C32.0038 29.5543 31.981 29.5543 31.981 29.5543C31.5929 29.4629 31.2505 29.3714 30.8853 29.28C30.4516 29.1657 30.0408 29.0286 29.6071 28.8914C29.2647 28.8 28.8995 28.6857 28.5343 28.5486C28.1234 28.4343 27.7126 28.2743 27.3017 28.1143C26.9365 28 26.6169 27.8629 26.2745 27.7257C26.0919 27.6571 25.9093 27.5657 25.7495 27.52C29.6299 23.0857 34.8799 20.2286 40.6091 19.3371V19.3143ZM18.1257 41.8743C18.3312 43.2457 18.3312 44.6628 18.1257 46.0343L13.4921 43.9543L18.1257 41.8743ZM25.7495 60.4114C25.9321 60.3428 26.1147 60.2514 26.2745 60.16C26.5941 60.0457 26.9365 59.9086 27.2788 59.7943C27.6897 59.6343 28.1006 59.4971 28.5343 59.3371C28.8767 59.2228 29.2191 59.1314 29.5843 58.9943C30.018 58.88 30.4516 58.7429 30.8853 58.6286C31.2505 58.5371 31.5929 58.4457 31.9581 58.3314H32.0495C34.1723 62.2857 37.1396 65.8057 40.8145 68.6171C34.994 67.7714 29.6756 64.8914 25.7724 60.4114H25.7495ZM48.6894 68.5028C52.2046 65.7371 55.0122 62.2857 57.0208 58.4C57.3404 58.4686 57.6828 58.56 58.0023 58.6514C58.436 58.7657 58.8469 58.9028 59.2806 59.0171C59.623 59.1314 59.9882 59.2686 60.3534 59.3828C60.7643 59.4971 61.1751 59.6571 61.5632 59.8171C61.9055 59.9314 62.2708 60.0686 62.6132 60.2057C62.7729 60.2743 62.9555 60.3657 63.1153 60.4114C59.3263 64.7314 54.2589 67.5428 48.6894 68.5028ZM64.4849 58.6971C64.2109 58.5828 63.8914 58.4914 63.6175 58.3543C63.2751 58.1943 62.9099 58.08 62.5675 57.92C62.1338 57.76 61.7001 57.6228 61.2436 57.4628C60.8784 57.3486 60.5132 57.2114 60.148 57.0971C59.7143 56.9371 59.2349 56.8228 58.8012 56.7086C58.5045 56.6171 58.2306 56.5486 57.9567 56.4571C58.7328 54.6286 59.3491 52.6857 59.7828 50.6971H68.3881C67.5663 53.5543 66.2653 56.2971 64.5077 58.6971H64.4849ZM75.4412 48.6171H71.013C71.2641 47.0857 71.4011 45.5314 71.4011 43.9543C71.4011 42.3543 71.2641 40.8 71.013 39.2686H75.4412C75.738 40.8 75.8749 42.3543 75.8749 43.9543C75.8749 45.5543 75.738 47.0857 75.4412 48.6171Z" fill="#4F2200"/>
</svg>
