<svg width="67" height="68" viewBox="0 0 67 68" fill="none" xmlns="http://www.w3.org/2000/svg">
<path d="M3.06607 7.50333C20.5651 5.00949 38.064 2.51733 55.563 0.026837C56.0449 -0.0330634 56.5341 0.00756559 56.9995 0.146158C57.4649 0.28475 57.8965 0.518293 58.2671 0.832036C58.6376 1.14578 58.939 1.5329 59.1522 1.96896C59.3655 2.40501 59.4859 2.88051 59.5059 3.36544C59.4969 6.99387 59.5059 10.6223 59.5059 14.2497C50.163 21.5569 42.1293 30.3963 35.7472 40.3909C34.8089 39.5164 33.8806 38.6298 33.0136 37.6831C34.5276 36.5416 35.646 34.9551 36.2118 33.1461C36.5465 32.1065 36.6008 30.9971 36.3694 29.9298C36.1115 28.6963 35.5505 27.556 34.9644 26.4478C34.3412 25.2955 33.8114 24.0569 32.857 23.1252C32.1004 22.347 31.0707 21.7784 29.9658 21.7693C28.8057 21.7533 27.5875 22.1845 26.8398 23.1002C26.2166 23.8533 25.9828 24.8572 25.9908 25.817C25.9908 26.7968 26.2467 27.7586 26.62 28.6592C27.4483 30.7596 28.4604 32.7829 29.6447 34.7055C26.618 36.4104 23.1548 37.0964 19.7498 37.5638C13.1907 38.4664 6.47608 38.1585 0.00830078 36.7614C0.00830078 28.128 0.00830078 19.4941 0.00830078 10.86C0.0715235 9.20924 1.42128 7.71795 3.06607 7.50333ZM29.4139 15.5775C28.9536 16.0902 28.5521 16.6526 28.2167 17.2544C28.1878 17.3185 28.145 17.3755 28.0914 17.4211C28.0378 17.4667 27.9748 17.4999 27.9068 17.5182C27.8388 17.5366 27.7676 17.5396 27.6983 17.5271C27.6291 17.5146 27.5634 17.4868 27.5062 17.4459C26.9482 17.1039 26.4023 16.7439 25.8433 16.4029C25.0891 17.3756 24.4272 18.4164 23.8663 19.5119C24.7615 20.0781 25.657 20.6444 26.5528 21.2107C27.028 20.6644 27.4475 20.0721 27.8052 19.4427C27.9156 19.224 28.2197 19.1107 28.4324 19.2551C29.0138 19.5894 29.5979 19.9204 30.1846 20.248C30.4987 19.9371 30.7255 19.555 30.9684 19.1889C31.3919 18.524 31.8013 17.8501 32.1726 17.1531C31.2614 16.6129 30.3418 16.0877 29.4139 15.5775Z" fill="#35BBE3"/>
<path d="M64.034 4.35329C65.0425 3.96217 66.2468 4.79155 66.2167 5.87667C66.1986 22.2872 66.1772 38.697 66.1525 55.1062C66.1976 55.7481 66.0973 56.4551 65.6025 56.9114C64.9904 57.5482 63.9045 57.5191 63.2783 56.9164C64.1233 56.6747 64.8007 55.8925 64.8077 54.9979C64.8077 38.6175 64.8077 22.239 64.8077 5.86263C64.8318 5.26491 64.5077 4.70931 64.034 4.35329Z" fill="#35BBE3"/>
<path d="M37.6842 44.3684C43.62 35.1063 50.9834 26.8402 59.5021 19.876C59.5021 31.3851 59.49 42.8952 59.5151 54.4032C59.5371 55.0607 59.4262 55.7159 59.1889 56.3295C58.9516 56.9431 58.5929 57.5026 58.1343 57.9745C57.6154 58.501 56.922 58.8931 56.1713 58.9313C48.6248 58.9393 41.0772 58.9252 33.5306 58.9383C30.7488 61.6307 27.9613 64.3208 25.1681 67.0085C23.9251 64.3167 22.6824 61.625 21.44 58.9333C15.6529 58.9333 9.86589 58.9333 4.07884 58.9333C3.67743 58.9252 3.26397 58.9664 2.86557 58.8801C2.32419 58.7693 1.81588 58.5346 1.38057 58.1945C0.945265 57.8543 0.594807 57.4178 0.356729 56.9195C0.0759328 56.3215 -0.0424343 55.6602 0.0135198 55.002C0.0205445 50.2533 0.0135198 45.5037 0.0135198 40.754C7.16772 42.4589 14.6511 42.828 21.9247 41.7158C25.5013 41.2083 29.0247 40.1051 32.1447 38.2679C33.8587 40.419 35.8056 42.3626 37.6842 44.3684Z" fill="#35BBE3"/>
<path d="M29.6003 26.7483C30.6219 26.0925 31.9586 25.9942 33.0906 26.4104C33.48 26.5438 33.8804 26.7433 34.0881 27.1184C34.3671 27.5767 34.2618 28.1363 34.1734 28.6348C33.918 29.7328 33.4436 30.768 32.7788 31.6787C32.1139 32.5894 31.2721 33.3568 30.3038 33.935C29.786 33.233 29.2812 32.5209 28.7985 31.7949C28.3028 31.0447 28.1894 30.108 28.2496 29.2285C28.3168 28.2617 28.7704 27.2869 29.6003 26.7483Z" fill="#35BBE3"/>
<path d="M59.777 3.56141C59.7709 2.6528 59.4137 1.78029 58.8738 1.0542C60.5597 2.24362 62.2483 3.42836 63.9396 4.60842C64.1234 4.74173 64.2734 4.91602 64.378 5.11744C64.4825 5.31887 64.5386 5.54188 64.5418 5.76875C64.5648 16.0313 64.5498 26.2958 64.5538 36.5573C64.5468 42.7431 64.5779 48.9288 64.5658 55.1156C64.5658 55.5479 64.326 55.944 63.9978 56.2118C63.5703 56.5798 63.0114 56.7132 62.4925 56.9048C60.9953 57.4293 59.496 57.9448 58.0017 58.4773C58.5484 58.0104 58.9893 57.4324 59.2949 56.7818C59.6005 56.1313 59.7638 55.4231 59.774 54.7044C59.776 37.6554 59.777 20.6077 59.777 3.56141Z" fill="white"/>
<path d="M35.747 40.3907C42.1279 30.3964 50.1602 21.5571 59.5016 14.2495V19.8757C50.983 26.8399 43.6195 35.106 37.6838 44.3681C35.8082 42.3623 33.8583 40.4187 32.1483 38.2676C29.0283 40.1048 25.5049 41.208 21.9283 41.7155C14.6547 42.8277 7.17631 42.4546 0.0170898 40.7537C0.0170898 39.4252 0.0170898 38.0961 0.0170898 36.7662C6.48487 38.1603 13.1995 38.4711 19.7586 37.5686C23.1636 37.1012 26.6268 36.4152 29.6535 34.7103C28.4692 32.7877 27.4571 30.7644 26.6288 28.664C26.2555 27.7614 26.0046 26.8016 25.9996 25.8218C25.9916 24.862 26.2254 23.8581 26.8486 23.105C27.5962 22.1893 28.8145 21.7581 29.9746 21.7741C31.0785 21.7832 32.1091 22.3518 32.8658 23.13C33.8162 24.0617 34.346 25.3003 34.9732 26.4526C35.5543 27.5608 36.1153 28.7011 36.3782 29.9346C36.6096 31.0019 36.5553 32.1113 36.2206 33.1509C35.6548 34.9599 34.5364 36.5464 33.0224 37.6879C33.8804 38.6296 34.8087 39.5162 35.747 40.3907ZM29.5973 26.7515C28.7674 27.29 28.3138 28.2648 28.2465 29.2316C28.1863 30.1111 28.2997 31.0478 28.7955 31.798C29.2782 32.524 29.7829 33.2361 30.3008 33.9381C31.2691 33.3599 32.1109 32.5925 32.7757 31.6818C33.4406 30.7712 33.9149 29.7359 34.1704 28.6379C34.2587 28.1364 34.3641 27.5798 34.0851 27.1215C33.8774 26.7464 33.477 26.5469 33.0876 26.4135C31.9556 25.9943 30.6189 26.0926 29.5973 26.7484V26.7515Z" fill="white"/>
<path d="M29.4126 15.5771C30.3399 16.0826 31.2584 16.6061 32.1683 17.1477C31.8 17.8447 31.3906 18.5186 30.9641 19.1835C30.7212 19.5496 30.4944 19.9317 30.1803 20.2426C29.5942 19.915 29.0102 19.584 28.4281 19.2497C28.2154 19.1053 27.9113 19.2186 27.8009 19.4372C27.4433 20.0667 27.0237 20.659 26.5485 21.2053C25.6514 20.6417 24.7559 20.0754 23.8621 19.5064C24.4229 18.411 25.0848 17.3702 25.839 16.3975C26.395 16.7425 26.9429 17.0995 27.5019 17.4405C27.559 17.4815 27.6245 17.5093 27.6937 17.522C27.7629 17.5346 27.834 17.5318 27.902 17.5136C27.9699 17.4955 28.033 17.4625 28.0867 17.4171C28.1404 17.3717 28.1833 17.315 28.2124 17.251C28.5489 16.6501 28.9515 16.0887 29.4126 15.5771Z" fill="white"/>
</svg>
