<svg width="35" height="33" viewBox="0 0 35 33" fill="none" xmlns="http://www.w3.org/2000/svg">
<rect width="35" height="33" rx="16.5" fill="#0C0C0C"/>
<path fill-rule="evenodd" clip-rule="evenodd" d="M21.2794 14.2571C22.4516 15.0435 23.8555 15.4636 25.2937 15.4585V12.7686C25.011 12.7694 24.729 12.7408 24.4528 12.6835V14.8264C23.0114 14.8288 21.6055 14.4038 20.4338 13.6115V19.1437C20.4303 20.0515 20.1665 20.9414 19.6704 21.7192C19.1743 22.497 18.4644 23.1335 17.616 23.5614C16.7676 23.9893 15.8124 24.1926 14.8515 24.1496C13.8906 24.1067 12.9599 23.8191 12.1582 23.3175C12.8998 24.0256 13.8474 24.5101 14.8809 24.7096C15.9145 24.9092 16.9876 24.8148 17.9642 24.4384C18.9409 24.0621 19.7773 23.4207 20.3674 22.5954C20.9576 21.7702 21.275 20.7983 21.2794 19.8027V14.2571ZM22.3198 11.5134C21.7237 10.9036 21.3579 10.125 21.2794 9.29869V8.94901H20.4813C20.58 9.47424 20.7946 9.974 21.1114 10.4158C21.4281 10.8576 21.8399 11.2316 22.3198 11.5134ZM14.0062 21.188C13.7296 20.8466 13.5601 20.4388 13.5169 20.011C13.4738 19.5832 13.5588 19.1526 13.7623 18.7681C13.9657 18.3837 14.2794 18.0608 14.6678 17.8364C15.0561 17.6119 15.5033 17.4948 15.9587 17.4984C16.2101 17.4983 16.46 17.5346 16.6998 17.606V14.8264C16.4195 14.7914 16.1369 14.7764 15.8542 14.7816V16.9425C15.2704 16.7683 14.6385 16.8079 14.0843 17.0534C13.53 17.2989 13.094 17.7322 12.8629 18.2673C12.6317 18.8023 12.6225 19.3999 12.837 19.9411C13.0515 20.4822 13.474 20.9274 14.0205 21.188H14.0062Z" fill="#EE1D52"/>
<path fill-rule="evenodd" clip-rule="evenodd" d="M20.4341 13.5935C21.6058 14.3859 23.0117 14.8109 24.4531 14.8085V12.6655C23.6318 12.5017 22.8858 12.0987 22.3201 11.5134C21.8402 11.2316 21.4284 10.8576 21.1117 10.4158C20.7949 9.974 20.5803 9.47424 20.4816 8.94901H18.3818V19.8027C18.3799 20.2831 18.2185 20.7509 17.9205 21.1404C17.6224 21.5299 17.2026 21.8215 16.72 21.9743C16.2373 22.1271 15.7161 22.1334 15.2294 21.9924C14.7427 21.8514 14.3151 21.5701 14.0065 21.188C13.5174 20.9551 13.1258 20.5736 12.8947 20.1049C12.6636 19.6361 12.6066 19.1076 12.7329 18.6046C12.8591 18.1016 13.1613 17.6534 13.5906 17.3323C14.0199 17.0112 14.5513 16.836 15.0991 16.8349C15.3505 16.8356 15.6003 16.8719 15.8402 16.9425V14.7816C14.8035 14.8051 13.7965 15.1137 12.943 15.6697C12.0895 16.2256 11.4265 17.0046 11.0355 17.9111C10.6446 18.8175 10.5425 19.812 10.742 20.7724C10.9415 21.7328 11.4338 22.6174 12.1585 23.3175C12.9604 23.8227 13.8925 24.1132 14.8556 24.1581C15.8186 24.2029 16.7765 24.0004 17.6272 23.572C18.4779 23.1437 19.1895 22.5057 19.6864 21.7258C20.1832 20.946 20.4465 20.0536 20.4483 19.1437L20.4341 13.5935Z" fill="white"/>
<path fill-rule="evenodd" clip-rule="evenodd" d="M24.4531 12.6653V12.087C23.6988 12.09 22.9592 11.8911 22.32 11.5132C22.8843 12.1002 23.631 12.5035 24.4531 12.6653ZM20.4815 8.94881C20.4815 8.8457 20.4483 8.73811 20.434 8.63499V8.28531H17.5361V19.1435C17.5336 19.7515 17.2756 20.3337 16.8187 20.7624C16.3618 21.191 15.7433 21.4311 15.0991 21.4299C14.7197 21.4317 14.3453 21.3487 14.0064 21.1878C14.315 21.5699 14.7427 21.8512 15.2293 21.9922C15.716 22.1333 16.2372 22.1269 16.7199 21.9741C17.2025 21.8213 17.6224 21.5297 17.9204 21.1402C18.2185 20.7507 18.3798 20.2829 18.3818 19.8025V8.94881H20.4815ZM15.8402 14.7769V14.1627C14.6477 14.0098 13.4355 14.2426 12.4012 14.8231C11.3669 15.4036 10.5714 16.2976 10.1444 17.3593C9.71737 18.4211 9.68402 19.588 10.0498 20.67C10.4155 21.7519 11.1588 22.685 12.1584 23.3173C11.4392 22.6156 10.9522 21.7314 10.7568 20.7727C10.5614 19.8141 10.666 18.8224 11.058 17.919C11.4501 17.0156 12.1124 16.2394 12.9642 15.6854C13.8159 15.1314 14.8203 14.8235 15.8544 14.7993L15.8402 14.7769Z" fill="#69C9D0"/>
</svg>
