<svg width="35" height="33" viewBox="0 0 35 33" fill="none" xmlns="http://www.w3.org/2000/svg">
<rect width="35" height="33" rx="16.5" fill="#FF0000"/>
<path d="M27.2344 11.9611C27.0059 11.1511 26.3299 10.5121 25.4699 10.2931C23.9147 9.90009 17.6752 9.90009 17.6752 9.90009C17.6752 9.90009 11.4388 9.90009 9.88054 10.2931C9.02364 10.5091 8.34763 11.1481 8.11595 11.9611C7.7002 13.4311 7.7002 16.5001 7.7002 16.5001C7.7002 16.5001 7.7002 19.5691 8.11595 21.0391C8.34446 21.8491 9.02046 22.4881 9.88054 22.7071C11.4388 23.1001 17.6752 23.1001 17.6752 23.1001C17.6752 23.1001 23.9147 23.1001 25.4699 22.7071C26.3268 22.4911 27.0028 21.8521 27.2344 21.0391C27.6502 19.5691 27.6502 16.5001 27.6502 16.5001C27.6502 16.5001 27.6502 13.4311 27.2344 11.9611Z" fill="white"/>
<path d="M15.6821 19.3291L20.8648 16.5001L15.6821 13.6711V19.3291Z" fill="#FF0000"/>
</svg>
